ArchivoNarrowDevanagari-Bold.ufo
<glyph name="exclam" format="1">
  <advance width="241"/>
  <unicode hex="0021"/>
  <outline>
    <contour>
      <point x="188" y="606" type="curve"/>
      <point x="53" y="606" type="line"/>
      <point x="59" y="534"/>
      <point x="64" y="462"/>
      <point x="69" y="390" type="curve" smooth="yes"/>
      <point x="74" y="318"/>
      <point x="79" y="246"/>
      <point x="84" y="174" type="curve"/>
      <point x="156" y="174" type="line"/>
      <point x="167" y="318"/>
      <point x="178" y="462"/>
    </contour>
    <contour>
      <point x="60" y="0" type="line"/>
      <point x="182" y="0" type="line"/>
      <point x="182" y="121" type="line"/>
      <point x="60" y="121" type="line"/>
    </contour>
  </outline>
</glyph>
<glyph name="dollar" format="1">
  <advance width="403"/>
  <unicode hex="0024"/>
  <outline>
    <contour>
      <point x="224" y="545" type="curve"/>
      <point x="224" y="639" type="line"/>
      <point x="175" y="639" type="line"/>
      <point x="175" y="545" type="line"/>
      <point x="95" y="537"/>
      <point x="36" y="490"/>
      <point x="36" y="405" type="curve" smooth="yes"/>
      <point x="36" y="309"/>
      <point x="110" y="287"/>
      <point x="175" y="269" type="curve"/>
      <point x="175" y="142" type="line"/>
      <point x="149" y="150"/>
      <point x="127" y="171"/>
      <point x="127" y="212" type="curve" smooth="yes"/>
      <point x="127" y="218" type="line"/>
      <point x="30" y="218" type="line"/>
      <point x="30" y="218"/>
      <point x="29" y="212"/>
      <point x="29" y="208" type="curve" smooth="yes"/>
      <point x="29" y="126"/>
      <point x="82" y="69"/>
      <point x="175" y="61" type="curve"/>
      <point x="175" y="-43" type="line"/>
      <point x="224" y="-43" type="line"/>
      <point x="224" y="61" type="line"/>
      <point x="309" y="67"/>
      <point x="371" y="107"/>
      <point x="371" y="210" type="curve" smooth="yes"/>
      <point x="371" y="312"/>
      <point x="291" y="333"/>
      <point x="224" y="351" type="curve"/>
      <point x="224" y="465" type="line"/>
      <point x="247" y="456"/>
      <point x="261" y="436"/>
      <point x="262" y="401" type="curve"/>
      <point x="262" y="400" type="line"/>
      <point x="359" y="400" type="line"/>
      <point x="359" y="400"/>
      <point x="360" y="410"/>
      <point x="360" y="420" type="curve" smooth="yes"/>
      <point x="360" y="492"/>
      <point x="301" y="538"/>
    </contour>
    <contour>
      <point x="175" y="465" type="curve"/>
      <point x="175" y="366" type="line"/>
      <point x="150" y="376"/>
      <point x="133" y="389"/>
      <point x="133" y="414" type="curve" smooth="yes"/>
      <point x="133" y="438"/>
      <point x="150" y="457"/>
    </contour>
    <contour>
      <point x="224" y="141" type="curve"/>
      <point x="224" y="253" type="line"/>
      <point x="253" y="241"/>
      <point x="274" y="226"/>
      <point x="274" y="197" type="curve" smooth="yes"/>
      <point x="274" y="164"/>
      <point x="249" y="147"/>
    </contour>
  </outline>
</glyph>
<glyph name="ampersand" format="1">
  <advance width="523"/>
  <unicode hex="0026"/>
  <outline>
    <contour>
      <point x="247" y="617" type="curve" smooth="yes"/>
      <point x="126" y="617"/>
      <point x="44" y="559"/>
      <point x="44" y="451" type="curve" smooth="yes"/>
      <point x="44" y="379"/>
      <point x="83" y="340"/>
      <point x="135" y="315" type="curve"/>
      <point x="135" y="311" type="line"/>
      <point x="76" y="292"/>
      <point x="32" y="243"/>
      <point x="32" y="163" type="curve" smooth="yes"/>
      <point x="32" y="55"/>
      <point x="118" y="-11"/>
      <point x="238" y="-11" type="curve" smooth="yes"/>
      <point x="370" y="-11"/>
      <point x="440" y="61"/>
      <point x="440" y="171" type="curve" smooth="yes"/>
      <point x="440" y="263" type="line"/>
      <point x="510" y="263" type="line"/>
      <point x="510" y="353" type="line"/>
      <point x="334" y="353" type="line"/>
      <point x="334" y="169" type="line" smooth="yes"/>
      <point x="334" y="111"/>
      <point x="303" y="79"/>
      <point x="240" y="79" type="curve" smooth="yes"/>
      <point x="180" y="79"/>
      <point x="142" y="107"/>
      <point x="142" y="168" type="curve" smooth="yes"/>
      <point x="142" y="244"/>
      <point x="190" y="263"/>
      <point x="244" y="263" type="curve" smooth="yes"/>
      <point x="278" y="263" type="line"/>
      <point x="278" y="353" type="line"/>
      <point x="241" y="353" type="line" smooth="yes"/>
      <point x="191" y="353"/>
      <point x="155" y="388"/>
      <point x="155" y="446" type="curve" smooth="yes"/>
      <point x="155" y="497"/>
      <point x="188" y="528"/>
      <point x="245" y="528" type="curve" smooth="yes"/>
      <point x="303" y="528"/>
      <point x="334" y="499"/>
      <point x="334" y="443" type="curve" smooth="yes"/>
      <point x="334" y="426" type="line"/>
      <point x="440" y="426" type="line"/>
      <point x="440" y="451" type="line" smooth="yes"/>
      <point x="440" y="552"/>
      <point x="361" y="617"/>
    </contour>
  </outline>
</glyph>
<glyph name="hyphen" format="1">
  <advance width="241"/>
  <unicode hex="002D"/>
  <outline>
    <contour>
      <point x="14" y="291" type="line"/>
      <point x="14" y="187" type="line"/>
      <point x="227" y="187" type="line"/>
      <point x="227" y="291" type="line"/>
    </contour>
  </outline>
</glyph>
<glyph name="one" format="1">
  <advance width="403"/>
  <unicode hex="0031"/>
  <outline>
    <contour>
      <point x="402" y="0" type="line"/>
      <point x="402" y="89" type="line"/>
      <point x="278" y="89" type="line"/>
      <point x="278" y="606" type="line"/>
      <point x="225" y="606" type="line"/>
      <point x="169" y="571"/>
      <point x="84" y="544"/>
      <point x="34" y="538" type="curve"/>
      <point x="34" y="468" type="line"/>
      <point x="171" y="468" type="line"/>
      <point x="171" y="89" type="line"/>
      <point x="35" y="89" type="line"/>
      <point x="35" y="0" type="line"/>
    </contour>
  </outline>
</glyph>
<glyph name="two" format="1">
  <advance width="403"/>
  <unicode hex="0032"/>
  <outline>
    <contour>
      <point x="211" y="617" type="curve" smooth="yes"/>
      <point x="117" y="617"/>
      <point x="34" y="563"/>
      <point x="34" y="433" type="curve" smooth="yes"/>
      <point x="34" y="412"/>
      <point x="37" y="398"/>
      <point x="37" y="398" type="curve"/>
      <point x="146" y="398" type="line"/>
      <point x="146" y="434" type="line" smooth="yes"/>
      <point x="146" y="484"/>
      <point x="163" y="526"/>
      <point x="207" y="526" type="curve" smooth="yes"/>
      <point x="250" y="526"/>
      <point x="263" y="489"/>
      <point x="263" y="461" type="curve" smooth="yes"/>
      <point x="263" y="380"/>
      <point x="208" y="319"/>
      <point x="152" y="256" type="curve" smooth="yes"/>
      <point x="111" y="210"/>
      <point x="70" y="164"/>
      <point x="47" y="109" type="curve" smooth="yes"/>
      <point x="35" y="82"/>
      <point x="29" y="53"/>
      <point x="29" y="21" type="curve" smooth="yes"/>
      <point x="29" y="0" type="line"/>
      <point x="377" y="0" type="line"/>
      <point x="377" y="99" type="line"/>
      <point x="162" y="99" type="line"/>
      <point x="168" y="111"/>
      <point x="179" y="126"/>
      <point x="191" y="141" type="curve" smooth="yes"/>
      <point x="201" y="153"/>
      <point x="213" y="166"/>
      <point x="225" y="180" type="curve" smooth="yes"/>
      <point x="289" y="253"/>
      <point x="374" y="348"/>
      <point x="374" y="460" type="curve" smooth="yes"/>
      <point x="374" y="571"/>
      <point x="301" y="617"/>
    </contour>
  </outline>
</glyph>
<glyph name="five" format="1">
  <advance width="403"/>
  <unicode hex="0035"/>
  <outline>
    <contour>
      <point x="149" y="364" type="curve"/>
      <point x="157" y="507" type="line"/>
      <point x="357" y="507" type="line"/>
      <point x="357" y="606" type="line"/>
      <point x="64" y="606" type="line"/>
      <point x="43" y="271" type="line"/>
      <point x="146" y="256" type="line"/>
      <point x="159" y="286"/>
      <point x="179" y="308"/>
      <point x="211" y="308" type="curve" smooth="yes"/>
      <point x="247" y="308"/>
      <point x="273" y="269"/>
      <point x="273" y="198" type="curve" smooth="yes"/>
      <point x="273" y="118"/>
      <point x="246" y="78"/>
      <point x="205" y="78" type="curve" smooth="yes"/>
      <point x="162" y="78"/>
      <point x="137" y="121"/>
      <point x="137" y="188" type="curve"/>
      <point x="27" y="188" type="line"/>
      <point x="27" y="65"/>
      <point x="97" y="-11"/>
      <point x="205" y="-11" type="curve" smooth="yes"/>
      <point x="315" y="-11"/>
      <point x="383" y="65"/>
      <point x="383" y="198" type="curve" smooth="yes"/>
      <point x="383" y="331"/>
      <point x="317" y="394"/>
      <point x="235" y="394" type="curve" smooth="yes"/>
      <point x="193" y="394"/>
      <point x="166" y="378"/>
    </contour>
  </outline>
</glyph>
<glyph name="eight" format="1">
  <advance width="403"/>
  <unicode hex="0038"/>
  <outline>
    <contour>
      <point x="202" y="617" type="curve" smooth="yes"/>
      <point x="94" y="617"/>
      <point x="39" y="541"/>
      <point x="39" y="448" type="curve" smooth="yes"/>
      <point x="39" y="391"/>
      <point x="60" y="340"/>
      <point x="104" y="311" type="curve"/>
      <point x="50" y="284"/>
      <point x="27" y="232"/>
      <point x="27" y="166" type="curve" smooth="yes"/>
      <point x="27" y="69"/>
      <point x="78" y="-11"/>
      <point x="202" y="-11" type="curve" smooth="yes"/>
      <point x="325" y="-11"/>
      <point x="377" y="69"/>
      <point x="377" y="166" type="curve" smooth="yes"/>
      <point x="377" y="232"/>
      <point x="354" y="284"/>
      <point x="298" y="311" type="curve"/>
      <point x="342" y="340"/>
      <point x="364" y="391"/>
      <point x="364" y="448" type="curve" smooth="yes"/>
      <point x="364" y="541"/>
      <point x="309" y="617"/>
    </contour>
    <contour>
      <point x="202" y="529" type="curve" smooth="yes"/>
      <point x="237" y="529"/>
      <point x="257" y="499"/>
      <point x="257" y="441" type="curve" smooth="yes"/>
      <point x="257" y="384"/>
      <point x="237" y="354"/>
      <point x="202" y="354" type="curve" smooth="yes"/>
      <point x="166" y="354"/>
      <point x="147" y="384"/>
      <point x="147" y="441" type="curve" smooth="yes"/>
      <point x="147" y="499"/>
      <point x="166" y="529"/>
    </contour>
    <contour>
      <point x="202" y="266" type="curve" smooth="yes"/>
      <point x="244" y="266"/>
      <point x="267" y="232"/>
      <point x="267" y="171" type="curve" smooth="yes"/>
      <point x="267" y="110"/>
      <point x="244" y="78"/>
      <point x="202" y="78" type="curve" smooth="yes"/>
      <point x="159" y="78"/>
      <point x="136" y="110"/>
      <point x="136" y="171" type="curve" smooth="yes"/>
      <point x="136" y="232"/>
      <point x="159" y="266"/>
    </contour>
  </outline>
</glyph>
<glyph name="semicolon" format="1">
  <advance width="241"/>
  <unicode hex="003B"/>
  <outline>
    <contour>
      <point x="49" y="465" type="line"/>
      <point x="49" y="344" type="line"/>
      <point x="171" y="344" type="line"/>
      <point x="171" y="465" type="line"/>
    </contour>
    <contour>
      <point x="48" y="-138" type="line"/>
      <point x="111" y="-138" type="line"/>
      <point x="170" y="11" type="line"/>
      <point x="170" y="121" type="line"/>
      <point x="48" y="121" type="line"/>
      <point x="48" y="0" type="line"/>
      <point x="96" y="0" type="line"/>
    </contour>
  </outline>
</glyph>
<glyph name="equal" format="1">
  <advance width="423"/>
  <unicode hex="003D"/>
  <outline>
    <contour>
      <point x="29" y="364" type="line"/>
      <point x="29" y="272" type="line"/>
      <point x="393" y="272" type="line"/>
      <point x="393" y="364" type="line"/>
    </contour>
    <contour>
      <point x="29" y="176" type="line"/>
      <point x="29" y="85" type="line"/>
      <point x="393" y="85" type="line"/>
      <point x="393" y="176" type="line"/>
    </contour>
  </outline>
</glyph>
<glyph name="B" format="1">
  <advance width="523"/>
  <unicode hex="0042"/>
  <outline>
    <contour>
      <point x="314" y="606" type="curve"/>
      <point x="53" y="606" type="line"/>
      <point x="53" y="0" type="line"/>
      <point x="314" y="0" type="line" smooth="yes"/>
      <point x="411" y="0"/>
      <point x="493" y="61"/>
      <point x="493" y="163" type="curve" smooth="yes"/>
      <point x="493" y="240"/>
      <point x="446" y="296"/>
      <point x="386" y="315" type="curve"/>
      <point x="386" y="318" type="line"/>
      <point x="438" y="337"/>
      <point x="479" y="386"/>
      <point x="479" y="456" type="curve" smooth="yes"/>
      <point x="479" y="545"/>
      <point x="409" y="606"/>
    </contour>
    <contour>
      <point x="283" y="361" type="curve"/>
      <point x="166" y="361" type="line"/>
      <point x="166" y="506" type="line"/>
      <point x="288" y="506" type="line" smooth="yes"/>
      <point x="333" y="506"/>
      <point x="363" y="482"/>
      <point x="363" y="436" type="curve" smooth="yes"/>
      <point x="363" y="395"/>
      <point x="337" y="361"/>
    </contour>
    <contour>
      <point x="295" y="101" type="curve"/>
      <point x="166" y="101" type="line"/>
      <point x="166" y="261" type="line"/>
      <point x="290" y="261" type="line" smooth="yes"/>
      <point x="349" y="261"/>
      <point x="377" y="224"/>
      <point x="377" y="177" type="curve" smooth="yes"/>
      <point x="377" y="127"/>
      <point x="342" y="101"/>
    </contour>
  </outline>
</glyph>
<glyph name="E" format="1">
  <advance width="484"/>
  <unicode hex="0045"/>
  <outline>
    <contour>
      <point x="242" y="606" type="move" name="mark0"/>
    </contour>
    <contour>
      <point x="242" y="0" type="move" name="mark1"/>
    </contour>
    <contour>
      <point x="439" y="606" type="line"/>
      <point x="53" y="606" type="line"/>
      <point x="53" y="0" type="line"/>
      <point x="445" y="0" type="line"/>
      <point x="445" y="101" type="line"/>
      <point x="166" y="101" type="line"/>
      <point x="166" y="260" type="line"/>
      <point x="400" y="260" type="line"/>
      <point x="400" y="361" type="line"/>
      <point x="166" y="361" type="line"/>
      <point x="166" y="506" type="line"/>
      <point x="439" y="506" type="line"/>
    </contour>
  </outline>
</glyph>
<glyph name="H" format="1">
  <advance width="523"/>
  <unicode hex="0048"/>
  <outline>
    <contour>
      <point x="262" y="606" type="move" name="mark0"/>
    </contour>
    <contour>
      <point x="0" y="0" type="move" name="mark1"/>
    </contour>
    <contour>
      <point x="357" y="0" type="line"/>
      <point x="470" y="0" type="line"/>
      <point x="470" y="606" type="line"/>
      <point x="357" y="606" type="line"/>
      <point x="357" y="361" type="line"/>
      <point x="166" y="361" type="line"/>
      <point x="166" y="606" type="line"/>
      <point x="53" y="606" type="line"/>
      <point x="53" y="0" type="line"/>
      <point x="166" y="0" type="line"/>
      <point x="166" y="260" type="line"/>
      <point x="357" y="260" type="line"/>
    </contour>
  </outline>
</glyph>
<glyph name="J" format="1">
  <advance width="403"/>
  <unicode hex="004A"/>
  <outline>
    <contour>
      <point x="202" y="606" type="move" name="mark0"/>
    </contour>
    <contour>
      <point x="0" y="0" type="move" name="mark1"/>
    </contour>
    <contour>
      <point x="350" y="144" type="curve"/>
      <point x="350" y="606" type="line"/>
      <point x="237" y="606" type="line"/>
      <point x="237" y="153" type="line" smooth="yes"/>
      <point x="237" y="110"/>
      <point x="217" y="87"/>
      <point x="179" y="87" type="curve" smooth="yes"/>
      <point x="141" y="87"/>
      <point x="120" y="110"/>
      <point x="120" y="153" type="curve" smooth="yes"/>
      <point x="120" y="191" type="line"/>
      <point x="8" y="191" type="line"/>
      <point x="8" y="144" type="line" smooth="yes"/>
      <point x="8" y="43"/>
      <point x="70" y="-11"/>
      <point x="179" y="-11" type="curve" smooth="yes"/>
      <point x="289" y="-11"/>
      <point x="350" y="43"/>
    </contour>
  </outline>
</glyph>
<glyph name="K" format="1">
  <advance width="523"/>
  <unicode hex="004B"/>
  <outline>
    <contour>
      <point x="262" y="606" type="move" name="mark0"/>
    </contour>
    <contour>
      <point x="262" y="0" type="move" name="mark1"/>
    </contour>
    <contour>
      <point x="515" y="606" type="line"/>
      <point x="389" y="606" type="line"/>
      <point x="167" y="296" type="line"/>
      <point x="167" y="606" type="line"/>
      <point x="53" y="606" type="line"/>
      <point x="53" y="0" type="line"/>
      <point x="167" y="0" type="line"/>
      <point x="167" y="155" type="line"/>
      <point x="262" y="271" type="line"/>
      <point x="393" y="0" type="line"/>
      <point x="521" y="0" type="line"/>
      <point x="336" y="360" type="line"/>
    </contour>
  </outline>
</glyph>
<glyph name="L" format="1">
  <advance width="443"/>
  <unicode hex="004C"/>
  <outline>
    <contour>
      <point x="222" y="606" type="move" name="mark0"/>
    </contour>
    <contour>
      <point x="222" y="0" type="move" name="mark1"/>
    </contour>
    <contour>
      <point x="423" y="106" type="line"/>
      <point x="166" y="106" type="line"/>
      <point x="166" y="606" type="line"/>
      <point x="53" y="606" type="line"/>
      <point x="53" y="0" type="line"/>
      <point x="423" y="0" type="line"/>
    </contour>
  </outline>
</glyph>
<glyph name="M" format="1">
  <advance width="604"/>
  <unicode hex="004D"/>
  <outline>
    <contour>
      <point x="453" y="0" type="line"/>
      <point x="557" y="0" type="line"/>
      <point x="557" y="606" type="line"/>
      <point x="403" y="606" type="line"/>
      <point x="329" y="272" type="line" smooth="yes"/>
      <point x="321" y="237"/>
      <point x="309" y="135"/>
      <point x="309" y="135" type="curve"/>
      <point x="305" y="135" type="line"/>
      <point x="305" y="135"/>
      <point x="290" y="232"/>
      <point x="281" y="272" type="curve" smooth="yes"/>
      <point x="206" y="606" type="line"/>
      <point x="47" y="606" type="line"/>
      <point x="47" y="0" type="line"/>
      <point x="143" y="0" type="line"/>
      <point x="143" y="386" type="line" smooth="yes"/>
      <point x="143" y="410"/>
      <point x="139" y="484"/>
      <point x="139" y="484" type="curve"/>
      <point x="142" y="484" type="line"/>
      <point x="149" y="452"/>
      <point x="156" y="421"/>
      <point x="164" y="389" type="curve"/>
      <point x="249" y="0" type="line"/>
      <point x="347" y="0" type="line"/>
      <point x="438" y="415" type="line"/>
      <point x="442" y="430"/>
      <point x="445" y="446"/>
      <point x="448" y="461" type="curve" smooth="yes"/>
      <point x="450" y="469"/>
      <point x="451" y="476"/>
      <point x="453" y="484" type="curve"/>
      <point x="457" y="484" type="line"/>
      <point x="457" y="484"/>
      <point x="453" y="414"/>
      <point x="453" y="386" type="curve" smooth="yes"/>
    </contour>
  </outline>
</glyph>
<glyph name="N" format="1">
  <advance width="523"/>
  <unicode hex="004E"/>
  <outline>
    <contour>
      <point x="262" y="606" type="move" name="mark0"/>
    </contour>
    <contour>
      <point x="262" y="0" type="move" name="mark1"/>
    </contour>
    <contour>
      <point x="370" y="0" type="line"/>
      <point x="470" y="0" type="line"/>
      <point x="470" y="606" type="line"/>
      <point x="370" y="606" type="line"/>
      <point x="370" y="269" type="line"/>
      <point x="370" y="218" type="line"/>
      <point x="368" y="216" type="line"/>
      <point x="368" y="216"/>
      <point x="350" y="257"/>
      <point x="340" y="272" type="curve"/>
      <point x="153" y="606" type="line"/>
      <point x="53" y="606" type="line"/>
      <point x="53" y="0" type="line"/>
      <point x="153" y="0" type="line"/>
      <point x="153" y="338" type="line" smooth="yes"/>
      <point x="153" y="354"/>
      <point x="151" y="388"/>
      <point x="151" y="388" type="curve"/>
      <point x="155" y="391" type="line"/>
      <point x="155" y="391"/>
      <point x="175" y="347"/>
      <point x="182" y="334" type="curve" smooth="yes"/>
    </contour>
  </outline>
</glyph>
<glyph name="R" format="1">
  <advance width="523"/>
  <unicode hex="0052"/>
  <outline>
    <contour>
      <point x="262" y="606" type="move" name="mark0"/>
    </contour>
    <contour>
      <point x="262" y="0" type="move" name="mark1"/>
    </contour>
    <contour>
      <point x="307" y="606" type="curve"/>
      <point x="53" y="606" type="line"/>
      <point x="53" y="0" type="line"/>
      <point x="166" y="0" type="line"/>
      <point x="166" y="253" type="line"/>
      <point x="284" y="253" type="line"/>
      <point x="385" y="0" type="line"/>
      <point x="507" y="0" type="line"/>
      <point x="391" y="278" type="line"/>
      <point x="453" y="303"/>
      <point x="492" y="360"/>
      <point x="492" y="433" type="curve" smooth="yes"/>
      <point x="492" y="533"/>
      <point x="430" y="606"/>
    </contour>
    <contour>
      <point x="166" y="353" type="line"/>
      <point x="166" y="506" type="line"/>
      <point x="295" y="506" type="line" smooth="yes"/>
      <point x="347" y="506"/>
      <point x="370" y="477"/>
      <point x="370" y="433" type="curve" smooth="yes"/>
      <point x="370" y="383"/>
      <point x="346" y="353"/>
      <point x="291" y="353" type="curve" smooth="yes"/>
    </contour>
  </outline>
</glyph>
<glyph name="U" format="1">
  <advance width="523"/>
  <unicode hex="0055"/>
  <outline>
    <contour>
      <point x="262" y="606" type="move" name="mark0"/>
    </contour>
    <contour>
      <point x="0" y="0" type="move" name="mark1"/>
    </contour>
    <contour>
      <point x="470" y="190" type="curve"/>
      <point x="470" y="606" type="line"/>
      <point x="357" y="606" type="line"/>
      <point x="357" y="194" type="line" smooth="yes"/>
      <point x="357" y="124"/>
      <point x="322" y="87"/>
      <point x="262" y="87" type="curve" smooth="yes"/>
      <point x="202" y="87"/>
      <point x="167" y="124"/>
      <point x="167" y="194" type="curve" smooth="yes"/>
      <point x="167" y="606" type="line"/>
      <point x="54" y="606" type="line"/>
      <point x="54" y="190" type="line" smooth="yes"/>
      <point x="54" y="58"/>
      <point x="132" y="-11"/>
      <point x="262" y="-11" type="curve" smooth="yes"/>
      <point x="392" y="-11"/>
      <point x="470" y="58"/>
    </contour>
  </outline>
</glyph>
<glyph name="X" format="1">
  <advance width="484"/>
  <unicode hex="0058"/>
  <outline>
    <contour>
      <point x="483" y="0" type="line"/>
      <point x="310" y="320" type="line"/>
      <point x="467" y="606" type="line"/>
      <point x="349" y="606" type="line"/>
      <point x="248" y="408" type="line"/>
      <point x="244" y="408" type="line"/>
      <point x="142" y="606" type="line"/>
      <point x="16" y="606" type="line"/>
      <point x="171" y="318" type="line"/>
      <point x="0" y="0" type="line"/>
      <point x="118" y="0" type="line"/>
      <point x="235" y="229" type="line"/>
      <point x="239" y="229" type="line"/>
      <point x="357" y="0" type="line"/>
    </contour>
  </outline>
</glyph>
<glyph name="underscore" format="1">
  <advance width="403"/>
  <unicode hex="005F"/>
  <outline>
    <contour>
      <point x="0" y="-56" type="line"/>
      <point x="0" y="-117" type="line"/>
      <point x="402" y="-117" type="line"/>
      <point x="402" y="-56" type="line"/>
    </contour>
  </outline>
</glyph>
<glyph name="d" format="1">
  <advance width="443"/>
  <unicode hex="0064"/>
  <outline>
    <contour>
      <point x="295" y="57" type="line"/>
      <point x="306" y="0" type="line"/>
      <point x="394" y="0" type="line"/>
      <point x="394" y="639" type="line"/>
      <point x="288" y="639" type="line"/>
      <point x="288" y="417" type="line"/>
      <point x="284" y="417" type="line"/>
      <point x="267" y="454"/>
      <point x="227" y="476"/>
      <point x="180" y="476" type="curve" smooth="yes"/>
      <point x="98" y="476"/>
      <point x="36" y="402"/>
      <point x="36" y="233" type="curve" smooth="yes"/>
      <point x="36" y="65"/>
      <point x="94" y="-11"/>
      <point x="186" y="-11" type="curve" smooth="yes"/>
      <point x="230" y="-11"/>
      <point x="268" y="12"/>
      <point x="291" y="57" type="curve"/>
    </contour>
    <contour>
      <point x="217" y="379" type="curve" smooth="yes"/>
      <point x="269" y="379"/>
      <point x="288" y="331"/>
      <point x="288" y="248" type="curve" smooth="yes"/>
      <point x="288" y="216" type="line" smooth="yes"/>
      <point x="288" y="132"/>
      <point x="269" y="86"/>
      <point x="217" y="86" type="curve" smooth="yes"/>
      <point x="166" y="86"/>
      <point x="147" y="132"/>
      <point x="147" y="216" type="curve" smooth="yes"/>
      <point x="147" y="249" type="line" smooth="yes"/>
      <point x="147" y="333"/>
      <point x="166" y="379"/>
    </contour>
  </outline>
</glyph>
<glyph name="e" format="1">
  <advance width="403"/>
  <unicode hex="0065"/>
  <outline>
    <contour>
      <point x="202" y="465" type="move" name="mark0"/>
    </contour>
    <contour>
      <point x="202" y="0" type="move" name="mark1"/>
    </contour>
    <contour>
      <point x="206" y="476" type="curve" smooth="yes"/>
      <point x="91" y="476"/>
      <point x="27" y="400"/>
      <point x="27" y="232" type="curve" smooth="yes"/>
      <point x="27" y="65"/>
      <point x="90" y="-11"/>
      <point x="210" y="-11" type="curve" smooth="yes"/>
      <point x="304" y="-11"/>
      <point x="374" y="45"/>
      <point x="374" y="164" type="curve"/>
      <point x="269" y="164" type="line"/>
      <point x="269" y="109"/>
      <point x="246" y="76"/>
      <point x="210" y="76" type="curve" smooth="yes"/>
      <point x="157" y="76"/>
      <point x="139" y="123"/>
      <point x="138" y="206" type="curve"/>
      <point x="374" y="206" type="line"/>
      <point x="374" y="232" type="line" smooth="yes"/>
      <point x="374" y="400"/>
      <point x="318" y="476"/>
    </contour>
    <contour>
      <point x="206" y="389" type="curve" smooth="yes"/>
      <point x="245" y="389"/>
      <point x="263" y="350"/>
      <point x="263" y="283" type="curve"/>
      <point x="139" y="283" type="line"/>
      <point x="142" y="350"/>
      <point x="161" y="389"/>
    </contour>
  </outline>
</glyph>
<glyph name="f" format="1">
  <advance width="241"/>
  <unicode hex="0066"/>
  <outline>
    <contour>
      <point x="164" y="646" type="curve" smooth="yes"/>
      <point x="80" y="646"/>
      <point x="55" y="583"/>
      <point x="55" y="522" type="curve" smooth="yes"/>
      <point x="55" y="465" type="line"/>
      <point x="8" y="465" type="line"/>
      <point x="8" y="376" type="line"/>
      <point x="55" y="376" type="line"/>
      <point x="55" y="0" type="line"/>
      <point x="161" y="0" type="line"/>
      <point x="161" y="376" type="line"/>
      <point x="241" y="376" type="line"/>
      <point x="241" y="465" type="line"/>
      <point x="161" y="465" type="line"/>
      <point x="161" y="519" type="line" smooth="yes"/>
      <point x="161" y="544"/>
      <point x="174" y="557"/>
      <point x="198" y="557" type="curve" smooth="yes"/>
      <point x="241" y="557" type="line"/>
      <point x="241" y="636" type="line"/>
      <point x="224" y="641"/>
      <point x="189" y="646"/>
    </contour>
  </outline>
</glyph>
<glyph name="h" format="1">
  <advance width="443"/>
  <unicode hex="0068"/>
  <outline>
    <contour>
      <point x="222" y="465" type="move" name="mark0"/>
    </contour>
    <contour>
      <point x="0" y="0" type="move" name="mark1"/>
    </contour>
    <contour>
      <point x="158" y="415" type="curve"/>
      <point x="155" y="415" type="line"/>
      <point x="155" y="639" type="line"/>
      <point x="49" y="639" type="line"/>
      <point x="49" y="0" type="line"/>
      <point x="155" y="0" type="line"/>
      <point x="155" y="286" type="line" smooth="yes"/>
      <point x="155" y="339"/>
      <point x="186" y="379"/>
      <point x="227" y="379" type="curve" smooth="yes"/>
      <point x="265" y="379"/>
      <point x="288" y="357"/>
      <point x="288" y="297" type="curve" smooth="yes"/>
      <point x="288" y="0" type="line"/>
      <point x="394" y="0" type="line"/>
      <point x="394" y="326" type="line" smooth="yes"/>
      <point x="394" y="436"/>
      <point x="342" y="476"/>
      <point x="271" y="476" type="curve" smooth="yes"/>
      <point x="216" y="476"/>
      <point x="179" y="445"/>
    </contour>
  </outline>
</glyph>
<glyph name="i" format="1">
  <advance width="202"/>
  <unicode hex="0069"/>
  <outline>
    <contour>
      <point x="48" y="639" type="line"/>
      <point x="48" y="543" type="line"/>
      <point x="154" y="543" type="line"/>
      <point x="154" y="639" type="line"/>
    </contour>
    <contour>
      <point x="48" y="465" type="line"/>
      <point x="48" y="0" type="line"/>
      <point x="154" y="0" type="line"/>
      <point x="154" y="465" type="line"/>
    </contour>
  </outline>
</glyph>
<glyph name="l" format="1">
  <advance width="202"/>
  <unicode hex="006C"/>
  <outline>
    <contour>
      <point x="101" y="465" type="move" name="mark0"/>
    </contour>
    <contour>
      <point x="101" y="0" type="move" name="mark1"/>
    </contour>
    <contour>
      <point x="48" y="639" type="line"/>
      <point x="48" y="0" type="line"/>
      <point x="154" y="0" type="line"/>
      <point x="154" y="639" type="line"/>
    </contour>
  </outline>
</glyph>
<glyph name="q" format="1">
  <advance width="443"/>
  <unicode hex="0071"/>
  <outline>
    <contour>
      <point x="186" y="476" type="curve" smooth="yes"/>
      <point x="94" y="476"/>
      <point x="36" y="400"/>
      <point x="36" y="232" type="curve" smooth="yes"/>
      <point x="36" y="63"/>
      <point x="98" y="-11"/>
      <point x="180" y="-11" type="curve" smooth="yes"/>
      <point x="227" y="-11"/>
      <point x="267" y="11"/>
      <point x="284" y="48" type="curve"/>
      <point x="288" y="48" type="line"/>
      <point x="288" y="-153" type="line"/>
      <point x="394" y="-153" type="line"/>
      <point x="394" y="465" type="line"/>
      <point x="306" y="465" type="line"/>
      <point x="295" y="408" type="line"/>
      <point x="291" y="408" type="line"/>
      <point x="268" y="453"/>
      <point x="230" y="476"/>
    </contour>
    <contour>
      <point x="217" y="379" type="curve" smooth="yes"/>
      <point x="269" y="379"/>
      <point x="288" y="333"/>
      <point x="288" y="249" type="curve" smooth="yes"/>
      <point x="288" y="217" type="line" smooth="yes"/>
      <point x="288" y="133"/>
      <point x="269" y="86"/>
      <point x="217" y="86" type="curve" smooth="yes"/>
      <point x="166" y="86"/>
      <point x="147" y="132"/>
      <point x="147" y="216" type="curve" smooth="yes"/>
      <point x="147" y="249" type="line" smooth="yes"/>
      <point x="147" y="333"/>
      <point x="166" y="379"/>
    </contour>
  </outline>
</glyph>
<glyph name="r" format="1">
  <advance width="282"/>
  <unicode hex="0072"/>
  <outline>
    <contour>
      <point x="141" y="465" type="move" name="mark0"/>
    </contour>
    <contour>
      <point x="141" y="0" type="move" name="mark1"/>
    </contour>
    <contour>
      <point x="235" y="476" type="curve" smooth="yes"/>
      <point x="188" y="476"/>
      <point x="167" y="436"/>
      <point x="155" y="397" type="curve"/>
      <point x="149" y="397" type="line"/>
      <point x="137" y="465" type="line"/>
      <point x="49" y="465" type="line"/>
      <point x="49" y="0" type="line"/>
      <point x="155" y="0" type="line"/>
      <point x="155" y="259" type="line" smooth="yes"/>
      <point x="155" y="341"/>
      <point x="195" y="366"/>
      <point x="241" y="366" type="curve" smooth="yes"/>
      <point x="279" y="366" type="line"/>
      <point x="279" y="469" type="line"/>
      <point x="279" y="469"/>
      <point x="263" y="476"/>
    </contour>
  </outline>
</glyph>
<glyph name="braceleft" format="1">
  <advance width="282"/>
  <unicode hex="007B"/>
  <outline>
    <contour>
      <point x="263" y="582" type="curve"/>
      <point x="263" y="650" type="line"/>
      <point x="172" y="650"/>
      <point x="89" y="630"/>
      <point x="89" y="519" type="curve" smooth="yes"/>
      <point x="89" y="348" type="line" smooth="yes"/>
      <point x="89" y="309"/>
      <point x="53" y="295"/>
      <point x="21" y="295" type="curve"/>
      <point x="21" y="214" type="line"/>
      <point x="53" y="214"/>
      <point x="89" y="201"/>
      <point x="89" y="161" type="curve" smooth="yes"/>
      <point x="89" y="-10" type="line" smooth="yes"/>
      <point x="89" y="-121"/>
      <point x="172" y="-141"/>
      <point x="263" y="-141" type="curve"/>
      <point x="263" y="-72" type="line"/>
      <point x="232" y="-72"/>
      <point x="194" y="-64"/>
      <point x="194" y="-19" type="curve" smooth="yes"/>
      <point x="194" y="17"/>
      <point x="192" y="52"/>
      <point x="190" y="87" type="curve" smooth="yes"/>
      <point x="189" y="109"/>
      <point x="188" y="132"/>
      <point x="187" y="155" type="curve" smooth="yes"/>
      <point x="185" y="215"/>
      <point x="161" y="250"/>
      <point x="92" y="250" type="curve"/>
      <point x="92" y="259" type="line"/>
      <point x="161" y="259"/>
      <point x="186" y="294"/>
      <point x="187" y="354" type="curve" smooth="yes"/>
      <point x="188" y="377"/>
      <point x="189" y="400"/>
      <point x="190" y="422" type="curve" smooth="yes"/>
      <point x="192" y="457"/>
      <point x="194" y="492"/>
      <point x="194" y="528" type="curve" smooth="yes"/>
      <point x="194" y="573"/>
      <point x="232" y="582"/>
    </contour>
  </outline>
</glyph>
<glyph name="braceright" format="1">
  <advance width="282"/>
  <unicode hex="007D"/>
  <outline>
    <contour>
      <point x="19" y="650" type="curve"/>
      <point x="19" y="582" type="line"/>
      <point x="50" y="582"/>
      <point x="88" y="573"/>
      <point x="88" y="528" type="curve" smooth="yes"/>
      <point x="88" y="492"/>
      <point x="90" y="457"/>
      <point x="92" y="422" type="curve" smooth="yes"/>
      <point x="93" y="400"/>
      <point x="94" y="377"/>
      <point x="95" y="354" type="curve" smooth="yes"/>
      <point x="96" y="294"/>
      <point x="121" y="259"/>
      <point x="190" y="259" type="curve"/>
      <point x="190" y="250" type="line"/>
      <point x="121" y="250"/>
      <point x="97" y="215"/>
      <point x="95" y="155" type="curve" smooth="yes"/>
      <point x="94" y="132"/>
      <point x="93" y="109"/>
      <point x="92" y="87" type="curve" smooth="yes"/>
      <point x="90" y="52"/>
      <point x="88" y="17"/>
      <point x="88" y="-19" type="curve" smooth="yes"/>
      <point x="88" y="-64"/>
      <point x="50" y="-72"/>
      <point x="19" y="-72" type="curve"/>
      <point x="19" y="-141" type="line"/>
      <point x="110" y="-141"/>
      <point x="193" y="-121"/>
      <point x="193" y="-10" type="curve" smooth="yes"/>
      <point x="193" y="161" type="line" smooth="yes"/>
      <point x="193" y="201"/>
      <point x="229" y="214"/>
      <point x="261" y="214" type="curve"/>
      <point x="261" y="295" type="line"/>
      <point x="229" y="295"/>
      <point x="193" y="309"/>
      <point x="193" y="348" type="curve" smooth="yes"/>
      <point x="193" y="519" type="line" smooth="yes"/>
      <point x="193" y="630"/>
      <point x="110" y="650"/>
    </contour>
  </outline>
</glyph>
<glyph name="asciitilde" format="1">
  <advance width="423"/>
  <unicode hex="007E"/>
  <outline>
    <contour>
      <point x="400" y="249" type="curve"/>
      <point x="400" y="355" type="line"/>
      <point x="400" y="355"/>
      <point x="354" y="291"/>
      <point x="291" y="291" type="curve" smooth="yes"/>
      <point x="261" y="291"/>
      <point x="235" y="305"/>
      <point x="210" y="319" type="curve" smooth="yes"/>
      <point x="185" y="332"/>
      <point x="161" y="345"/>
      <point x="133" y="345" type="curve" smooth="yes"/>
      <point x="60" y="345"/>
      <point x="24" y="280"/>
      <point x="24" y="280" type="curve"/>
      <point x="24" y="174" type="line"/>
      <point x="24" y="174"/>
      <point x="69" y="239"/>
      <point x="133" y="239" type="curve" smooth="yes"/>
      <point x="162" y="239"/>
      <point x="187" y="225"/>
      <point x="213" y="212" type="curve"/>
      <point x="238" y="198"/>
      <point x="263" y="185"/>
      <point x="291" y="185" type="curve" smooth="yes"/>
      <point x="363" y="185"/>
      <point x="400" y="249"/>
    </contour>
  </outline>
</glyph>
<glyph name="exclamdown" format="1">
  <advance width="241"/>
  <unicode hex="00A1"/>
  <outline>
    <contour>
      <point x="60" y="344" type="line"/>
      <point x="182" y="344" type="line"/>
      <point x="182" y="465" type="line"/>
      <point x="60" y="465" type="line"/>
    </contour>
    <contour>
      <point x="156" y="291" type="curve"/>
      <point x="84" y="291" type="line"/>
      <point x="79" y="219"/>
      <point x="74" y="147"/>
      <point x="69" y="75" type="curve" smooth="yes"/>
      <point x="64" y="3"/>
      <point x="59" y="-69"/>
      <point x="53" y="-141" type="curve"/>
      <point x="188" y="-141" type="line"/>
      <point x="178" y="3"/>
      <point x="167" y="147"/>
    </contour>
  </outline>
</glyph>
<glyph name="cent" format="1">
  <advance width="403"/>
  <unicode hex="00A2"/>
  <outline>
    <contour>
      <point x="232" y="545" type="curve"/>
      <point x="232" y="639" type="line"/>
      <point x="183" y="639" type="line"/>
      <point x="183" y="545" type="line"/>
      <point x="85" y="534"/>
      <point x="36" y="457"/>
      <point x="36" y="303" type="curve" smooth="yes"/>
      <point x="36" y="150"/>
      <point x="82" y="73"/>
      <point x="183" y="62" type="curve"/>
      <point x="183" y="-43" type="line"/>
      <point x="232" y="-43" type="line"/>
      <point x="232" y="61" type="line"/>
      <point x="317" y="68"/>
      <point x="371" y="125"/>
      <point x="371" y="246" type="curve"/>
      <point x="277" y="246" type="line"/>
      <point x="277" y="190"/>
      <point x="263" y="157"/>
      <point x="232" y="149" type="curve"/>
      <point x="232" y="456" type="line"/>
      <point x="259" y="446"/>
      <point x="273" y="415"/>
      <point x="273" y="361" type="curve"/>
      <point x="371" y="361" type="line"/>
      <point x="371" y="480"/>
      <point x="317" y="537"/>
    </contour>
    <contour>
      <point x="183" y="455" type="curve"/>
      <point x="183" y="152" type="line"/>
      <point x="150" y="167"/>
      <point x="136" y="213"/>
      <point x="136" y="286" type="curve" smooth="yes"/>
      <point x="136" y="320" type="line" smooth="yes"/>
      <point x="136" y="394"/>
      <point x="149" y="441"/>
    </contour>
  </outline>
</glyph>
<glyph name="yen" format="1">
  <advance width="403"/>
  <unicode hex="00A5"/>
  <outline>
    <contour>
      <point x="378" y="268" type="line"/>
      <point x="378" y="340" type="line"/>
      <point x="286" y="340" type="line"/>
      <point x="399" y="606" type="line"/>
      <point x="288" y="606" type="line"/>
      <point x="206" y="374" type="line"/>
      <point x="202" y="374" type="line"/>
      <point x="119" y="606" type="line"/>
      <point x="4" y="606" type="line"/>
      <point x="118" y="340" type="line"/>
      <point x="25" y="340" type="line"/>
      <point x="25" y="269" type="line"/>
      <point x="148" y="269" type="line"/>
      <point x="148" y="207" type="line"/>
      <point x="25" y="207" type="line"/>
      <point x="25" y="135" type="line"/>
      <point x="149" y="135" type="line"/>
      <point x="149" y="0" type="line"/>
      <point x="255" y="0" type="line"/>
      <point x="255" y="135" type="line"/>
      <point x="378" y="135" type="line"/>
      <point x="378" y="207" type="line"/>
      <point x="255" y="207" type="line"/>
      <point x="255" y="268" type="line"/>
    </contour>
  </outline>
</glyph>
<glyph name="logicalnot" format="1">
  <advance width="423"/>
  <unicode hex="00AC"/>
  <outline>
    <contour>
      <point x="301" y="309" type="line"/>
      <point x="301" y="165" type="line"/>
      <point x="393" y="165" type="line"/>
      <point x="393" y="409" type="line"/>
      <point x="26" y="409" type="line"/>
      <point x="26" y="309" type="line"/>
    </contour>
  </outline>
</glyph>
<glyph name="macron" format="1">
  <advance width="241"/>
  <unicode hex="00AF"/>
  <outline>
    <contour>
      <point x="8" y="606" type="line"/>
      <point x="8" y="530" type="line"/>
      <point x="233" y="530" type="line"/>
      <point x="233" y="606" type="line"/>
    </contour>
  </outline>
</glyph>
<glyph name="twosuperior" format="1">
  <advance width="241"/>
  <unicode hex="00B2"/>
  <outline>
    <contour>
      <point x="123" y="649" type="curve" smooth="yes"/>
      <point x="66" y="649"/>
      <point x="17" y="617"/>
      <point x="17" y="537" type="curve" smooth="yes"/>
      <point x="17" y="525"/>
      <point x="19" y="514"/>
      <point x="19" y="514" type="curve"/>
      <point x="89" y="514" type="line"/>
      <point x="89" y="538" type="line" smooth="yes"/>
      <point x="89" y="565"/>
      <point x="99" y="587"/>
      <point x="120" y="587" type="curve" smooth="yes"/>
      <point x="142" y="587"/>
      <point x="149" y="569"/>
      <point x="149" y="554" type="curve" smooth="yes"/>
      <point x="149" y="509"/>
      <point x="118" y="474"/>
      <point x="80" y="432" type="curve" smooth="yes"/>
      <point x="79" y="430"/>
      <point x="77" y="429"/>
      <point x="76" y="427" type="curve" smooth="yes"/>
      <point x="45" y="391"/>
      <point x="13" y="353"/>
      <point x="13" y="299" type="curve" smooth="yes"/>
      <point x="13" y="283" type="line"/>
      <point x="224" y="283" type="line"/>
      <point x="224" y="348" type="line"/>
      <point x="102" y="348" type="line"/>
      <point x="107" y="356"/>
      <point x="112" y="364"/>
      <point x="118" y="371" type="curve" smooth="yes"/>
      <point x="121" y="376"/>
      <point x="125" y="380"/>
      <point x="128" y="385" type="curve" smooth="yes"/>
      <point x="134" y="392"/>
      <point x="140" y="398"/>
      <point x="145" y="405" type="curve"/>
      <point x="184" y="449"/>
      <point x="222" y="493"/>
      <point x="222" y="553" type="curve" smooth="yes"/>
      <point x="222" y="621"/>
      <point x="178" y="649"/>
    </contour>
  </outline>
</glyph>
<glyph name="threesuperior" format="1">
  <advance width="241"/>
  <unicode hex="00B3"/>
  <outline>
    <contour>
      <point x="119" y="649" type="curve" smooth="yes"/>
      <point x="60" y="649"/>
      <point x="19" y="609"/>
      <point x="19" y="548" type="curve" smooth="yes"/>
      <point x="19" y="530" type="line"/>
      <point x="91" y="530" type="line"/>
      <point x="91" y="544" type="line" smooth="yes"/>
      <point x="91" y="574"/>
      <point x="102" y="588"/>
      <point x="120" y="588" type="curve" smooth="yes"/>
      <point x="137" y="588"/>
      <point x="148" y="575"/>
      <point x="148" y="545" type="curve" smooth="yes"/>
      <point x="148" y="512"/>
      <point x="133" y="495"/>
      <point x="118" y="495" type="curve" smooth="yes"/>
      <point x="95" y="495" type="line"/>
      <point x="95" y="436" type="line"/>
      <point x="117" y="436" type="line" smooth="yes"/>
      <point x="135" y="436"/>
      <point x="154" y="425"/>
      <point x="154" y="385" type="curve" smooth="yes"/>
      <point x="154" y="351"/>
      <point x="140" y="337"/>
      <point x="120" y="337" type="curve" smooth="yes"/>
      <point x="96" y="337"/>
      <point x="85" y="354"/>
      <point x="85" y="385" type="curve" smooth="yes"/>
      <point x="85" y="400" type="line"/>
      <point x="12" y="400" type="line"/>
      <point x="12" y="386" type="line" smooth="yes"/>
      <point x="12" y="319"/>
      <point x="51" y="276"/>
      <point x="121" y="276" type="curve" smooth="yes"/>
      <point x="183" y="276"/>
      <point x="226" y="316"/>
      <point x="226" y="381" type="curve" smooth="yes"/>
      <point x="226" y="425"/>
      <point x="204" y="454"/>
      <point x="176" y="469" type="curve"/>
      <point x="202" y="486"/>
      <point x="221" y="508"/>
      <point x="221" y="548" type="curve" smooth="yes"/>
      <point x="221" y="613"/>
      <point x="179" y="649"/>
    </contour>
  </outline>
</glyph>
<glyph name="cedilla" format="1">
  <advance width="241"/>
  <unicode hex="00B8"/>
  <outline>
    <contour>
      <point x="133" y="-29" type="curve"/>
      <point x="137" y="10" type="line"/>
      <point x="77" y="10" type="line"/>
      <point x="67" y="-68" type="line"/>
      <point x="96" y="-68" type="line" smooth="yes"/>
      <point x="119" y="-68"/>
      <point x="126" y="-75"/>
      <point x="126" y="-89" type="curve" smooth="yes"/>
      <point x="126" y="-106"/>
      <point x="114" y="-111"/>
      <point x="95" y="-111" type="curve" smooth="yes"/>
      <point x="32" y="-111" type="line"/>
      <point x="32" y="-154" type="line"/>
      <point x="53" y="-158"/>
      <point x="81" y="-161"/>
      <point x="106" y="-161" type="curve" smooth="yes"/>
      <point x="144" y="-161"/>
      <point x="202" y="-149"/>
      <point x="202" y="-89" type="curve" smooth="yes"/>
      <point x="202" y="-49"/>
      <point x="171" y="-32"/>
    </contour>
  </outline>
</glyph>
<glyph name="ordmasculine" format="1">
  <advance width="264"/>
  <unicode hex="00BA"/>
  <outline>
    <contour>
      <point x="134" y="649" type="curve" smooth="yes"/>
      <point x="50" y="649"/>
      <point x="9" y="598"/>
      <point x="9" y="484" type="curve" smooth="yes"/>
      <point x="9" y="371"/>
      <point x="50" y="320"/>
      <point x="134" y="320" type="curve" smooth="yes"/>
      <point x="218" y="320"/>
      <point x="260" y="371"/>
      <point x="260" y="484" type="curve" smooth="yes"/>
      <point x="260" y="598"/>
      <point x="218" y="649"/>
    </contour>
    <contour>
      <point x="134" y="584" type="curve" smooth="yes"/>
      <point x="169" y="584"/>
      <point x="181" y="553"/>
      <point x="181" y="496" type="curve" smooth="yes"/>
      <point x="181" y="473" type="line" smooth="yes"/>
      <point x="181" y="415"/>
      <point x="169" y="385"/>
      <point x="134" y="385" type="curve" smooth="yes"/>
      <point x="100" y="385"/>
      <point x="88" y="415"/>
      <point x="88" y="473" type="curve" smooth="yes"/>
      <point x="88" y="496" type="line" smooth="yes"/>
      <point x="88" y="553"/>
      <point x="100" y="584"/>
    </contour>
  </outline>
</glyph>
<glyph name="onequarter" format="1">
  <advance width="605"/>
  <unicode hex="00BC"/>
  <outline>
    <contour>
      <point x="465" y="617" type="line"/>
      <point x="115" y="-11" type="line"/>
      <point x="174" y="-11" type="line"/>
      <point x="523" y="617" type="line"/>
    </contour>
    <contour>
      <point x="224" y="250" type="line"/>
      <point x="224" y="311" type="line"/>
      <point x="165" y="311" type="line"/>
      <point x="165" y="606" type="line"/>
      <point x="130" y="606" type="line"/>
      <point x="101" y="587"/>
      <point x="55" y="570"/>
      <point x="28" y="567" type="curve"/>
      <point x="28" y="517" type="line"/>
      <point x="95" y="517" type="line"/>
      <point x="95" y="311" type="line"/>
      <point x="29" y="311" type="line"/>
      <point x="29" y="250" type="line"/>
    </contour>
    <contour>
      <point x="511" y="366" type="curve"/>
      <point x="441" y="366" type="line"/>
      <point x="419" y="286"/>
      <point x="387" y="197"/>
      <point x="351" y="133" type="curve"/>
      <point x="351" y="79" type="line"/>
      <point x="477" y="79" type="line"/>
      <point x="477" y="0" type="line"/>
      <point x="547" y="0" type="line"/>
      <point x="547" y="79" type="line"/>
      <point x="584" y="79" type="line"/>
      <point x="584" y="140" type="line"/>
      <point x="547" y="140" type="line"/>
      <point x="547" y="288" type="line"/>
      <point x="523" y="288" type="line"/>
      <point x="515" y="259"/>
      <point x="492" y="199"/>
      <point x="477" y="172" type="curve"/>
      <point x="477" y="140" type="line"/>
      <point x="417" y="140" type="line"/>
      <point x="440" y="174"/>
      <point x="492" y="276"/>
    </contour>
  </outline>
</glyph>
<glyph name="onehalf" format="1">
  <advance width="605"/>
  <unicode hex="00BD"/>
  <outline>
    <contour>
      <point x="461" y="617" type="line"/>
      <point x="110" y="-11" type="line"/>
      <point x="170" y="-11" type="line"/>
      <point x="519" y="617" type="line"/>
    </contour>
    <contour>
      <point x="224" y="250" type="line"/>
      <point x="224" y="311" type="line"/>
      <point x="165" y="311" type="line"/>
      <point x="165" y="606" type="line"/>
      <point x="130" y="606" type="line"/>
      <point x="101" y="587"/>
      <point x="55" y="570"/>
      <point x="28" y="567" type="curve"/>
      <point x="28" y="517" type="line"/>
      <point x="95" y="517" type="line"/>
      <point x="95" y="311" type="line"/>
      <point x="29" y="311" type="line"/>
      <point x="29" y="250" type="line"/>
    </contour>
    <contour>
      <point x="485" y="366" type="curve" smooth="yes"/>
      <point x="429" y="366"/>
      <point x="379" y="334"/>
      <point x="379" y="255" type="curve" smooth="yes"/>
      <point x="379" y="242"/>
      <point x="382" y="231"/>
      <point x="382" y="231" type="curve"/>
      <point x="452" y="231" type="line"/>
      <point x="452" y="255" type="line" smooth="yes"/>
      <point x="452" y="282"/>
      <point x="461" y="304"/>
      <point x="483" y="304" type="curve" smooth="yes"/>
      <point x="505" y="304"/>
      <point x="511" y="286"/>
      <point x="511" y="271" type="curve" smooth="yes"/>
      <point x="511" y="226"/>
      <point x="480" y="191"/>
      <point x="443" y="149" type="curve" smooth="yes"/>
      <point x="410" y="111"/>
      <point x="376" y="72"/>
      <point x="376" y="16" type="curve" smooth="yes"/>
      <point x="376" y="0" type="line"/>
      <point x="586" y="0" type="line"/>
      <point x="586" y="65" type="line"/>
      <point x="464" y="65" type="line"/>
      <point x="472" y="77"/>
      <point x="480" y="88"/>
      <point x="489" y="99" type="curve" smooth="yes"/>
      <point x="495" y="106"/>
      <point x="501" y="114"/>
      <point x="507" y="121" type="curve" smooth="yes"/>
      <point x="546" y="165"/>
      <point x="584" y="210"/>
      <point x="584" y="271" type="curve" smooth="yes"/>
      <point x="584" y="339"/>
      <point x="540" y="366"/>
    </contour>
  </outline>
</glyph>
<glyph name="threequarters" format="1">
  <advance width="605"/>
  <unicode hex="00BE"/>
  <outline>
    <contour>
      <point x="133" y="617" type="curve" smooth="yes"/>
      <point x="73" y="617"/>
      <point x="32" y="577"/>
      <point x="32" y="516" type="curve" smooth="yes"/>
      <point x="32" y="498" type="line"/>
      <point x="104" y="498" type="line"/>
      <point x="104" y="512" type="line" smooth="yes"/>
      <point x="104" y="542"/>
      <point x="115" y="556"/>
      <point x="133" y="556" type="curve" smooth="yes"/>
      <point x="150" y="556"/>
      <point x="161" y="544"/>
      <point x="161" y="514" type="curve" smooth="yes"/>
      <point x="161" y="480"/>
      <point x="147" y="463"/>
      <point x="131" y="463" type="curve" smooth="yes"/>
      <point x="108" y="463" type="line"/>
      <point x="108" y="404" type="line"/>
      <point x="130" y="404" type="line" smooth="yes"/>
      <point x="149" y="404"/>
      <point x="167" y="393"/>
      <point x="167" y="353" type="curve" smooth="yes"/>
      <point x="167" y="319"/>
      <point x="153" y="305"/>
      <point x="133" y="305" type="curve" smooth="yes"/>
      <point x="110" y="305"/>
      <point x="98" y="322"/>
      <point x="98" y="353" type="curve" smooth="yes"/>
      <point x="98" y="368" type="line"/>
      <point x="26" y="368" type="line"/>
      <point x="26" y="354" type="line" smooth="yes"/>
      <point x="26" y="287"/>
      <point x="65" y="244"/>
      <point x="134" y="244" type="curve" smooth="yes"/>
      <point x="196" y="244"/>
      <point x="240" y="284"/>
      <point x="240" y="349" type="curve" smooth="yes"/>
      <point x="240" y="393"/>
      <point x="217" y="423"/>
      <point x="189" y="437" type="curve"/>
      <point x="216" y="454"/>
      <point x="234" y="476"/>
      <point x="234" y="516" type="curve" smooth="yes"/>
      <point x="234" y="582"/>
      <point x="193" y="617"/>
    </contour>
    <contour>
      <point x="461" y="617" type="line"/>
      <point x="111" y="-11" type="line"/>
      <point x="171" y="-11" type="line"/>
      <point x="520" y="617" type="line"/>
    </contour>
    <contour>
      <point x="508" y="366" type="curve"/>
      <point x="438" y="366" type="line"/>
      <point x="416" y="286"/>
      <point x="385" y="197"/>
      <point x="348" y="133" type="curve"/>
      <point x="348" y="79" type="line"/>
      <point x="475" y="79" type="line"/>
      <point x="475" y="0" type="line"/>
      <point x="545" y="0" type="line"/>
      <point x="545" y="79" type="line"/>
      <point x="582" y="79" type="line"/>
      <point x="582" y="140" type="line"/>
      <point x="545" y="140" type="line"/>
      <point x="545" y="288" type="line"/>
      <point x="521" y="288" type="line"/>
      <point x="513" y="259"/>
      <point x="489" y="199"/>
      <point x="475" y="172" type="curve"/>
      <point x="475" y="140" type="line"/>
      <point x="415" y="140" type="line"/>
      <point x="438" y="174"/>
      <point x="489" y="276"/>
    </contour>
  </outline>
</glyph>
<glyph name="questiondown" format="1">
  <advance width="443"/>
  <unicode hex="00BF"/>
  <outline>
    <contour>
      <point x="147" y="465" type="line"/>
      <point x="147" y="344" type="line"/>
      <point x="269" y="344" type="line"/>
      <point x="269" y="465" type="line"/>
    </contour>
    <contour>
      <point x="264" y="253" type="curve"/>
      <point x="264" y="291" type="line"/>
      <point x="153" y="291" type="line"/>
      <point x="153" y="266" type="line" smooth="yes"/>
      <point x="153" y="220"/>
      <point x="131" y="194"/>
      <point x="106" y="166" type="curve" smooth="yes"/>
      <point x="76" y="131"/>
      <point x="42" y="92"/>
      <point x="42" y="5" type="curve" smooth="yes"/>
      <point x="42" y="-88"/>
      <point x="108" y="-152"/>
      <point x="213" y="-152" type="curve" smooth="yes"/>
      <point x="339" y="-152"/>
      <point x="401" y="-71"/>
      <point x="401" y="28" type="curve" smooth="yes"/>
      <point x="401" y="39"/>
      <point x="399" y="59"/>
      <point x="399" y="59" type="curve"/>
      <point x="287" y="59" type="line"/>
      <point x="287" y="59"/>
      <point x="288" y="50"/>
      <point x="288" y="35" type="curve" smooth="yes"/>
      <point x="288" y="3"/>
      <point x="279" y="-57"/>
      <point x="220" y="-57" type="curve" smooth="yes"/>
      <point x="165" y="-57"/>
      <point x="158" y="-3"/>
      <point x="158" y="15" type="curve" smooth="yes"/>
      <point x="158" y="73"/>
      <point x="185" y="106"/>
      <point x="212" y="139" type="curve" smooth="yes"/>
      <point x="238" y="170"/>
      <point x="264" y="201"/>
    </contour>
  </outline>
</glyph>
<glyph name="Atilde" format="1">
  <advance width="523"/>
  <unicode hex="00C3"/>
  <outline>
    <contour>
      <point x="410" y="781" type="curve"/>
      <point x="352" y="781" type="line"/>
      <point x="348" y="756"/>
      <point x="336" y="748"/>
      <point x="317" y="748" type="curve" smooth="yes"/>
      <point x="298" y="748"/>
      <point x="280" y="756"/>
      <point x="261" y="764" type="curve" smooth="yes"/>
      <point x="242" y="772"/>
      <point x="222" y="781"/>
      <point x="200" y="781" type="curve" smooth="yes"/>
      <point x="138" y="781"/>
      <point x="113" y="721"/>
      <point x="113" y="673" type="curve"/>
      <point x="171" y="673" type="line"/>
      <point x="175" y="697"/>
      <point x="187" y="705"/>
      <point x="206" y="705" type="curve" smooth="yes"/>
      <point x="226" y="705"/>
      <point x="244" y="697"/>
      <point x="262" y="689" type="curve" smooth="yes"/>
      <point x="282" y="681"/>
      <point x="301" y="673"/>
      <point x="323" y="673" type="curve" smooth="yes"/>
      <point x="385" y="673"/>
      <point x="410" y="732"/>
    </contour>
    <contour>
      <point x="407" y="0" type="line"/>
      <point x="522" y="0" type="line"/>
      <point x="327" y="606" type="line"/>
      <point x="195" y="606" type="line"/>
      <point x="0" y="0" type="line"/>
      <point x="110" y="0" type="line"/>
      <point x="146" y="119" type="line"/>
      <point x="370" y="119" type="line"/>
    </contour>
    <contour>
      <point x="256" y="505" type="curve"/>
      <point x="260" y="505" type="line"/>
      <point x="260" y="505"/>
      <point x="268" y="454"/>
      <point x="278" y="423" type="curve" smooth="yes"/>
      <point x="339" y="220" type="line"/>
      <point x="177" y="220" type="line"/>
      <point x="239" y="423" type="line" smooth="yes"/>
      <point x="248" y="451"/>
      <point x="256" y="505"/>
    </contour>
  </outline>
</glyph>
<glyph name="Adieresis" format="1">
  <advance width="523"/>
  <unicode hex="00C4"/>
  <outline>
    <contour>
      <point x="141" y="684" type="line"/>
      <point x="229" y="684" type="line"/>
      <point x="229" y="781" type="line"/>
      <point x="141" y="781" type="line"/>
    </contour>
    <contour>
      <point x="294" y="684" type="line"/>
      <point x="384" y="684" type="line"/>
      <point x="384" y="781" type="line"/>
      <point x="294" y="781" type="line"/>
    </contour>
    <contour>
      <point x="407" y="0" type="line"/>
      <point x="522" y="0" type="line"/>
      <point x="327" y="606" type="line"/>
      <point x="195" y="606" type="line"/>
      <point x="0" y="0" type="line"/>
      <point x="110" y="0" type="line"/>
      <point x="146" y="119" type="line"/>
      <point x="370" y="119" type="line"/>
    </contour>
    <contour>
      <point x="256" y="505" type="curve"/>
      <point x="260" y="505" type="line"/>
      <point x="260" y="505"/>
      <point x="268" y="454"/>
      <point x="278" y="423" type="curve" smooth="yes"/>
      <point x="339" y="220" type="line"/>
      <point x="177" y="220" type="line"/>
      <point x="239" y="423" type="line" smooth="yes"/>
      <point x="248" y="451"/>
      <point x="256" y="505"/>
    </contour>
  </outline>
</glyph>
<glyph name="AE" format="1">
  <advance width="725"/>
  <unicode hex="00C6"/>
  <outline>
    <contour>
      <point x="362" y="606" type="move" name="mark0"/>
    </contour>
    <contour>
      <point x="0" y="0" type="move" name="mark1"/>
    </contour>
    <contour>
      <point x="387" y="506" type="line"/>
      <point x="682" y="506" type="line"/>
      <point x="682" y="606" type="line"/>
      <point x="225" y="606" type="line"/>
      <point x="-7" y="0" type="line"/>
      <point x="98" y="0" type="line"/>
      <point x="142" y="119" type="line"/>
      <point x="366" y="119" type="line"/>
      <point x="395" y="0" type="line"/>
      <point x="687" y="0" type="line"/>
      <point x="687" y="101" type="line"/>
      <point x="486" y="101" type="line"/>
      <point x="447" y="260" type="line"/>
      <point x="643" y="260" type="line"/>
      <point x="643" y="361" type="line"/>
      <point x="423" y="361" type="line"/>
    </contour>
    <contour>
      <point x="277" y="483" type="curve"/>
      <point x="280" y="483" type="line"/>
      <point x="283" y="472"/>
      <point x="286" y="461"/>
      <point x="288" y="450" type="curve" smooth="yes"/>
      <point x="342" y="220" type="line"/>
      <point x="179" y="220" type="line"/>
      <point x="264" y="450" type="line"/>
      <point x="267" y="456"/>
      <point x="269" y="461"/>
      <point x="271" y="467" type="curve" smooth="yes"/>
      <point x="273" y="472"/>
      <point x="275" y="478"/>
    </contour>
  </outline>
</glyph>
<glyph name="Ccedilla" format="1">
  <advance width="523"/>
  <unicode hex="00C7"/>
  <outline>
    <contour>
      <point x="271" y="617" type="curve" smooth="yes"/>
      <point x="119" y="617"/>
      <point x="30" y="517"/>
      <point x="30" y="303" type="curve" smooth="yes"/>
      <point x="30" y="108"/>
      <point x="103" y="8"/>
      <point x="232" y="-8" type="curve"/>
      <point x="225" y="-68" type="line"/>
      <point x="254" y="-68" type="line" smooth="yes"/>
      <point x="277" y="-68"/>
      <point x="284" y="-75"/>
      <point x="284" y="-89" type="curve" smooth="yes"/>
      <point x="284" y="-106"/>
      <point x="271" y="-111"/>
      <point x="252" y="-111" type="curve" smooth="yes"/>
      <point x="189" y="-111" type="line"/>
      <point x="189" y="-154" type="line"/>
      <point x="210" y="-158"/>
      <point x="239" y="-161"/>
      <point x="263" y="-161" type="curve" smooth="yes"/>
      <point x="301" y="-161"/>
      <point x="360" y="-149"/>
      <point x="360" y="-89" type="curve" smooth="yes"/>
      <point x="360" y="-49"/>
      <point x="328" y="-32"/>
      <point x="290" y="-29" type="curve"/>
      <point x="292" y="-10" type="line"/>
      <point x="409" y="-2"/>
      <point x="494" y="74"/>
      <point x="494" y="225" type="curve"/>
      <point x="384" y="225" type="line"/>
      <point x="384" y="131"/>
      <point x="340" y="87"/>
      <point x="275" y="87" type="curve" smooth="yes"/>
      <point x="188" y="87"/>
      <point x="147" y="160"/>
      <point x="147" y="281" type="curve" smooth="yes"/>
      <point x="147" y="325" type="line" smooth="yes"/>
      <point x="147" y="446"/>
      <point x="187" y="520"/>
      <point x="271" y="520" type="curve" smooth="yes"/>
      <point x="335" y="520"/>
      <point x="378" y="475"/>
      <point x="378" y="381" type="curve"/>
      <point x="494" y="381" type="line"/>
      <point x="494" y="545"/>
      <point x="398" y="617"/>
    </contour>
  </outline>
</glyph>
<glyph name="Iacute" format="1">
  <advance width="202"/>
  <unicode hex="00CD"/>
  <outline>
    <contour>
      <point x="128" y="664" type="line"/>
      <point x="223" y="778" type="line"/>
      <point x="222" y="781" type="line"/>
      <point x="116" y="781" type="line"/>
      <point x="40" y="664" type="line"/>
    </contour>
    <contour>
      <point x="44" y="0" type="line"/>
      <point x="157" y="0" type="line"/>
      <point x="157" y="606" type="line"/>
      <point x="44" y="606" type="line"/>
    </contour>
  </outline>
</glyph>
<glyph name="Idieresis" format="1">
  <advance width="202"/>
  <unicode hex="00CF"/>
  <outline>
    <contour>
      <point x="-20" y="684" type="line"/>
      <point x="68" y="684" type="line"/>
      <point x="68" y="781" type="line"/>
      <point x="-20" y="781" type="line"/>
    </contour>
    <contour>
      <point x="134" y="684" type="line"/>
      <point x="223" y="684" type="line"/>
      <point x="223" y="781" type="line"/>
      <point x="134" y="781" type="line"/>
    </contour>
    <contour>
      <point x="44" y="0" type="line"/>
      <point x="157" y="0" type="line"/>
      <point x="157" y="606" type="line"/>
      <point x="44" y="606" type="line"/>
    </contour>
  </outline>
</glyph>
<glyph name="Ntilde" format="1">
  <advance width="523"/>
  <unicode hex="00D1"/>
  <outline>
    <contour>
      <point x="410" y="781" type="curve"/>
      <point x="352" y="781" type="line"/>
      <point x="348" y="756"/>
      <point x="336" y="748"/>
      <point x="317" y="748" type="curve" smooth="yes"/>
      <point x="298" y="748"/>
      <point x="280" y="756"/>
      <point x="261" y="764" type="curve" smooth="yes"/>
      <point x="242" y="772"/>
      <point x="222" y="781"/>
      <point x="200" y="781" type="curve" smooth="yes"/>
      <point x="138" y="781"/>
      <point x="113" y="721"/>
      <point x="113" y="673" type="curve"/>
      <point x="171" y="673" type="line"/>
      <point x="175" y="697"/>
      <point x="187" y="705"/>
      <point x="206" y="705" type="curve" smooth="yes"/>
      <point x="226" y="705"/>
      <point x="244" y="697"/>
      <point x="262" y="689" type="curve" smooth="yes"/>
      <point x="282" y="681"/>
      <point x="301" y="673"/>
      <point x="323" y="673" type="curve" smooth="yes"/>
      <point x="385" y="673"/>
      <point x="410" y="732"/>
    </contour>
    <contour>
      <point x="370" y="0" type="line"/>
      <point x="470" y="0" type="line"/>
      <point x="470" y="606" type="line"/>
      <point x="370" y="606" type="line"/>
      <point x="370" y="269" type="line"/>
      <point x="370" y="218" type="line"/>
      <point x="368" y="216" type="line"/>
      <point x="368" y="216"/>
      <point x="350" y="257"/>
      <point x="340" y="272" type="curve"/>
      <point x="153" y="606" type="line"/>
      <point x="53" y="606" type="line"/>
      <point x="53" y="0" type="line"/>
      <point x="153" y="0" type="line"/>
      <point x="153" y="338" type="line" smooth="yes"/>
      <point x="153" y="354"/>
      <point x="151" y="388"/>
      <point x="151" y="388" type="curve"/>
      <point x="155" y="391" type="line"/>
      <point x="155" y="391"/>
      <point x="175" y="347"/>
      <point x="182" y="334" type="curve" smooth="yes"/>
    </contour>
  </outline>
</glyph>
<glyph name="Ocircumflex" format="1">
  <advance width="564"/>
  <unicode hex="00D4"/>
  <outline>
    <contour>
      <point x="283" y="722" type="line"/>
      <point x="322" y="661" type="line"/>
      <point x="401" y="661" type="line"/>
      <point x="326" y="781" type="line"/>
      <point x="240" y="781" type="line"/>
      <point x="164" y="661" type="line"/>
      <point x="243" y="661" type="line"/>
    </contour>
    <contour>
      <point x="282" y="617" type="curve" smooth="yes"/>
      <point x="126" y="617"/>
      <point x="30" y="517"/>
      <point x="30" y="303" type="curve" smooth="yes"/>
      <point x="30" y="89"/>
      <point x="126" y="-11"/>
      <point x="282" y="-11" type="curve" smooth="yes"/>
      <point x="438" y="-11"/>
      <point x="534" y="89"/>
      <point x="534" y="303" type="curve" smooth="yes"/>
      <point x="534" y="517"/>
      <point x="438" y="617"/>
    </contour>
    <contour>
      <point x="282" y="520" type="curve" smooth="yes"/>
      <point x="372" y="520"/>
      <point x="417" y="446"/>
      <point x="417" y="325" type="curve" smooth="yes"/>
      <point x="417" y="281" type="line" smooth="yes"/>
      <point x="417" y="160"/>
      <point x="372" y="87"/>
      <point x="282" y="87" type="curve" smooth="yes"/>
      <point x="192" y="87"/>
      <point x="147" y="160"/>
      <point x="147" y="281" type="curve" smooth="yes"/>
      <point x="147" y="325" type="line" smooth="yes"/>
      <point x="147" y="446"/>
      <point x="192" y="520"/>
    </contour>
  </outline>
</glyph>
<glyph name="Otilde" format="1">
  <advance width="564"/>
  <unicode hex="00D5"/>
  <outline>
    <contour>
      <point x="431" y="781" type="curve"/>
      <point x="372" y="781" type="line"/>
      <point x="369" y="756"/>
      <point x="357" y="748"/>
      <point x="339" y="748" type="curve" smooth="yes"/>
      <point x="319" y="748"/>
      <point x="300" y="756"/>
      <point x="281" y="764" type="curve" smooth="yes"/>
      <point x="262" y="773"/>
      <point x="243" y="781"/>
      <point x="221" y="781" type="curve" smooth="yes"/>
      <point x="159" y="781"/>
      <point x="133" y="721"/>
      <point x="133" y="673" type="curve"/>
      <point x="193" y="673" type="line"/>
      <point x="196" y="697"/>
      <point x="208" y="705"/>
      <point x="227" y="705" type="curve" smooth="yes"/>
      <point x="247" y="705"/>
      <point x="265" y="697"/>
      <point x="283" y="689" type="curve" smooth="yes"/>
      <point x="303" y="681"/>
      <point x="322" y="673"/>
      <point x="344" y="673" type="curve" smooth="yes"/>
      <point x="406" y="673"/>
      <point x="431" y="732"/>
    </contour>
    <contour>
      <point x="282" y="617" type="curve" smooth="yes"/>
      <point x="126" y="617"/>
      <point x="30" y="517"/>
      <point x="30" y="303" type="curve" smooth="yes"/>
      <point x="30" y="89"/>
      <point x="126" y="-11"/>
      <point x="282" y="-11" type="curve" smooth="yes"/>
      <point x="438" y="-11"/>
      <point x="534" y="89"/>
      <point x="534" y="303" type="curve" smooth="yes"/>
      <point x="534" y="517"/>
      <point x="438" y="617"/>
    </contour>
    <contour>
      <point x="282" y="520" type="curve" smooth="yes"/>
      <point x="372" y="520"/>
      <point x="417" y="446"/>
      <point x="417" y="325" type="curve" smooth="yes"/>
      <point x="417" y="281" type="line" smooth="yes"/>
      <point x="417" y="160"/>
      <point x="372" y="87"/>
      <point x="282" y="87" type="curve" smooth="yes"/>
      <point x="192" y="87"/>
      <point x="147" y="160"/>
      <point x="147" y="281" type="curve" smooth="yes"/>
      <point x="147" y="325" type="line" smooth="yes"/>
      <point x="147" y="446"/>
      <point x="192" y="520"/>
    </contour>
  </outline>
</glyph>
<glyph name="Odieresis" format="1">
  <advance width="564"/>
  <unicode hex="00D6"/>
  <outline>
    <contour>
      <point x="161" y="684" type="line"/>
      <point x="249" y="684" type="line"/>
      <point x="249" y="781" type="line"/>
      <point x="161" y="781" type="line"/>
    </contour>
    <contour>
      <point x="316" y="684" type="line"/>
      <point x="404" y="684" type="line"/>
      <point x="404" y="781" type="line"/>
      <point x="316" y="781" type="line"/>
    </contour>
    <contour>
      <point x="282" y="617" type="curve" smooth="yes"/>
      <point x="126" y="617"/>
      <point x="30" y="517"/>
      <point x="30" y="303" type="curve" smooth="yes"/>
      <point x="30" y="89"/>
      <point x="126" y="-11"/>
      <point x="282" y="-11" type="curve" smooth="yes"/>
      <point x="438" y="-11"/>
      <point x="534" y="89"/>
      <point x="534" y="303" type="curve" smooth="yes"/>
      <point x="534" y="517"/>
      <point x="438" y="617"/>
    </contour>
    <contour>
      <point x="282" y="520" type="curve" smooth="yes"/>
      <point x="372" y="520"/>
      <point x="417" y="446"/>
      <point x="417" y="325" type="curve" smooth="yes"/>
      <point x="417" y="281" type="line" smooth="yes"/>
      <point x="417" y="160"/>
      <point x="372" y="87"/>
      <point x="282" y="87" type="curve" smooth="yes"/>
      <point x="192" y="87"/>
      <point x="147" y="160"/>
      <point x="147" y="281" type="curve" smooth="yes"/>
      <point x="147" y="325" type="line" smooth="yes"/>
      <point x="147" y="446"/>
      <point x="192" y="520"/>
    </contour>
  </outline>
</glyph>
<glyph name="aacute" format="1">
  <advance width="403"/>
  <unicode hex="00E1"/>
  <outline>
    <contour>
      <point x="218" y="522" type="line"/>
      <point x="314" y="636" type="line"/>
      <point x="313" y="639" type="line"/>
      <point x="207" y="639" type="line"/>
      <point x="131" y="522" type="line"/>
    </contour>
    <contour>
      <point x="192" y="476" type="curve" smooth="yes"/>
      <point x="96" y="476"/>
      <point x="34" y="424"/>
      <point x="34" y="347" type="curve" smooth="yes"/>
      <point x="34" y="339"/>
      <point x="34" y="332"/>
      <point x="35" y="327" type="curve"/>
      <point x="139" y="327" type="line"/>
      <point x="139" y="340" type="line" smooth="yes"/>
      <point x="139" y="362"/>
      <point x="151" y="389"/>
      <point x="194" y="389" type="curve" smooth="yes"/>
      <point x="235" y="389"/>
      <point x="243" y="363"/>
      <point x="243" y="331" type="curve" smooth="yes"/>
      <point x="243" y="283" type="line"/>
      <point x="108" y="283"/>
      <point x="12" y="246"/>
      <point x="12" y="120" type="curve" smooth="yes"/>
      <point x="12" y="12"/>
      <point x="86" y="-11"/>
      <point x="129" y="-11" type="curve" smooth="yes"/>
      <point x="191" y="-11"/>
      <point x="220" y="13"/>
      <point x="247" y="50" type="curve"/>
      <point x="251" y="50" type="line"/>
      <point x="262" y="14"/>
      <point x="291" y="-11"/>
      <point x="333" y="-11" type="curve" smooth="yes"/>
      <point x="365" y="-11"/>
      <point x="385" y="-3"/>
      <point x="396" y="4" type="curve"/>
      <point x="396" y="79" type="line"/>
      <point x="375" y="79" type="line" smooth="yes"/>
      <point x="362" y="79"/>
      <point x="350" y="88"/>
      <point x="350" y="110" type="curve" smooth="yes"/>
      <point x="350" y="339" type="line" smooth="yes"/>
      <point x="350" y="425"/>
      <point x="300" y="476"/>
    </contour>
    <contour>
      <point x="243" y="206" type="curve"/>
      <point x="243" y="179" type="line" smooth="yes"/>
      <point x="243" y="125"/>
      <point x="224" y="78"/>
      <point x="173" y="78" type="curve" smooth="yes"/>
      <point x="137" y="78"/>
      <point x="121" y="98"/>
      <point x="121" y="130" type="curve" smooth="yes"/>
      <point x="121" y="190"/>
      <point x="181" y="206"/>
    </contour>
  </outline>
</glyph>
<glyph name="atilde" format="1">
  <advance width="403"/>
  <unicode hex="00E3"/>
  <outline>
    <contour>
      <point x="340" y="639" type="curve"/>
      <point x="282" y="639" type="line"/>
      <point x="278" y="614"/>
      <point x="266" y="606"/>
      <point x="248" y="606" type="curve" smooth="yes"/>
      <point x="228" y="606"/>
      <point x="210" y="614"/>
      <point x="191" y="622" type="curve" smooth="yes"/>
      <point x="172" y="630"/>
      <point x="152" y="639"/>
      <point x="130" y="639" type="curve" smooth="yes"/>
      <point x="68" y="639"/>
      <point x="43" y="580"/>
      <point x="43" y="531" type="curve"/>
      <point x="102" y="531" type="line"/>
      <point x="105" y="555"/>
      <point x="118" y="564"/>
      <point x="136" y="564" type="curve" smooth="yes"/>
      <point x="156" y="564"/>
      <point x="174" y="556"/>
      <point x="192" y="548" type="curve" smooth="yes"/>
      <point x="212" y="540"/>
      <point x="231" y="531"/>
      <point x="253" y="531" type="curve" smooth="yes"/>
      <point x="316" y="531"/>
      <point x="340" y="591"/>
    </contour>
    <contour>
      <point x="192" y="476" type="curve" smooth="yes"/>
      <point x="96" y="476"/>
      <point x="34" y="424"/>
      <point x="34" y="347" type="curve" smooth="yes"/>
      <point x="34" y="339"/>
      <point x="34" y="332"/>
      <point x="35" y="327" type="curve"/>
      <point x="139" y="327" type="line"/>
      <point x="139" y="340" type="line" smooth="yes"/>
      <point x="139" y="362"/>
      <point x="151" y="389"/>
      <point x="194" y="389" type="curve" smooth="yes"/>
      <point x="235" y="389"/>
      <point x="243" y="363"/>
      <point x="243" y="331" type="curve" smooth="yes"/>
      <point x="243" y="283" type="line"/>
      <point x="108" y="283"/>
      <point x="12" y="246"/>
      <point x="12" y="120" type="curve" smooth="yes"/>
      <point x="12" y="12"/>
      <point x="86" y="-11"/>
      <point x="129" y="-11" type="curve" smooth="yes"/>
      <point x="191" y="-11"/>
      <point x="220" y="13"/>
      <point x="247" y="50" type="curve"/>
      <point x="251" y="50" type="line"/>
      <point x="262" y="14"/>
      <point x="291" y="-11"/>
      <point x="333" y="-11" type="curve" smooth="yes"/>
      <point x="365" y="-11"/>
      <point x="385" y="-3"/>
      <point x="396" y="4" type="curve"/>
      <point x="396" y="79" type="line"/>
      <point x="375" y="79" type="line" smooth="yes"/>
      <point x="362" y="79"/>
      <point x="350" y="88"/>
      <point x="350" y="110" type="curve" smooth="yes"/>
      <point x="350" y="339" type="line" smooth="yes"/>
      <point x="350" y="425"/>
      <point x="300" y="476"/>
    </contour>
    <contour>
      <point x="243" y="206" type="curve"/>
      <point x="243" y="179" type="line" smooth="yes"/>
      <point x="243" y="125"/>
      <point x="224" y="78"/>
      <point x="173" y="78" type="curve" smooth="yes"/>
      <point x="137" y="78"/>
      <point x="121" y="98"/>
      <point x="121" y="130" type="curve" smooth="yes"/>
      <point x="121" y="190"/>
      <point x="181" y="206"/>
    </contour>
  </outline>
</glyph>
<glyph name="egrave" format="1">
  <advance width="403"/>
  <unicode hex="00E8"/>
  <outline>
    <contour>
      <point x="175" y="522" type="line"/>
      <point x="263" y="522" type="line"/>
      <point x="187" y="639" type="line"/>
      <point x="80" y="639" type="line"/>
      <point x="80" y="636" type="line"/>
    </contour>
    <contour>
      <point x="206" y="476" type="curve" smooth="yes"/>
      <point x="91" y="476"/>
      <point x="27" y="400"/>
      <point x="27" y="232" type="curve" smooth="yes"/>
      <point x="27" y="65"/>
      <point x="90" y="-11"/>
      <point x="210" y="-11" type="curve" smooth="yes"/>
      <point x="304" y="-11"/>
      <point x="374" y="45"/>
      <point x="374" y="164" type="curve"/>
      <point x="269" y="164" type="line"/>
      <point x="269" y="109"/>
      <point x="246" y="76"/>
      <point x="210" y="76" type="curve" smooth="yes"/>
      <point x="157" y="76"/>
      <point x="139" y="123"/>
      <point x="138" y="206" type="curve"/>
      <point x="374" y="206" type="line"/>
      <point x="374" y="232" type="line" smooth="yes"/>
      <point x="374" y="400"/>
      <point x="318" y="476"/>
    </contour>
    <contour>
      <point x="206" y="389" type="curve" smooth="yes"/>
      <point x="245" y="389"/>
      <point x="263" y="350"/>
      <point x="263" y="283" type="curve"/>
      <point x="139" y="283" type="line"/>
      <point x="142" y="350"/>
      <point x="161" y="389"/>
    </contour>
  </outline>
</glyph>
<glyph name="igrave" format="1">
  <advance width="202"/>
  <unicode hex="00EC"/>
  <outline>
    <contour>
      <point x="74" y="522" type="line"/>
      <point x="162" y="522" type="line"/>
      <point x="86" y="639" type="line"/>
      <point x="-20" y="639" type="line"/>
      <point x="-21" y="636" type="line"/>
    </contour>
    <contour>
      <point x="48" y="0" type="line"/>
      <point x="154" y="0" type="line"/>
      <point x="154" y="465" type="line"/>
      <point x="48" y="465" type="line"/>
    </contour>
  </outline>
</glyph>
<glyph name="iacute" format="1">
  <advance width="202"/>
  <unicode hex="00ED"/>
  <outline>
    <contour>
      <point x="128" y="522" type="line"/>
      <point x="223" y="636" type="line"/>
      <point x="222" y="639" type="line"/>
      <point x="116" y="639" type="line"/>
      <point x="40" y="522" type="line"/>
    </contour>
    <contour>
      <point x="48" y="0" type="line"/>
      <point x="154" y="0" type="line"/>
      <point x="154" y="465" type="line"/>
      <point x="48" y="465" type="line"/>
    </contour>
  </outline>
</glyph>
<glyph name="eth" format="1">
  <advance width="443"/>
  <unicode hex="00F0"/>
  <outline>
    <contour>
      <point x="228" y="639" type="curve"/>
      <point x="117" y="639" type="line"/>
      <point x="115" y="636" type="line"/>
      <point x="120" y="631"/>
      <point x="125" y="625"/>
      <point x="132" y="619" type="curve" smooth="yes"/>
      <point x="141" y="610"/>
      <point x="151" y="599"/>
      <point x="162" y="587" type="curve"/>
      <point x="95" y="581" type="line"/>
      <point x="95" y="516" type="line"/>
      <point x="210" y="526" type="line"/>
      <point x="222" y="508"/>
      <point x="234" y="489"/>
      <point x="243" y="472" type="curve"/>
      <point x="240" y="469" type="line"/>
      <point x="227" y="473"/>
      <point x="210" y="476"/>
      <point x="197" y="476" type="curve" smooth="yes"/>
      <point x="98" y="476"/>
      <point x="36" y="392"/>
      <point x="36" y="232" type="curve" smooth="yes"/>
      <point x="36" y="65"/>
      <point x="98" y="-11"/>
      <point x="222" y="-11" type="curve" smooth="yes"/>
      <point x="346" y="-11"/>
      <point x="408" y="65"/>
      <point x="408" y="232" type="curve" smooth="yes"/>
      <point x="408" y="372"/>
      <point x="367" y="469"/>
      <point x="321" y="537" type="curve"/>
      <point x="387" y="543" type="line"/>
      <point x="387" y="607" type="line"/>
      <point x="272" y="597" type="line"/>
      <point x="255" y="614"/>
      <point x="240" y="629"/>
    </contour>
    <contour>
      <point x="222" y="386" type="curve" smooth="yes"/>
      <point x="277" y="386"/>
      <point x="297" y="339"/>
      <point x="297" y="249" type="curve" smooth="yes"/>
      <point x="297" y="216" type="line" smooth="yes"/>
      <point x="297" y="126"/>
      <point x="277" y="79"/>
      <point x="222" y="79" type="curve" smooth="yes"/>
      <point x="167" y="79"/>
      <point x="147" y="126"/>
      <point x="147" y="216" type="curve" smooth="yes"/>
      <point x="147" y="249" type="line" smooth="yes"/>
      <point x="147" y="339"/>
      <point x="167" y="386"/>
    </contour>
  </outline>
</glyph>
<glyph name="otilde" format="1">
  <advance width="443"/>
  <unicode hex="00F5"/>
  <outline>
    <contour>
      <point x="370" y="639" type="curve"/>
      <point x="312" y="639" type="line"/>
      <point x="309" y="614"/>
      <point x="296" y="606"/>
      <point x="278" y="606" type="curve" smooth="yes"/>
      <point x="258" y="606"/>
      <point x="240" y="614"/>
      <point x="221" y="622" type="curve" smooth="yes"/>
      <point x="202" y="630"/>
      <point x="182" y="639"/>
      <point x="160" y="639" type="curve" smooth="yes"/>
      <point x="98" y="639"/>
      <point x="73" y="580"/>
      <point x="73" y="531" type="curve"/>
      <point x="132" y="531" type="line"/>
      <point x="135" y="555"/>
      <point x="148" y="564"/>
      <point x="166" y="564" type="curve" smooth="yes"/>
      <point x="186" y="564"/>
      <point x="204" y="556"/>
      <point x="222" y="548" type="curve" smooth="yes"/>
      <point x="242" y="540"/>
      <point x="261" y="531"/>
      <point x="283" y="531" type="curve" smooth="yes"/>
      <point x="346" y="531"/>
      <point x="370" y="591"/>
    </contour>
    <contour>
      <point x="222" y="476" type="curve" smooth="yes"/>
      <point x="98" y="476"/>
      <point x="36" y="400"/>
      <point x="36" y="232" type="curve" smooth="yes"/>
      <point x="36" y="65"/>
      <point x="98" y="-11"/>
      <point x="222" y="-11" type="curve" smooth="yes"/>
      <point x="346" y="-11"/>
      <point x="408" y="65"/>
      <point x="408" y="232" type="curve" smooth="yes"/>
      <point x="408" y="400"/>
      <point x="346" y="476"/>
    </contour>
    <contour>
      <point x="222" y="386" type="curve" smooth="yes"/>
      <point x="277" y="386"/>
      <point x="297" y="339"/>
      <point x="297" y="249" type="curve" smooth="yes"/>
      <point x="297" y="216" type="line" smooth="yes"/>
      <point x="297" y="126"/>
      <point x="277" y="79"/>
      <point x="222" y="79" type="curve" smooth="yes"/>
      <point x="167" y="79"/>
      <point x="147" y="126"/>
      <point x="147" y="216" type="curve" smooth="yes"/>
      <point x="147" y="249" type="line" smooth="yes"/>
      <point x="147" y="339"/>
      <point x="167" y="386"/>
    </contour>
  </outline>
</glyph>
<glyph name="odieresis" format="1">
  <advance width="443"/>
  <unicode hex="00F6"/>
  <outline>
    <contour>
      <point x="100" y="543" type="line"/>
      <point x="188" y="543" type="line"/>
      <point x="188" y="639" type="line"/>
      <point x="100" y="639" type="line"/>
    </contour>
    <contour>
      <point x="255" y="543" type="line"/>
      <point x="343" y="543" type="line"/>
      <point x="343" y="639" type="line"/>
      <point x="255" y="639" type="line"/>
    </contour>
    <contour>
      <point x="222" y="476" type="curve" smooth="yes"/>
      <point x="98" y="476"/>
      <point x="36" y="400"/>
      <point x="36" y="232" type="curve" smooth="yes"/>
      <point x="36" y="65"/>
      <point x="98" y="-11"/>
      <point x="222" y="-11" type="curve" smooth="yes"/>
      <point x="346" y="-11"/>
      <point x="408" y="65"/>
      <point x="408" y="232" type="curve" smooth="yes"/>
      <point x="408" y="400"/>
      <point x="346" y="476"/>
    </contour>
    <contour>
      <point x="222" y="386" type="curve" smooth="yes"/>
      <point x="277" y="386"/>
      <point x="297" y="339"/>
      <point x="297" y="249" type="curve" smooth="yes"/>
      <point x="297" y="216" type="line" smooth="yes"/>
      <point x="297" y="126"/>
      <point x="277" y="79"/>
      <point x="222" y="79" type="curve" smooth="yes"/>
      <point x="167" y="79"/>
      <point x="147" y="126"/>
      <point x="147" y="216" type="curve" smooth="yes"/>
      <point x="147" y="249" type="line" smooth="yes"/>
      <point x="147" y="339"/>
      <point x="167" y="386"/>
    </contour>
  </outline>
</glyph>
<glyph name="uacute" format="1">
  <advance width="443"/>
  <unicode hex="00FA"/>
  <outline>
    <contour>
      <point x="248" y="522" type="line"/>
      <point x="344" y="636" type="line"/>
      <point x="343" y="639" type="line"/>
      <point x="237" y="639" type="line"/>
      <point x="161" y="522" type="line"/>
    </contour>
    <contour>
      <point x="306" y="0" type="line"/>
      <point x="394" y="0" type="line"/>
      <point x="394" y="465" type="line"/>
      <point x="288" y="465" type="line"/>
      <point x="288" y="177" type="line" smooth="yes"/>
      <point x="288" y="125"/>
      <point x="257" y="86"/>
      <point x="216" y="86" type="curve" smooth="yes"/>
      <point x="176" y="86"/>
      <point x="155" y="108"/>
      <point x="155" y="168" type="curve" smooth="yes"/>
      <point x="155" y="465" type="line"/>
      <point x="49" y="465" type="line"/>
      <point x="49" y="139" type="line" smooth="yes"/>
      <point x="49" y="29"/>
      <point x="101" y="-11"/>
      <point x="172" y="-11" type="curve" smooth="yes"/>
      <point x="228" y="-11"/>
      <point x="266" y="21"/>
      <point x="290" y="57" type="curve"/>
      <point x="295" y="57" type="line"/>
    </contour>
  </outline>
</glyph>
<glyph name="Abreve" format="1">
  <advance width="523"/>
  <unicode hex="0102"/>
  <outline>
    <contour>
      <point x="380" y="781" type="curve"/>
      <point x="314" y="781" type="line"/>
      <point x="313" y="768"/>
      <point x="292" y="751"/>
      <point x="261" y="751" type="curve" smooth="yes"/>
      <point x="232" y="751"/>
      <point x="212" y="768"/>
      <point x="210" y="781" type="curve"/>
      <point x="144" y="781" type="line"/>
      <point x="144" y="736"/>
      <point x="188" y="686"/>
      <point x="261" y="686" type="curve" smooth="yes"/>
      <point x="334" y="686"/>
      <point x="380" y="736"/>
    </contour>
    <contour>
      <point x="407" y="0" type="line"/>
      <point x="522" y="0" type="line"/>
      <point x="327" y="606" type="line"/>
      <point x="195" y="606" type="line"/>
      <point x="0" y="0" type="line"/>
      <point x="110" y="0" type="line"/>
      <point x="146" y="119" type="line"/>
      <point x="370" y="119" type="line"/>
    </contour>
    <contour>
      <point x="256" y="505" type="curve"/>
      <point x="260" y="505" type="line"/>
      <point x="260" y="505"/>
      <point x="268" y="454"/>
      <point x="278" y="423" type="curve" smooth="yes"/>
      <point x="339" y="220" type="line"/>
      <point x="177" y="220" type="line"/>
      <point x="239" y="423" type="line" smooth="yes"/>
      <point x="248" y="451"/>
      <point x="256" y="505"/>
    </contour>
  </outline>
</glyph>
<glyph name="Ccaron" format="1">
  <advance width="523"/>
  <unicode hex="010C"/>
  <outline>
    <contour>
      <point x="152" y="781" type="line"/>
      <point x="228" y="661" type="line"/>
      <point x="315" y="661" type="line"/>
      <point x="390" y="781" type="line"/>
      <point x="311" y="781" type="line"/>
      <point x="271" y="720" type="line"/>
      <point x="232" y="781" type="line"/>
    </contour>
    <contour>
      <point x="271" y="617" type="curve" smooth="yes"/>
      <point x="119" y="617"/>
      <point x="30" y="517"/>
      <point x="30" y="303" type="curve" smooth="yes"/>
      <point x="30" y="89"/>
      <point x="119" y="-11"/>
      <point x="271" y="-11" type="curve" smooth="yes"/>
      <point x="400" y="-11"/>
      <point x="494" y="65"/>
      <point x="494" y="225" type="curve"/>
      <point x="384" y="225" type="line"/>
      <point x="384" y="131"/>
      <point x="340" y="87"/>
      <point x="275" y="87" type="curve" smooth="yes"/>
      <point x="188" y="87"/>
      <point x="147" y="160"/>
      <point x="147" y="281" type="curve" smooth="yes"/>
      <point x="147" y="325" type="line" smooth="yes"/>
      <point x="147" y="446"/>
      <point x="187" y="520"/>
      <point x="271" y="520" type="curve" smooth="yes"/>
      <point x="335" y="520"/>
      <point x="378" y="475"/>
      <point x="378" y="381" type="curve"/>
      <point x="494" y="381" type="line"/>
      <point x="494" y="545"/>
      <point x="398" y="617"/>
    </contour>
  </outline>
</glyph>
<glyph name="Dcaron" format="1">
  <advance width="523"/>
  <unicode hex="010E"/>
  <outline>
    <contour>
      <point x="105" y="781" type="line"/>
      <point x="181" y="661" type="line"/>
      <point x="268" y="661" type="line"/>
      <point x="343" y="781" type="line"/>
      <point x="263" y="781" type="line"/>
      <point x="225" y="720" type="line"/>
      <point x="185" y="781" type="line"/>
    </contour>
    <contour>
      <point x="250" y="606" type="curve"/>
      <point x="53" y="606" type="line"/>
      <point x="53" y="0" type="line"/>
      <point x="250" y="0" type="line" smooth="yes"/>
      <point x="401" y="0"/>
      <point x="493" y="104"/>
      <point x="493" y="312" type="curve" smooth="yes"/>
      <point x="493" y="507"/>
      <point x="401" y="606"/>
    </contour>
    <contour>
      <point x="240" y="101" type="curve"/>
      <point x="166" y="101" type="line"/>
      <point x="166" y="506" type="line"/>
      <point x="240" y="506" type="line" smooth="yes"/>
      <point x="324" y="506"/>
      <point x="377" y="448"/>
      <point x="377" y="334" type="curve" smooth="yes"/>
      <point x="377" y="290" type="line" smooth="yes"/>
      <point x="377" y="164"/>
      <point x="324" y="101"/>
    </contour>
  </outline>
</glyph>
<glyph name="emacron" format="1">
  <advance width="403"/>
  <unicode hex="0113"/>
  <outline>
    <contour>
      <point x="89" y="606" type="line"/>
      <point x="89" y="530" type="line"/>
      <point x="315" y="530" type="line"/>
      <point x="315" y="606" type="line"/>
    </contour>
    <contour>
      <point x="206" y="476" type="curve" smooth="yes"/>
      <point x="91" y="476"/>
      <point x="27" y="400"/>
      <point x="27" y="232" type="curve" smooth="yes"/>
      <point x="27" y="65"/>
      <point x="90" y="-11"/>
      <point x="210" y="-11" type="curve" smooth="yes"/>
      <point x="304" y="-11"/>
      <point x="374" y="45"/>
      <point x="374" y="164" type="curve"/>
      <point x="269" y="164" type="line"/>
      <point x="269" y="109"/>
      <point x="246" y="76"/>
      <point x="210" y="76" type="curve" smooth="yes"/>
      <point x="157" y="76"/>
      <point x="139" y="123"/>
      <point x="138" y="206" type="curve"/>
      <point x="374" y="206" type="line"/>
      <point x="374" y="232" type="line" smooth="yes"/>
      <point x="374" y="400"/>
      <point x="318" y="476"/>
    </contour>
    <contour>
      <point x="206" y="389" type="curve" smooth="yes"/>
      <point x="245" y="389"/>
      <point x="263" y="350"/>
      <point x="263" y="283" type="curve"/>
      <point x="139" y="283" type="line"/>
      <point x="142" y="350"/>
      <point x="161" y="389"/>
    </contour>
  </outline>
</glyph>
<glyph name="gcircumflex" format="1">
  <advance width="443"/>
  <unicode hex="011D"/>
  <outline>
    <contour>
      <point x="222" y="581" type="line"/>
      <point x="261" y="520" type="line"/>
      <point x="340" y="520" type="line"/>
      <point x="265" y="639" type="line"/>
      <point x="179" y="639" type="line"/>
      <point x="103" y="520" type="line"/>
      <point x="182" y="520" type="line"/>
    </contour>
    <contour>
      <point x="430" y="543" type="curve"/>
      <point x="361" y="543" type="line"/>
      <point x="361" y="543"/>
      <point x="361" y="543"/>
      <point x="361" y="542" type="curve" smooth="yes"/>
      <point x="361" y="524"/>
      <point x="361" y="465"/>
      <point x="297" y="462" type="curve"/>
      <point x="275" y="471"/>
      <point x="248" y="476"/>
      <point x="219" y="476" type="curve" smooth="yes"/>
      <point x="108" y="476"/>
      <point x="48" y="413"/>
      <point x="48" y="317" type="curve" smooth="yes"/>
      <point x="48" y="263"/>
      <point x="67" y="219"/>
      <point x="104" y="192" type="curve"/>
      <point x="67" y="179"/>
      <point x="36" y="151"/>
      <point x="36" y="110" type="curve" smooth="yes"/>
      <point x="36" y="79"/>
      <point x="50" y="55"/>
      <point x="73" y="41" type="curve"/>
      <point x="40" y="22"/>
      <point x="14" y="-8"/>
      <point x="14" y="-54" type="curve" smooth="yes"/>
      <point x="14" y="-118"/>
      <point x="60" y="-161"/>
      <point x="117" y="-161" type="curve" smooth="yes"/>
      <point x="287" y="-161" type="line" smooth="yes"/>
      <point x="370" y="-161"/>
      <point x="438" y="-104"/>
      <point x="438" y="-18" type="curve" smooth="yes"/>
      <point x="438" y="57"/>
      <point x="390" y="103"/>
      <point x="331" y="103" type="curve" smooth="yes"/>
      <point x="171" y="103" type="line" smooth="yes"/>
      <point x="155" y="103"/>
      <point x="143" y="115"/>
      <point x="143" y="131" type="curve" smooth="yes"/>
      <point x="143" y="147"/>
      <point x="156" y="159"/>
      <point x="175" y="159" type="curve" smooth="yes"/>
      <point x="219" y="159" type="line" smooth="yes"/>
      <point x="331" y="159"/>
      <point x="392" y="222"/>
      <point x="392" y="317" type="curve" smooth="yes"/>
      <point x="392" y="361"/>
      <point x="378" y="398"/>
      <point x="354" y="424" type="curve"/>
      <point x="401" y="438"/>
      <point x="430" y="476"/>
    </contour>
    <contour>
      <point x="219" y="397" type="curve" smooth="yes"/>
      <point x="263" y="397"/>
      <point x="286" y="367"/>
      <point x="286" y="317" type="curve" smooth="yes"/>
      <point x="286" y="268"/>
      <point x="263" y="238"/>
      <point x="219" y="238" type="curve" smooth="yes"/>
      <point x="176" y="238"/>
      <point x="154" y="268"/>
      <point x="154" y="317" type="curve" smooth="yes"/>
      <point x="154" y="367"/>
      <point x="176" y="397"/>
    </contour>
    <contour>
      <point x="164" y="5" type="curve"/>
      <point x="287" y="5" type="line" smooth="yes"/>
      <point x="311" y="5"/>
      <point x="331" y="-11"/>
      <point x="331" y="-37" type="curve" smooth="yes"/>
      <point x="331" y="-64"/>
      <point x="309" y="-80"/>
      <point x="283" y="-80" type="curve" smooth="yes"/>
      <point x="164" y="-80" type="line" smooth="yes"/>
      <point x="140" y="-80"/>
      <point x="121" y="-64"/>
      <point x="121" y="-37" type="curve" smooth="yes"/>
      <point x="121" y="-14"/>
      <point x="140" y="5"/>
    </contour>
  </outline>
</glyph>
<glyph name="Gbreve" format="1">
  <advance width="564"/>
  <unicode hex="011E"/>
  <outline>
    <contour>
      <point x="282" y="686" type="curve" smooth="yes"/>
      <point x="355" y="686"/>
      <point x="400" y="736"/>
      <point x="400" y="781" type="curve"/>
      <point x="335" y="781" type="line"/>
      <point x="333" y="768"/>
      <point x="312" y="751"/>
      <point x="282" y="751" type="curve" smooth="yes"/>
      <point x="253" y="751"/>
      <point x="232" y="768"/>
      <point x="230" y="781" type="curve"/>
      <point x="164" y="781" type="line"/>
      <point x="164" y="736"/>
      <point x="210" y="686"/>
    </contour>
    <contour>
      <point x="267" y="330" type="line"/>
      <point x="267" y="232" type="line"/>
      <point x="403" y="232" type="line"/>
      <point x="403" y="143"/>
      <point x="354" y="87"/>
      <point x="285" y="87" type="curve" smooth="yes"/>
      <point x="190" y="87"/>
      <point x="147" y="157"/>
      <point x="147" y="281" type="curve" smooth="yes"/>
      <point x="147" y="325" type="line" smooth="yes"/>
      <point x="147" y="446"/>
      <point x="189" y="520"/>
      <point x="284" y="520" type="curve" smooth="yes"/>
      <point x="349" y="520"/>
      <point x="403" y="476"/>
      <point x="403" y="394" type="curve"/>
      <point x="519" y="394" type="line"/>
      <point x="519" y="539"/>
      <point x="409" y="617"/>
      <point x="287" y="617" type="curve" smooth="yes"/>
      <point x="124" y="617"/>
      <point x="30" y="517"/>
      <point x="30" y="303" type="curve" smooth="yes"/>
      <point x="30" y="88"/>
      <point x="116" y="-11"/>
      <point x="264" y="-11" type="curve" smooth="yes"/>
      <point x="328" y="-11"/>
      <point x="387" y="16"/>
      <point x="426" y="67" type="curve"/>
      <point x="446" y="0" type="line"/>
      <point x="519" y="0" type="line"/>
      <point x="519" y="330" type="line"/>
    </contour>
  </outline>
</glyph>
<glyph name="gbreve" format="1">
  <advance width="443"/>
  <unicode hex="011F"/>
  <outline>
    <contour>
      <point x="339" y="639" type="curve"/>
      <point x="274" y="639" type="line"/>
      <point x="272" y="627"/>
      <point x="251" y="610"/>
      <point x="221" y="610" type="curve" smooth="yes"/>
      <point x="192" y="610"/>
      <point x="171" y="627"/>
      <point x="169" y="639" type="curve"/>
      <point x="103" y="639" type="line"/>
      <point x="103" y="595"/>
      <point x="149" y="545"/>
      <point x="221" y="545" type="curve" smooth="yes"/>
      <point x="294" y="545"/>
      <point x="339" y="595"/>
    </contour>
    <contour>
      <point x="430" y="543" type="curve"/>
      <point x="342" y="543" type="line"/>
      <point x="342" y="526"/>
      <point x="332" y="488"/>
      <point x="297" y="462" type="curve"/>
      <point x="275" y="471"/>
      <point x="248" y="476"/>
      <point x="219" y="476" type="curve" smooth="yes"/>
      <point x="108" y="476"/>
      <point x="48" y="413"/>
      <point x="48" y="317" type="curve" smooth="yes"/>
      <point x="48" y="263"/>
      <point x="67" y="219"/>
      <point x="104" y="192" type="curve"/>
      <point x="67" y="179"/>
      <point x="36" y="151"/>
      <point x="36" y="110" type="curve" smooth="yes"/>
      <point x="36" y="79"/>
      <point x="50" y="55"/>
      <point x="73" y="41" type="curve"/>
      <point x="40" y="22"/>
      <point x="14" y="-8"/>
      <point x="14" y="-54" type="curve" smooth="yes"/>
      <point x="14" y="-118"/>
      <point x="60" y="-161"/>
      <point x="117" y="-161" type="curve" smooth="yes"/>
      <point x="287" y="-161" type="line" smooth="yes"/>
      <point x="370" y="-161"/>
      <point x="438" y="-104"/>
      <point x="438" y="-18" type="curve" smooth="yes"/>
      <point x="438" y="57"/>
      <point x="390" y="103"/>
      <point x="331" y="103" type="curve" smooth="yes"/>
      <point x="171" y="103" type="line" smooth="yes"/>
      <point x="155" y="103"/>
      <point x="143" y="115"/>
      <point x="143" y="131" type="curve" smooth="yes"/>
      <point x="143" y="147"/>
      <point x="156" y="159"/>
      <point x="175" y="159" type="curve" smooth="yes"/>
      <point x="219" y="159" type="line" smooth="yes"/>
      <point x="331" y="159"/>
      <point x="392" y="222"/>
      <point x="392" y="317" type="curve" smooth="yes"/>
      <point x="392" y="361"/>
      <point x="378" y="398"/>
      <point x="354" y="424" type="curve"/>
      <point x="401" y="438"/>
      <point x="430" y="476"/>
    </contour>
    <contour>
      <point x="219" y="397" type="curve" smooth="yes"/>
      <point x="263" y="397"/>
      <point x="286" y="367"/>
      <point x="286" y="317" type="curve" smooth="yes"/>
      <point x="286" y="268"/>
      <point x="263" y="238"/>
      <point x="219" y="238" type="curve" smooth="yes"/>
      <point x="176" y="238"/>
      <point x="154" y="268"/>
      <point x="154" y="317" type="curve" smooth="yes"/>
      <point x="154" y="367"/>
      <point x="176" y="397"/>
    </contour>
    <contour>
      <point x="164" y="5" type="curve"/>
      <point x="287" y="5" type="line" smooth="yes"/>
      <point x="311" y="5"/>
      <point x="331" y="-11"/>
      <point x="331" y="-37" type="curve" smooth="yes"/>
      <point x="331" y="-64"/>
      <point x="309" y="-80"/>
      <point x="283" y="-80" type="curve" smooth="yes"/>
      <point x="164" y="-80" type="line" smooth="yes"/>
      <point x="140" y="-80"/>
      <point x="121" y="-64"/>
      <point x="121" y="-37" type="curve" smooth="yes"/>
      <point x="121" y="-14"/>
      <point x="140" y="5"/>
    </contour>
  </outline>
</glyph>
<glyph name="Hcircumflex" format="1">
  <advance width="523"/>
  <unicode hex="0124"/>
  <outline>
    <contour>
      <point x="301" y="661" type="line"/>
      <point x="381" y="661" type="line"/>
      <point x="306" y="781" type="line"/>
      <point x="219" y="781" type="line"/>
      <point x="143" y="661" type="line"/>
      <point x="222" y="661" type="line"/>
      <point x="262" y="722" type="line"/>
    </contour>
    <contour>
      <point x="357" y="0" type="line"/>
      <point x="470" y="0" type="line"/>
      <point x="470" y="606" type="line"/>
      <point x="357" y="606" type="line"/>
      <point x="357" y="361" type="line"/>
      <point x="166" y="361" type="line"/>
      <point x="166" y="606" type="line"/>
      <point x="53" y="606" type="line"/>
      <point x="53" y="0" type="line"/>
      <point x="166" y="0" type="line"/>
      <point x="166" y="260" type="line"/>
      <point x="357" y="260" type="line"/>
    </contour>
  </outline>
</glyph>
<glyph name="hcircumflex" format="1">
  <advance width="443"/>
  <unicode hex="0125"/>
  <outline>
    <contour>
      <point x="100" y="722" type="line"/>
      <point x="139" y="661" type="line"/>
      <point x="218" y="661" type="line"/>
      <point x="143" y="781" type="line"/>
      <point x="57" y="781" type="line"/>
      <point x="-19" y="661" type="line"/>
      <point x="60" y="661" type="line"/>
    </contour>
    <contour>
      <point x="158" y="415" type="curve"/>
      <point x="155" y="415" type="line"/>
      <point x="155" y="639" type="line"/>
      <point x="49" y="639" type="line"/>
      <point x="49" y="0" type="line"/>
      <point x="155" y="0" type="line"/>
      <point x="155" y="286" type="line" smooth="yes"/>
      <point x="155" y="339"/>
      <point x="186" y="379"/>
      <point x="227" y="379" type="curve" smooth="yes"/>
      <point x="265" y="379"/>
      <point x="288" y="357"/>
      <point x="288" y="297" type="curve" smooth="yes"/>
      <point x="288" y="0" type="line"/>
      <point x="394" y="0" type="line"/>
      <point x="394" y="326" type="line" smooth="yes"/>
      <point x="394" y="436"/>
      <point x="342" y="476"/>
      <point x="271" y="476" type="curve" smooth="yes"/>
      <point x="216" y="476"/>
      <point x="179" y="445"/>
    </contour>
  </outline>
</glyph>
<glyph name="Itilde" format="1">
  <advance width="202"/>
  <unicode hex="0128"/>
  <outline>
    <contour>
      <point x="250" y="781" type="curve"/>
      <point x="191" y="781" type="line"/>
      <point x="187" y="756"/>
      <point x="176" y="748"/>
      <point x="157" y="748" type="curve" smooth="yes"/>
      <point x="137" y="748"/>
      <point x="119" y="756"/>
      <point x="101" y="764" type="curve" smooth="yes"/>
      <point x="81" y="772"/>
      <point x="62" y="781"/>
      <point x="39" y="781" type="curve" smooth="yes"/>
      <point x="-23" y="781"/>
      <point x="-48" y="721"/>
      <point x="-48" y="673" type="curve"/>
      <point x="11" y="673" type="line"/>
      <point x="15" y="697"/>
      <point x="27" y="705"/>
      <point x="46" y="705" type="curve" smooth="yes"/>
      <point x="66" y="705"/>
      <point x="84" y="697"/>
      <point x="102" y="689" type="curve" smooth="yes"/>
      <point x="122" y="681"/>
      <point x="141" y="673"/>
      <point x="163" y="673" type="curve" smooth="yes"/>
      <point x="225" y="673"/>
      <point x="250" y="732"/>
    </contour>
    <contour>
      <point x="44" y="606" type="line"/>
      <point x="44" y="0" type="line"/>
      <point x="157" y="0" type="line"/>
      <point x="157" y="606" type="line"/>
    </contour>
  </outline>
</glyph>
<glyph name="itilde" format="1">
  <advance width="202"/>
  <unicode hex="0129"/>
  <outline>
    <contour>
      <point x="250" y="639" type="curve"/>
      <point x="191" y="639" type="line"/>
      <point x="187" y="614"/>
      <point x="176" y="606"/>
      <point x="157" y="606" type="curve" smooth="yes"/>
      <point x="137" y="606"/>
      <point x="119" y="614"/>
      <point x="101" y="622" type="curve" smooth="yes"/>
      <point x="81" y="630"/>
      <point x="62" y="639"/>
      <point x="39" y="639" type="curve" smooth="yes"/>
      <point x="-23" y="639"/>
      <point x="-48" y="580"/>
      <point x="-48" y="531" type="curve"/>
      <point x="11" y="531" type="line"/>
      <point x="15" y="555"/>
      <point x="27" y="564"/>
      <point x="46" y="564" type="curve" smooth="yes"/>
      <point x="66" y="564"/>
      <point x="84" y="556"/>
      <point x="102" y="548" type="curve" smooth="yes"/>
      <point x="122" y="540"/>
      <point x="141" y="531"/>
      <point x="163" y="531" type="curve" smooth="yes"/>
      <point x="225" y="531"/>
      <point x="250" y="591"/>
    </contour>
    <contour>
      <point x="48" y="465" type="line"/>
      <point x="48" y="0" type="line"/>
      <point x="154" y="0" type="line"/>
      <point x="154" y="465" type="line"/>
    </contour>
  </outline>
</glyph>
<glyph name="Idotaccent" format="1">
  <advance width="202"/>
  <unicode hex="0130"/>
  <outline>
    <contour>
      <point x="54" y="781" type="line"/>
      <point x="54" y="679" type="line"/>
      <point x="149" y="679" type="line"/>
      <point x="149" y="781" type="line"/>
    </contour>
    <contour>
      <point x="44" y="606" type="line"/>
      <point x="44" y="0" type="line"/>
      <point x="157" y="0" type="line"/>
      <point x="157" y="606" type="line"/>
    </contour>
  </outline>
</glyph>
<glyph name="jcircumflex" format="1">
  <advance width="202"/>
  <unicode hex="0135"/>
  <outline>
    <contour>
      <point x="103" y="581" type="line"/>
      <point x="142" y="520" type="line"/>
      <point x="221" y="520" type="line"/>
      <point x="147" y="639" type="line"/>
      <point x="59" y="639" type="line"/>
      <point x="-17" y="520" type="line"/>
      <point x="63" y="520" type="line"/>
    </contour>
    <contour>
      <point x="154" y="-36" type="curve"/>
      <point x="154" y="465" type="line"/>
      <point x="48" y="465" type="line"/>
      <point x="48" y="-29" type="line" smooth="yes"/>
      <point x="48" y="-57"/>
      <point x="34" y="-72"/>
      <point x="6" y="-72" type="curve" smooth="yes"/>
      <point x="-33" y="-72" type="line"/>
      <point x="-33" y="-150" type="line"/>
      <point x="-14" y="-156"/>
      <point x="19" y="-161"/>
      <point x="46" y="-161" type="curve" smooth="yes"/>
      <point x="131" y="-161"/>
      <point x="154" y="-98"/>
    </contour>
  </outline>
</glyph>
<glyph name="kcommaaccent" format="1">
  <advance width="403"/>
  <unicode hex="0137"/>
  <outline>
    <contour>
      <point x="397" y="465" type="line"/>
      <point x="284" y="465" type="line"/>
      <point x="154" y="280" type="line"/>
      <point x="154" y="639" type="line"/>
      <point x="48" y="639" type="line"/>
      <point x="48" y="0" type="line"/>
      <point x="154" y="0" type="line"/>
      <point x="154" y="145" type="line"/>
      <point x="193" y="193" type="line"/>
      <point x="286" y="0" type="line"/>
      <point x="404" y="0" type="line"/>
      <point x="259" y="276" type="line"/>
    </contour>
    <contour>
      <point x="159" y="-232" type="line"/>
      <point x="217" y="-232" type="line"/>
      <point x="256" y="-148" type="line"/>
      <point x="256" y="-49" type="line"/>
      <point x="148" y="-49" type="line"/>
      <point x="148" y="-157" type="line"/>
      <point x="190" y="-157" type="line"/>
    </contour>
  </outline>
</glyph>
<glyph name="kgreenlandic" format="1">
  <advance width="404"/>
  <unicode hex="0138"/>
  <outline>
    <contour>
      <point x="286" y="0" type="line"/>
      <point x="404" y="0" type="line"/>
      <point x="259" y="276" type="line"/>
      <point x="397" y="465" type="line"/>
      <point x="284" y="465" type="line"/>
      <point x="154" y="280" type="line"/>
      <point x="154" y="465" type="line"/>
      <point x="48" y="465" type="line"/>
      <point x="48" y="0" type="line"/>
      <point x="154" y="0" type="line"/>
      <point x="154" y="145" type="line"/>
      <point x="193" y="193" type="line"/>
    </contour>
  </outline>
</glyph>
<glyph name="lacute" format="1">
  <advance width="202"/>
  <unicode hex="013A"/>
  <outline>
    <contour>
      <point x="128" y="664" type="line"/>
      <point x="223" y="778" type="line"/>
      <point x="222" y="781" type="line"/>
      <point x="116" y="781" type="line"/>
      <point x="40" y="664" type="line"/>
    </contour>
    <contour>
      <point x="48" y="0" type="line"/>
      <point x="154" y="0" type="line"/>
      <point x="154" y="639" type="line"/>
      <point x="48" y="639" type="line"/>
    </contour>
  </outline>
</glyph>
<glyph name="Lcommaaccent" format="1">
  <advance width="443"/>
  <unicode hex="013B"/>
  <outline>
    <contour>
      <point x="423" y="106" type="line"/>
      <point x="166" y="106" type="line"/>
      <point x="166" y="606" type="line"/>
      <point x="53" y="606" type="line"/>
      <point x="53" y="0" type="line"/>
      <point x="423" y="0" type="line"/>
    </contour>
    <contour>
      <point x="236" y="-232" type="line"/>
      <point x="276" y="-148" type="line"/>
      <point x="276" y="-49" type="line"/>
      <point x="167" y="-49" type="line"/>
      <point x="167" y="-157" type="line"/>
      <point x="210" y="-157" type="line"/>
      <point x="179" y="-232" type="line"/>
    </contour>
  </outline>
</glyph>
<glyph name="lcommaaccent" format="1">
  <advance width="202"/>
  <unicode hex="013C"/>
  <outline>
    <contour>
      <point x="48" y="639" type="line"/>
      <point x="48" y="0" type="line"/>
      <point x="154" y="0" type="line"/>
      <point x="154" y="639" type="line"/>
    </contour>
    <contour>
      <point x="58" y="-232" type="line"/>
      <point x="116" y="-232" type="line"/>
      <point x="156" y="-148" type="line"/>
      <point x="156" y="-49" type="line"/>
      <point x="47" y="-49" type="line"/>
      <point x="47" y="-157" type="line"/>
      <point x="90" y="-157" type="line"/>
    </contour>
  </outline>
</glyph>
<glyph name="omacron" format="1">
  <advance width="443"/>
  <unicode hex="014D"/>
  <outline>
    <contour>
      <point x="109" y="606" type="line"/>
      <point x="109" y="530" type="line"/>
      <point x="334" y="530" type="line"/>
      <point x="334" y="606" type="line"/>
    </contour>
    <contour>
      <point x="222" y="476" type="curve" smooth="yes"/>
      <point x="98" y="476"/>
      <point x="36" y="400"/>
      <point x="36" y="232" type="curve" smooth="yes"/>
      <point x="36" y="65"/>
      <point x="98" y="-11"/>
      <point x="222" y="-11" type="curve" smooth="yes"/>
      <point x="346" y="-11"/>
      <point x="408" y="65"/>
      <point x="408" y="232" type="curve" smooth="yes"/>
      <point x="408" y="400"/>
      <point x="346" y="476"/>
    </contour>
    <contour>
      <point x="222" y="386" type="curve" smooth="yes"/>
      <point x="277" y="386"/>
      <point x="297" y="339"/>
      <point x="297" y="249" type="curve" smooth="yes"/>
      <point x="297" y="216" type="line" smooth="yes"/>
      <point x="297" y="126"/>
      <point x="277" y="79"/>
      <point x="222" y="79" type="curve" smooth="yes"/>
      <point x="167" y="79"/>
      <point x="147" y="126"/>
      <point x="147" y="216" type="curve" smooth="yes"/>
      <point x="147" y="249" type="line" smooth="yes"/>
      <point x="147" y="339"/>
      <point x="167" y="386"/>
    </contour>
  </outline>
</glyph>
<glyph name="Ohungarumlaut" format="1">
  <advance width="564"/>
  <unicode hex="0150"/>
  <outline>
    <contour>
      <point x="253" y="664" type="line"/>
      <point x="327" y="778" type="line"/>
      <point x="326" y="781" type="line"/>
      <point x="238" y="781" type="line"/>
      <point x="183" y="664" type="line"/>
    </contour>
    <contour>
      <point x="377" y="664" type="line"/>
      <point x="451" y="778" type="line"/>
      <point x="450" y="781" type="line"/>
      <point x="362" y="781" type="line"/>
      <point x="307" y="664" type="line"/>
    </contour>
    <contour>
      <point x="282" y="617" type="curve" smooth="yes"/>
      <point x="126" y="617"/>
      <point x="30" y="517"/>
      <point x="30" y="303" type="curve" smooth="yes"/>
      <point x="30" y="89"/>
      <point x="126" y="-11"/>
      <point x="282" y="-11" type="curve" smooth="yes"/>
      <point x="438" y="-11"/>
      <point x="534" y="89"/>
      <point x="534" y="303" type="curve" smooth="yes"/>
      <point x="534" y="517"/>
      <point x="438" y="617"/>
    </contour>
    <contour>
      <point x="282" y="520" type="curve" smooth="yes"/>
      <point x="372" y="520"/>
      <point x="417" y="446"/>
      <point x="417" y="325" type="curve" smooth="yes"/>
      <point x="417" y="281" type="line" smooth="yes"/>
      <point x="417" y="160"/>
      <point x="372" y="87"/>
      <point x="282" y="87" type="curve" smooth="yes"/>
      <point x="192" y="87"/>
      <point x="147" y="160"/>
      <point x="147" y="281" type="curve" smooth="yes"/>
      <point x="147" y="325" type="line" smooth="yes"/>
      <point x="147" y="446"/>
      <point x="192" y="520"/>
    </contour>
  </outline>
</glyph>
<glyph name="OE" format="1">
  <advance width="725"/>
  <unicode hex="0152"/>
  <outline>
    <contour>
      <point x="362" y="606" type="move" name="mark0"/>
    </contour>
    <contour>
      <point x="0" y="0" type="move" name="mark1"/>
    </contour>
    <contour>
      <point x="228" y="617" type="curve" smooth="yes"/>
      <point x="103" y="617"/>
      <point x="27" y="517"/>
      <point x="27" y="303" type="curve" smooth="yes"/>
      <point x="27" y="89"/>
      <point x="103" y="-11"/>
      <point x="228" y="-11" type="curve" smooth="yes"/>
      <point x="282" y="-11"/>
      <point x="327" y="10"/>
      <point x="361" y="54" type="curve"/>
      <point x="361" y="0" type="line"/>
      <point x="700" y="0" type="line"/>
      <point x="700" y="101" type="line"/>
      <point x="474" y="101" type="line"/>
      <point x="474" y="260" type="line"/>
      <point x="656" y="260" type="line"/>
      <point x="656" y="361" type="line"/>
      <point x="474" y="361" type="line"/>
      <point x="474" y="506" type="line"/>
      <point x="694" y="506" type="line"/>
      <point x="694" y="606" type="line"/>
      <point x="361" y="606" type="line"/>
      <point x="361" y="552" type="line"/>
      <point x="327" y="596"/>
      <point x="282" y="617"/>
    </contour>
    <contour>
      <point x="251" y="520" type="curve" smooth="yes"/>
      <point x="324" y="520"/>
      <point x="360" y="464"/>
      <point x="360" y="325" type="curve" smooth="yes"/>
      <point x="360" y="281" type="line" smooth="yes"/>
      <point x="360" y="142"/>
      <point x="324" y="87"/>
      <point x="251" y="87" type="curve" smooth="yes"/>
      <point x="179" y="87"/>
      <point x="143" y="142"/>
      <point x="143" y="281" type="curve" smooth="yes"/>
      <point x="143" y="325" type="line" smooth="yes"/>
      <point x="143" y="464"/>
      <point x="179" y="520"/>
    </contour>
  </outline>
</glyph>
<glyph name="rcaron" format="1">
  <advance width="282"/>
  <unicode hex="0159"/>
  <outline>
    <contour>
      <point x="-20" y="639" type="line"/>
      <point x="56" y="520" type="line"/>
      <point x="142" y="520" type="line"/>
      <point x="217" y="639" type="line"/>
      <point x="138" y="639" type="line"/>
      <point x="99" y="578" type="line"/>
      <point x="59" y="639" type="line"/>
    </contour>
    <contour>
      <point x="235" y="476" type="curve" smooth="yes"/>
      <point x="188" y="476"/>
      <point x="167" y="436"/>
      <point x="155" y="397" type="curve"/>
      <point x="149" y="397" type="line"/>
      <point x="137" y="465" type="line"/>
      <point x="49" y="465" type="line"/>
      <point x="49" y="0" type="line"/>
      <point x="155" y="0" type="line"/>
      <point x="155" y="259" type="line" smooth="yes"/>
      <point x="155" y="341"/>
      <point x="195" y="366"/>
      <point x="241" y="366" type="curve" smooth="yes"/>
      <point x="279" y="366" type="line"/>
      <point x="279" y="469" type="line"/>
      <point x="279" y="469"/>
      <point x="263" y="476"/>
    </contour>
  </outline>
</glyph>
<glyph name="scircumflex" format="1">
  <advance width="403"/>
  <unicode hex="015D"/>
  <outline>
    <contour>
      <point x="241" y="520" type="line"/>
      <point x="321" y="520" type="line"/>
      <point x="246" y="639" type="line"/>
      <point x="159" y="639" type="line"/>
      <point x="83" y="520" type="line"/>
      <point x="163" y="520" type="line"/>
      <point x="202" y="581" type="line"/>
    </contour>
    <contour>
      <point x="202" y="476" type="curve" smooth="yes"/>
      <point x="110" y="476"/>
      <point x="36" y="429"/>
      <point x="36" y="334" type="curve" smooth="yes"/>
      <point x="36" y="231"/>
      <point x="111" y="211"/>
      <point x="174" y="193" type="curve" smooth="yes"/>
      <point x="222" y="180"/>
      <point x="263" y="168"/>
      <point x="263" y="126" type="curve" smooth="yes"/>
      <point x="263" y="88"/>
      <point x="230" y="76"/>
      <point x="202" y="76" type="curve" smooth="yes"/>
      <point x="171" y="76"/>
      <point x="139" y="92"/>
      <point x="138" y="141" type="curve" smooth="yes"/>
      <point x="138" y="148" type="line"/>
      <point x="30" y="148" type="line"/>
      <point x="30" y="148"/>
      <point x="29" y="141"/>
      <point x="29" y="137" type="curve" smooth="yes"/>
      <point x="29" y="49"/>
      <point x="91" y="-11"/>
      <point x="198" y="-11" type="curve" smooth="yes"/>
      <point x="297" y="-11"/>
      <point x="371" y="27"/>
      <point x="371" y="140" type="curve" smooth="yes"/>
      <point x="371" y="248"/>
      <point x="292" y="268"/>
      <point x="228" y="285" type="curve"/>
      <point x="182" y="296"/>
      <point x="144" y="306"/>
      <point x="144" y="343" type="curve" smooth="yes"/>
      <point x="144" y="371"/>
      <point x="166" y="389"/>
      <point x="199" y="389" type="curve" smooth="yes"/>
      <point x="231" y="389"/>
      <point x="250" y="370"/>
      <point x="251" y="331" type="curve" smooth="yes"/>
      <point x="251" y="329" type="line"/>
      <point x="359" y="329" type="line"/>
      <point x="359" y="329"/>
      <point x="359" y="330"/>
      <point x="359" y="331" type="curve" smooth="yes"/>
      <point x="359" y="334"/>
      <point x="360" y="341"/>
      <point x="360" y="349" type="curve" smooth="yes"/>
      <point x="360" y="429"/>
      <point x="291" y="476"/>
    </contour>
  </outline>
</glyph>
<glyph name="Scedilla" format="1">
  <advance width="484"/>
  <unicode hex="015E"/>
  <outline>
    <contour>
      <point x="241" y="617" type="curve" smooth="yes"/>
      <point x="134" y="617"/>
      <point x="39" y="562"/>
      <point x="39" y="447" type="curve" smooth="yes"/>
      <point x="39" y="319"/>
      <point x="131" y="288"/>
      <point x="212" y="262" type="curve" smooth="yes"/>
      <point x="276" y="241"/>
      <point x="333" y="222"/>
      <point x="333" y="158" type="curve" smooth="yes"/>
      <point x="333" y="123"/>
      <point x="309" y="87"/>
      <point x="241" y="87" type="curve" smooth="yes"/>
      <point x="179" y="87"/>
      <point x="144" y="126"/>
      <point x="144" y="183" type="curve"/>
      <point x="145" y="197" type="line"/>
      <point x="27" y="197" type="line"/>
      <point x="27" y="178" type="line" smooth="yes"/>
      <point x="27" y="66"/>
      <point x="103" y="4"/>
      <point x="199" y="-8" type="curve"/>
      <point x="192" y="-68" type="line"/>
      <point x="221" y="-68" type="line" smooth="yes"/>
      <point x="244" y="-68"/>
      <point x="251" y="-75"/>
      <point x="251" y="-89" type="curve" smooth="yes"/>
      <point x="251" y="-106"/>
      <point x="239" y="-111"/>
      <point x="219" y="-111" type="curve" smooth="yes"/>
      <point x="156" y="-111" type="line"/>
      <point x="156" y="-154" type="line"/>
      <point x="178" y="-158"/>
      <point x="206" y="-161"/>
      <point x="231" y="-161" type="curve" smooth="yes"/>
      <point x="269" y="-161"/>
      <point x="327" y="-149"/>
      <point x="327" y="-89" type="curve" smooth="yes"/>
      <point x="327" y="-49"/>
      <point x="295" y="-32"/>
      <point x="257" y="-29" type="curve"/>
      <point x="259" y="-10" type="line"/>
      <point x="372" y="-3"/>
      <point x="450" y="52"/>
      <point x="450" y="182" type="curve" smooth="yes"/>
      <point x="450" y="310"/>
      <point x="353" y="340"/>
      <point x="271" y="366" type="curve" smooth="yes"/>
      <point x="209" y="386"/>
      <point x="156" y="403"/>
      <point x="156" y="455" type="curve" smooth="yes"/>
      <point x="156" y="492"/>
      <point x="186" y="520"/>
      <point x="240" y="520" type="curve" smooth="yes"/>
      <point x="292" y="520"/>
      <point x="323" y="487"/>
      <point x="323" y="436" type="curve" smooth="yes"/>
      <point x="323" y="428" type="line"/>
      <point x="438" y="428" type="line"/>
      <point x="438" y="438" type="line" smooth="yes"/>
      <point x="438" y="563"/>
      <point x="349" y="617"/>
    </contour>
  </outline>
</glyph>
<glyph name="scedilla" format="1">
  <advance width="403"/>
  <unicode hex="015F"/>
  <outline>
    <contour>
      <point x="202" y="476" type="curve" smooth="yes"/>
      <point x="110" y="476"/>
      <point x="36" y="429"/>
      <point x="36" y="334" type="curve" smooth="yes"/>
      <point x="36" y="231"/>
      <point x="111" y="211"/>
      <point x="174" y="193" type="curve" smooth="yes"/>
      <point x="222" y="180"/>
      <point x="263" y="168"/>
      <point x="263" y="126" type="curve" smooth="yes"/>
      <point x="263" y="88"/>
      <point x="230" y="76"/>
      <point x="202" y="76" type="curve" smooth="yes"/>
      <point x="171" y="76"/>
      <point x="139" y="92"/>
      <point x="138" y="141" type="curve" smooth="yes"/>
      <point x="138" y="148" type="line"/>
      <point x="30" y="148" type="line"/>
      <point x="30" y="148"/>
      <point x="29" y="141"/>
      <point x="29" y="137" type="curve" smooth="yes"/>
      <point x="29" y="59"/>
      <point x="76" y="4"/>
      <point x="159" y="-8" type="curve"/>
      <point x="152" y="-68" type="line"/>
      <point x="181" y="-68" type="line" smooth="yes"/>
      <point x="203" y="-68"/>
      <point x="211" y="-75"/>
      <point x="211" y="-89" type="curve" smooth="yes"/>
      <point x="211" y="-106"/>
      <point x="199" y="-111"/>
      <point x="179" y="-111" type="curve" smooth="yes"/>
      <point x="117" y="-111" type="line"/>
      <point x="117" y="-154" type="line"/>
      <point x="138" y="-158"/>
      <point x="165" y="-161"/>
      <point x="191" y="-161" type="curve" smooth="yes"/>
      <point x="229" y="-161"/>
      <point x="287" y="-149"/>
      <point x="287" y="-89" type="curve" smooth="yes"/>
      <point x="287" y="-49"/>
      <point x="255" y="-32"/>
      <point x="217" y="-29" type="curve"/>
      <point x="219" y="-10" type="line"/>
      <point x="307" y="-4"/>
      <point x="371" y="34"/>
      <point x="371" y="140" type="curve" smooth="yes"/>
      <point x="371" y="248"/>
      <point x="292" y="268"/>
      <point x="228" y="285" type="curve"/>
      <point x="182" y="296"/>
      <point x="144" y="306"/>
      <point x="144" y="343" type="curve" smooth="yes"/>
      <point x="144" y="371"/>
      <point x="166" y="389"/>
      <point x="199" y="389" type="curve" smooth="yes"/>
      <point x="231" y="389"/>
      <point x="250" y="370"/>
      <point x="251" y="331" type="curve" smooth="yes"/>
      <point x="251" y="329" type="line"/>
      <point x="359" y="329" type="line"/>
      <point x="359" y="329"/>
      <point x="359" y="330"/>
      <point x="359" y="331" type="curve" smooth="yes"/>
      <point x="359" y="334"/>
      <point x="360" y="341"/>
      <point x="360" y="349" type="curve" smooth="yes"/>
      <point x="360" y="429"/>
      <point x="291" y="476"/>
    </contour>
  </outline>
</glyph>
<glyph name="Tcedilla" format="1">
  <advance width="443"/>
  <unicode hex="0162"/>
  <outline>
    <contour>
      <point x="222" y="606" type="move" name="mark0"/>
    </contour>
    <contour>
      <point x="222" y="0" type="move" name="mark1"/>
    </contour>
    <contour>
      <point x="240" y="0" type="line"/>
      <point x="278" y="0" type="line"/>
      <point x="278" y="506" type="line"/>
      <point x="429" y="506" type="line"/>
      <point x="429" y="606" type="line"/>
      <point x="15" y="606" type="line"/>
      <point x="15" y="506" type="line"/>
      <point x="165" y="506" type="line"/>
      <point x="165" y="0" type="line"/>
      <point x="180" y="0" type="line"/>
      <point x="171" y="-68" type="line"/>
      <point x="200" y="-68" type="line" smooth="yes"/>
      <point x="223" y="-68"/>
      <point x="230" y="-75"/>
      <point x="230" y="-89" type="curve" smooth="yes"/>
      <point x="230" y="-106"/>
      <point x="218" y="-111"/>
      <point x="199" y="-111" type="curve" smooth="yes"/>
      <point x="136" y="-111" type="line"/>
      <point x="136" y="-154" type="line"/>
      <point x="157" y="-158"/>
      <point x="185" y="-161"/>
      <point x="210" y="-161" type="curve" smooth="yes"/>
      <point x="248" y="-161"/>
      <point x="306" y="-149"/>
      <point x="306" y="-89" type="curve" smooth="yes"/>
      <point x="306" y="-49"/>
      <point x="275" y="-32"/>
      <point x="237" y="-29" type="curve"/>
    </contour>
  </outline>
</glyph>
<glyph name="Utilde" format="1">
  <advance width="523"/>
  <unicode hex="0168"/>
  <outline>
    <contour>
      <point x="410" y="781" type="curve"/>
      <point x="352" y="781" type="line"/>
      <point x="348" y="756"/>
      <point x="336" y="748"/>
      <point x="317" y="748" type="curve" smooth="yes"/>
      <point x="298" y="748"/>
      <point x="280" y="756"/>
      <point x="261" y="764" type="curve" smooth="yes"/>
      <point x="242" y="772"/>
      <point x="222" y="781"/>
      <point x="200" y="781" type="curve" smooth="yes"/>
      <point x="138" y="781"/>
      <point x="113" y="721"/>
      <point x="113" y="673" type="curve"/>
      <point x="171" y="673" type="line"/>
      <point x="175" y="697"/>
      <point x="187" y="705"/>
      <point x="206" y="705" type="curve" smooth="yes"/>
      <point x="226" y="705"/>
      <point x="244" y="697"/>
      <point x="262" y="689" type="curve" smooth="yes"/>
      <point x="282" y="681"/>
      <point x="301" y="673"/>
      <point x="323" y="673" type="curve" smooth="yes"/>
      <point x="385" y="673"/>
      <point x="410" y="732"/>
    </contour>
    <contour>
      <point x="470" y="190" type="curve"/>
      <point x="470" y="606" type="line"/>
      <point x="357" y="606" type="line"/>
      <point x="357" y="194" type="line" smooth="yes"/>
      <point x="357" y="124"/>
      <point x="322" y="87"/>
      <point x="262" y="87" type="curve" smooth="yes"/>
      <point x="202" y="87"/>
      <point x="167" y="124"/>
      <point x="167" y="194" type="curve" smooth="yes"/>
      <point x="167" y="606" type="line"/>
      <point x="54" y="606" type="line"/>
      <point x="54" y="190" type="line" smooth="yes"/>
      <point x="54" y="58"/>
      <point x="132" y="-11"/>
      <point x="262" y="-11" type="curve" smooth="yes"/>
      <point x="392" y="-11"/>
      <point x="470" y="58"/>
    </contour>
  </outline>
</glyph>
<glyph name="utilde" format="1">
  <advance width="443"/>
  <unicode hex="0169"/>
  <outline>
    <contour>
      <point x="370" y="639" type="curve"/>
      <point x="312" y="639" type="line"/>
      <point x="309" y="614"/>
      <point x="296" y="606"/>
      <point x="278" y="606" type="curve" smooth="yes"/>
      <point x="258" y="606"/>
      <point x="240" y="614"/>
      <point x="221" y="622" type="curve" smooth="yes"/>
      <point x="202" y="630"/>
      <point x="182" y="639"/>
      <point x="160" y="639" type="curve" smooth="yes"/>
      <point x="98" y="639"/>
      <point x="73" y="580"/>
      <point x="73" y="531" type="curve"/>
      <point x="132" y="531" type="line"/>
      <point x="135" y="555"/>
      <point x="148" y="564"/>
      <point x="166" y="564" type="curve" smooth="yes"/>
      <point x="186" y="564"/>
      <point x="204" y="556"/>
      <point x="222" y="548" type="curve" smooth="yes"/>
      <point x="242" y="540"/>
      <point x="261" y="531"/>
      <point x="283" y="531" type="curve" smooth="yes"/>
      <point x="346" y="531"/>
      <point x="370" y="591"/>
    </contour>
    <contour>
      <point x="295" y="57" type="line"/>
      <point x="306" y="0" type="line"/>
      <point x="394" y="0" type="line"/>
      <point x="394" y="465" type="line"/>
      <point x="288" y="465" type="line"/>
      <point x="288" y="177" type="line" smooth="yes"/>
      <point x="288" y="125"/>
      <point x="257" y="86"/>
      <point x="216" y="86" type="curve" smooth="yes"/>
      <point x="176" y="86"/>
      <point x="155" y="108"/>
      <point x="155" y="168" type="curve" smooth="yes"/>
      <point x="155" y="465" type="line"/>
      <point x="49" y="465" type="line"/>
      <point x="49" y="139" type="line" smooth="yes"/>
      <point x="49" y="29"/>
      <point x="101" y="-11"/>
      <point x="172" y="-11" type="curve" smooth="yes"/>
      <point x="228" y="-11"/>
      <point x="266" y="21"/>
      <point x="290" y="57" type="curve"/>
    </contour>
  </outline>
</glyph>
<glyph name="Ubreve" format="1">
  <advance width="523"/>
  <unicode hex="016C"/>
  <outline>
    <contour>
      <point x="380" y="781" type="curve"/>
      <point x="314" y="781" type="line"/>
      <point x="313" y="768"/>
      <point x="292" y="751"/>
      <point x="261" y="751" type="curve" smooth="yes"/>
      <point x="232" y="751"/>
      <point x="212" y="768"/>
      <point x="210" y="781" type="curve"/>
      <point x="144" y="781" type="line"/>
      <point x="144" y="736"/>
      <point x="188" y="686"/>
      <point x="261" y="686" type="curve" smooth="yes"/>
      <point x="334" y="686"/>
      <point x="380" y="736"/>
    </contour>
    <contour>
      <point x="470" y="190" type="curve"/>
      <point x="470" y="606" type="line"/>
      <point x="357" y="606" type="line"/>
      <point x="357" y="194" type="line" smooth="yes"/>
      <point x="357" y="124"/>
      <point x="322" y="87"/>
      <point x="262" y="87" type="curve" smooth="yes"/>
      <point x="202" y="87"/>
      <point x="167" y="124"/>
      <point x="167" y="194" type="curve" smooth="yes"/>
      <point x="167" y="606" type="line"/>
      <point x="54" y="606" type="line"/>
      <point x="54" y="190" type="line" smooth="yes"/>
      <point x="54" y="58"/>
      <point x="132" y="-11"/>
      <point x="262" y="-11" type="curve" smooth="yes"/>
      <point x="392" y="-11"/>
      <point x="470" y="58"/>
    </contour>
  </outline>
</glyph>
<glyph name="ubreve" format="1">
  <advance width="443"/>
  <unicode hex="016D"/>
  <outline>
    <contour>
      <point x="339" y="639" type="curve"/>
      <point x="274" y="639" type="line"/>
      <point x="272" y="627"/>
      <point x="251" y="610"/>
      <point x="221" y="610" type="curve" smooth="yes"/>
      <point x="192" y="610"/>
      <point x="171" y="627"/>
      <point x="169" y="639" type="curve"/>
      <point x="103" y="639" type="line"/>
      <point x="103" y="595"/>
      <point x="149" y="545"/>
      <point x="221" y="545" type="curve" smooth="yes"/>
      <point x="294" y="545"/>
      <point x="339" y="595"/>
    </contour>
    <contour>
      <point x="295" y="57" type="line"/>
      <point x="306" y="0" type="line"/>
      <point x="394" y="0" type="line"/>
      <point x="394" y="465" type="line"/>
      <point x="288" y="465" type="line"/>
      <point x="288" y="177" type="line" smooth="yes"/>
      <point x="288" y="125"/>
      <point x="257" y="86"/>
      <point x="216" y="86" type="curve" smooth="yes"/>
      <point x="176" y="86"/>
      <point x="155" y="108"/>
      <point x="155" y="168" type="curve" smooth="yes"/>
      <point x="155" y="465" type="line"/>
      <point x="49" y="465" type="line"/>
      <point x="49" y="139" type="line" smooth="yes"/>
      <point x="49" y="29"/>
      <point x="101" y="-11"/>
      <point x="172" y="-11" type="curve" smooth="yes"/>
      <point x="228" y="-11"/>
      <point x="266" y="21"/>
      <point x="290" y="57" type="curve"/>
    </contour>
  </outline>
</glyph>
<glyph name="Wcircumflex" format="1">
  <advance width="684"/>
  <unicode hex="0174"/>
  <outline>
    <contour>
      <point x="343" y="722" type="line"/>
      <point x="382" y="661" type="line"/>
      <point x="461" y="661" type="line"/>
      <point x="386" y="781" type="line"/>
      <point x="300" y="781" type="line"/>
      <point x="224" y="661" type="line"/>
      <point x="303" y="661" type="line"/>
    </contour>
    <contour>
      <point x="355" y="386" type="curve"/>
      <point x="438" y="0" type="line"/>
      <point x="552" y="0" type="line"/>
      <point x="683" y="606" type="line"/>
      <point x="586" y="606" type="line"/>
      <point x="512" y="233" type="line" smooth="yes"/>
      <point x="506" y="203"/>
      <point x="500" y="149"/>
      <point x="500" y="149" type="curve"/>
      <point x="497" y="149" type="line"/>
      <point x="497" y="149"/>
      <point x="490" y="210"/>
      <point x="485" y="233" type="curve" smooth="yes"/>
      <point x="413" y="606" type="line"/>
      <point x="285" y="606" type="line"/>
      <point x="211" y="233" type="line" smooth="yes"/>
      <point x="206" y="208"/>
      <point x="200" y="149"/>
      <point x="200" y="149" type="curve"/>
      <point x="196" y="149" type="line"/>
      <point x="196" y="149"/>
      <point x="190" y="207"/>
      <point x="185" y="233" type="curve" smooth="yes"/>
      <point x="112" y="606" type="line"/>
      <point x="0" y="606" type="line"/>
      <point x="132" y="0" type="line"/>
      <point x="246" y="0" type="line"/>
      <point x="327" y="386" type="line" smooth="yes"/>
      <point x="332" y="412"/>
      <point x="339" y="472"/>
      <point x="339" y="472" type="curve"/>
      <point x="343" y="472" type="line"/>
      <point x="343" y="472"/>
      <point x="348" y="417"/>
    </contour>
  </outline>
</glyph>
<glyph name="aringacute" format="1">
  <advance width="442"/>
  <unicode hex="01FB"/>
  <outline>
    <contour>
      <point x="241" y="679" type="line"/>
      <point x="327" y="778" type="line"/>
      <point x="326" y="781" type="line"/>
      <point x="220" y="781" type="line"/>
      <point x="154" y="679" type="line"/>
    </contour>
    <contour>
      <point x="192" y="660" type="curve" smooth="yes"/>
      <point x="145" y="660"/>
      <point x="107" y="623"/>
      <point x="107" y="578" type="curve" smooth="yes"/>
      <point x="107" y="532"/>
      <point x="146" y="496"/>
      <point x="192" y="496" type="curve" smooth="yes"/>
      <point x="239" y="496"/>
      <point x="277" y="533"/>
      <point x="277" y="578" type="curve" smooth="yes"/>
      <point x="277" y="622"/>
      <point x="240" y="660"/>
    </contour>
    <contour>
      <point x="192" y="617" type="curve" smooth="yes"/>
      <point x="214" y="617"/>
      <point x="232" y="600"/>
      <point x="232" y="578" type="curve" smooth="yes"/>
      <point x="232" y="555"/>
      <point x="214" y="538"/>
      <point x="192" y="538" type="curve" smooth="yes"/>
      <point x="169" y="538"/>
      <point x="151" y="555"/>
      <point x="151" y="578" type="curve" smooth="yes"/>
      <point x="151" y="600"/>
      <point x="169" y="617"/>
    </contour>
    <contour>
      <point x="192" y="476" type="curve" smooth="yes"/>
      <point x="96" y="476"/>
      <point x="34" y="424"/>
      <point x="34" y="347" type="curve" smooth="yes"/>
      <point x="34" y="339"/>
      <point x="34" y="332"/>
      <point x="35" y="327" type="curve"/>
      <point x="139" y="327" type="line"/>
      <point x="139" y="340" type="line" smooth="yes"/>
      <point x="139" y="362"/>
      <point x="151" y="389"/>
      <point x="194" y="389" type="curve" smooth="yes"/>
      <point x="235" y="389"/>
      <point x="243" y="363"/>
      <point x="243" y="331" type="curve" smooth="yes"/>
      <point x="243" y="283" type="line"/>
      <point x="108" y="283"/>
      <point x="12" y="246"/>
      <point x="12" y="120" type="curve" smooth="yes"/>
      <point x="12" y="12"/>
      <point x="86" y="-11"/>
      <point x="129" y="-11" type="curve" smooth="yes"/>
      <point x="191" y="-11"/>
      <point x="220" y="13"/>
      <point x="247" y="50" type="curve"/>
      <point x="251" y="50" type="line"/>
      <point x="262" y="14"/>
      <point x="291" y="-11"/>
      <point x="333" y="-11" type="curve" smooth="yes"/>
      <point x="365" y="-11"/>
      <point x="385" y="-3"/>
      <point x="396" y="4" type="curve"/>
      <point x="396" y="79" type="line"/>
      <point x="375" y="79" type="line" smooth="yes"/>
      <point x="362" y="79"/>
      <point x="350" y="88"/>
      <point x="350" y="110" type="curve" smooth="yes"/>
      <point x="350" y="339" type="line" smooth="yes"/>
      <point x="350" y="425"/>
      <point x="300" y="476"/>
    </contour>
    <contour>
      <point x="243" y="206" type="curve"/>
      <point x="243" y="179" type="line" smooth="yes"/>
      <point x="243" y="125"/>
      <point x="224" y="78"/>
      <point x="173" y="78" type="curve" smooth="yes"/>
      <point x="137" y="78"/>
      <point x="121" y="98"/>
      <point x="121" y="130" type="curve" smooth="yes"/>
      <point x="121" y="190"/>
      <point x="181" y="206"/>
    </contour>
  </outline>
</glyph>
<glyph name="aeacute" format="1">
  <advance width="644"/>
  <unicode hex="01FD"/>
  <outline>
    <contour>
      <point x="349" y="522" type="line"/>
      <point x="445" y="636" type="line"/>
      <point x="444" y="639" type="line"/>
      <point x="338" y="639" type="line"/>
      <point x="262" y="522" type="line"/>
    </contour>
    <contour>
      <point x="442" y="476" type="curve" smooth="yes"/>
      <point x="397" y="476"/>
      <point x="360" y="461"/>
      <point x="331" y="431" type="curve"/>
      <point x="305" y="460"/>
      <point x="265" y="476"/>
      <point x="212" y="476" type="curve" smooth="yes"/>
      <point x="117" y="476"/>
      <point x="55" y="424"/>
      <point x="55" y="347" type="curve" smooth="yes"/>
      <point x="55" y="339"/>
      <point x="55" y="332"/>
      <point x="56" y="327" type="curve"/>
      <point x="159" y="327" type="line"/>
      <point x="159" y="340" type="line" smooth="yes"/>
      <point x="159" y="362"/>
      <point x="171" y="389"/>
      <point x="215" y="389" type="curve" smooth="yes"/>
      <point x="255" y="389"/>
      <point x="263" y="363"/>
      <point x="263" y="331" type="curve" smooth="yes"/>
      <point x="263" y="283" type="line"/>
      <point x="128" y="283"/>
      <point x="33" y="246"/>
      <point x="33" y="120" type="curve" smooth="yes"/>
      <point x="33" y="12"/>
      <point x="117" y="-11"/>
      <point x="167" y="-11" type="curve" smooth="yes"/>
      <point x="232" y="-11"/>
      <point x="273" y="15"/>
      <point x="307" y="52" type="curve"/>
      <point x="337" y="10"/>
      <point x="384" y="-11"/>
      <point x="446" y="-11" type="curve" smooth="yes"/>
      <point x="540" y="-11"/>
      <point x="610" y="45"/>
      <point x="610" y="164" type="curve"/>
      <point x="505" y="164" type="line"/>
      <point x="505" y="109"/>
      <point x="482" y="76"/>
      <point x="446" y="76" type="curve" smooth="yes"/>
      <point x="393" y="76"/>
      <point x="375" y="123"/>
      <point x="374" y="206" type="curve"/>
      <point x="610" y="206" type="line"/>
      <point x="610" y="232" type="line" smooth="yes"/>
      <point x="610" y="400"/>
      <point x="554" y="476"/>
    </contour>
    <contour>
      <point x="442" y="389" type="curve" smooth="yes"/>
      <point x="481" y="389"/>
      <point x="499" y="350"/>
      <point x="499" y="283" type="curve"/>
      <point x="375" y="283" type="line"/>
      <point x="378" y="350"/>
      <point x="397" y="389"/>
    </contour>
    <contour>
      <point x="263" y="206" type="curve"/>
      <point x="263" y="179" type="line" smooth="yes"/>
      <point x="263" y="125"/>
      <point x="244" y="78"/>
      <point x="194" y="78" type="curve" smooth="yes"/>
      <point x="157" y="78"/>
      <point x="141" y="98"/>
      <point x="141" y="130" type="curve" smooth="yes"/>
      <point x="141" y="190"/>
      <point x="202" y="206"/>
    </contour>
  </outline>
</glyph>
<glyph name="Oslashacute" format="1">
  <advance width="564"/>
  <unicode hex="01FE"/>
  <outline>
    <contour>
      <point x="309" y="664" type="line"/>
      <point x="405" y="778" type="line"/>
      <point x="404" y="781" type="line"/>
      <point x="297" y="781" type="line"/>
      <point x="221" y="664" type="line"/>
    </contour>
    <contour>
      <point x="467" y="539" type="curve"/>
      <point x="530" y="639" type="line"/>
      <point x="455" y="639" type="line"/>
      <point x="419" y="582" type="line"/>
      <point x="381" y="606"/>
      <point x="335" y="617"/>
      <point x="282" y="617" type="curve" smooth="yes"/>
      <point x="126" y="617"/>
      <point x="30" y="517"/>
      <point x="30" y="303" type="curve" smooth="yes"/>
      <point x="30" y="196"/>
      <point x="54" y="118"/>
      <point x="97" y="66" type="curve"/>
      <point x="35" y="-33" type="line"/>
      <point x="110" y="-33" type="line"/>
      <point x="145" y="24" type="line"/>
      <point x="183" y="1"/>
      <point x="229" y="-11"/>
      <point x="282" y="-11" type="curve" smooth="yes"/>
      <point x="438" y="-11"/>
      <point x="534" y="89"/>
      <point x="534" y="303" type="curve" smooth="yes"/>
      <point x="534" y="409"/>
      <point x="510" y="488"/>
    </contour>
    <contour>
      <point x="282" y="520" type="curve" smooth="yes"/>
      <point x="315" y="520"/>
      <point x="342" y="510"/>
      <point x="362" y="492" type="curve"/>
      <point x="163" y="171" type="line"/>
      <point x="152" y="202"/>
      <point x="147" y="239"/>
      <point x="147" y="281" type="curve" smooth="yes"/>
      <point x="147" y="325" type="line" smooth="yes"/>
      <point x="147" y="446"/>
      <point x="192" y="520"/>
    </contour>
    <contour>
      <point x="202" y="114" type="curve"/>
      <point x="400" y="433" type="line"/>
      <point x="412" y="404"/>
      <point x="417" y="367"/>
      <point x="417" y="325" type="curve" smooth="yes"/>
      <point x="417" y="281" type="line" smooth="yes"/>
      <point x="417" y="160"/>
      <point x="372" y="87"/>
      <point x="282" y="87" type="curve" smooth="yes"/>
      <point x="249" y="87"/>
      <point x="222" y="96"/>
    </contour>
  </outline>
</glyph>
<glyph name="Scommaaccent" format="1">
  <advance width="484"/>
  <unicode hex="0218"/>
  <outline>
    <contour>
      <point x="242" y="606" type="move" name="mark0"/>
    </contour>
    <contour>
      <point x="242" y="0" type="move" name="mark1"/>
    </contour>
    <contour>
      <point x="241" y="617" type="curve" smooth="yes"/>
      <point x="134" y="617"/>
      <point x="39" y="562"/>
      <point x="39" y="447" type="curve" smooth="yes"/>
      <point x="39" y="319"/>
      <point x="131" y="288"/>
      <point x="212" y="262" type="curve" smooth="yes"/>
      <point x="276" y="241"/>
      <point x="333" y="222"/>
      <point x="333" y="158" type="curve" smooth="yes"/>
      <point x="333" y="123"/>
      <point x="309" y="87"/>
      <point x="241" y="87" type="curve" smooth="yes"/>
      <point x="179" y="87"/>
      <point x="144" y="126"/>
      <point x="144" y="183" type="curve"/>
      <point x="145" y="197" type="line"/>
      <point x="27" y="197" type="line"/>
      <point x="27" y="178" type="line" smooth="yes"/>
      <point x="27" y="53"/>
      <point x="125" y="-11"/>
      <point x="236" y="-11" type="curve" smooth="yes"/>
      <point x="362" y="-11"/>
      <point x="450" y="43"/>
      <point x="450" y="182" type="curve" smooth="yes"/>
      <point x="450" y="310"/>
      <point x="353" y="340"/>
      <point x="271" y="366" type="curve" smooth="yes"/>
      <point x="209" y="386"/>
      <point x="156" y="403"/>
      <point x="156" y="455" type="curve" smooth="yes"/>
      <point x="156" y="492"/>
      <point x="186" y="520"/>
      <point x="240" y="520" type="curve" smooth="yes"/>
      <point x="292" y="520"/>
      <point x="323" y="487"/>
      <point x="323" y="436" type="curve" smooth="yes"/>
      <point x="323" y="428" type="line"/>
      <point x="438" y="428" type="line"/>
      <point x="438" y="438" type="line" smooth="yes"/>
      <point x="438" y="563"/>
      <point x="349" y="617"/>
    </contour>
    <contour>
      <point x="199" y="-232" type="line"/>
      <point x="256" y="-232" type="line"/>
      <point x="297" y="-148" type="line"/>
      <point x="297" y="-49" type="line"/>
      <point x="187" y="-49" type="line"/>
      <point x="187" y="-157" type="line"/>
      <point x="231" y="-157" type="line"/>
    </contour>
  </outline>
</glyph>
<glyph name="scommaaccent" format="1">
  <advance width="403"/>
  <unicode hex="0219"/>
  <outline>
    <contour>
      <point x="202" y="465" type="move" name="mark0"/>
    </contour>
    <contour>
      <point x="202" y="0" type="move" name="mark1"/>
    </contour>
    <contour>
      <point x="202" y="476" type="curve" smooth="yes"/>
      <point x="110" y="476"/>
      <point x="36" y="429"/>
      <point x="36" y="334" type="curve" smooth="yes"/>
      <point x="36" y="231"/>
      <point x="111" y="211"/>
      <point x="174" y="193" type="curve" smooth="yes"/>
      <point x="222" y="180"/>
      <point x="263" y="168"/>
      <point x="263" y="126" type="curve" smooth="yes"/>
      <point x="263" y="88"/>
      <point x="230" y="76"/>
      <point x="202" y="76" type="curve" smooth="yes"/>
      <point x="171" y="76"/>
      <point x="139" y="92"/>
      <point x="138" y="141" type="curve" smooth="yes"/>
      <point x="138" y="148" type="line"/>
      <point x="30" y="148" type="line"/>
      <point x="30" y="148"/>
      <point x="29" y="141"/>
      <point x="29" y="137" type="curve" smooth="yes"/>
      <point x="29" y="49"/>
      <point x="91" y="-11"/>
      <point x="198" y="-11" type="curve" smooth="yes"/>
      <point x="297" y="-11"/>
      <point x="371" y="27"/>
      <point x="371" y="140" type="curve" smooth="yes"/>
      <point x="371" y="248"/>
      <point x="292" y="268"/>
      <point x="228" y="285" type="curve"/>
      <point x="182" y="296"/>
      <point x="144" y="306"/>
      <point x="144" y="343" type="curve" smooth="yes"/>
      <point x="144" y="371"/>
      <point x="166" y="389"/>
      <point x="199" y="389" type="curve" smooth="yes"/>
      <point x="231" y="389"/>
      <point x="250" y="370"/>
      <point x="251" y="331" type="curve" smooth="yes"/>
      <point x="251" y="329" type="line"/>
      <point x="359" y="329" type="line"/>
      <point x="359" y="329"/>
      <point x="359" y="330"/>
      <point x="359" y="331" type="curve" smooth="yes"/>
      <point x="359" y="334"/>
      <point x="360" y="341"/>
      <point x="360" y="349" type="curve" smooth="yes"/>
      <point x="360" y="429"/>
      <point x="291" y="476"/>
    </contour>
    <contour>
      <point x="159" y="-232" type="line"/>
      <point x="216" y="-232" type="line"/>
      <point x="257" y="-148" type="line"/>
      <point x="257" y="-49" type="line"/>
      <point x="147" y="-49" type="line"/>
      <point x="147" y="-157" type="line"/>
      <point x="191" y="-157" type="line"/>
    </contour>
  </outline>
</glyph>
<glyph name="hungarumlaut" format="1">
  <advance width="241"/>
  <unicode hex="02DD"/>
  <outline>
    <contour>
      <point x="4" y="522" type="line"/>
      <point x="73" y="522" type="line"/>
      <point x="148" y="636" type="line"/>
      <point x="147" y="639" type="line"/>
      <point x="58" y="639" type="line"/>
    </contour>
    <contour>
      <point x="127" y="522" type="line"/>
      <point x="197" y="522" type="line"/>
      <point x="271" y="636" type="line"/>
      <point x="271" y="639" type="line"/>
      <point x="182" y="639" type="line"/>
    </contour>
  </outline>
</glyph>
<glyph name="uni0326" format="1">
  <advance width="0"/>
  <unicode hex="0326"/>
  <outline>
    <contour>
      <point x="-122" y="0" type="move" name="_mark1"/>
    </contour>
    <contour>
      <point x="-122" y="0" type="move" name="_mark0"/>
    </contour>
    <contour>
      <point x="-165" y="-232" type="line"/>
      <point x="-108" y="-232" type="line"/>
      <point x="-67" y="-148" type="line"/>
      <point x="-67" y="-49" type="line"/>
      <point x="-177" y="-49" type="line"/>
      <point x="-177" y="-157" type="line"/>
      <point x="-133" y="-157" type="line"/>
    </contour>
  </outline>
</glyph>
<glyph name="uni0900" format="1">
  <advance width="0"/>
  <unicode hex="0900"/>
  <outline>
    <contour>
      <point x="-37" y="668" type="curve"/>
      <point x="43" y="668" type="line"/>
      <point x="43" y="762"/>
      <point x="-18" y="827"/>
      <point x="-128" y="827" type="curve" smooth="yes"/>
      <point x="-236" y="827"/>
      <point x="-297" y="762"/>
      <point x="-297" y="668" type="curve"/>
      <point x="-218" y="668" type="line"/>
      <point x="-218" y="735"/>
      <point x="-191" y="763"/>
      <point x="-128" y="763" type="curve" smooth="yes"/>
      <point x="-64" y="763"/>
      <point x="-37" y="735"/>
    </contour>
    <contour>
      <point x="-90" y="717" type="line"/>
      <point x="-173" y="717" type="line"/>
      <point x="-173" y="634" type="line"/>
      <point x="-90" y="634" type="line"/>
    </contour>
  </outline>
</glyph>
<glyph name="candraBindudeva" format="1">
  <advance width="0"/>
  <unicode hex="0901"/>
  <outline>
    <contour>
      <point x="-127" y="606" type="move" name="_mark0"/>
    </contour>
    <contour>
      <point x="-127" y="606" type="move" name="_mark0"/>
    </contour>
    <contour>
      <point x="-173" y="827" type="line"/>
      <point x="-173" y="744" type="line"/>
      <point x="-90" y="744" type="line"/>
      <point x="-90" y="827" type="line"/>
    </contour>
    <contour>
      <point x="43" y="793" type="curve"/>
      <point x="-37" y="793" type="line"/>
      <point x="-37" y="726"/>
      <point x="-64" y="698"/>
      <point x="-128" y="698" type="curve" smooth="yes"/>
      <point x="-191" y="698"/>
      <point x="-218" y="726"/>
      <point x="-218" y="793" type="curve"/>
      <point x="-297" y="793" type="line"/>
      <point x="-297" y="699"/>
      <point x="-236" y="634"/>
      <point x="-128" y="634" type="curve" smooth="yes"/>
      <point x="-18" y="634"/>
      <point x="43" y="699"/>
    </contour>
  </outline>
</glyph>
<glyph name="anusvaradeva" format="1">
  <advance width="0"/>
  <unicode hex="0902"/>
  <outline>
    <contour>
      <point x="-129" y="606" type="move" name="_mark0"/>
    </contour>
    <contour>
      <point x="-129" y="606" type="move" name="_mark0"/>
    </contour>
    <contour>
      <point x="-170" y="742" type="line"/>
      <point x="-170" y="659" type="line"/>
      <point x="-87" y="659" type="line"/>
      <point x="-87" y="742" type="line"/>
    </contour>
  </outline>
</glyph>
<glyph name="visargadeva" format="1">
  <advance width="218"/>
  <unicode hex="0903"/>
  <outline>
    <contour>
      <point x="158" y="465" type="line"/>
      <point x="60" y="465" type="line"/>
      <point x="60" y="367" type="line"/>
      <point x="158" y="367" type="line"/>
    </contour>
    <contour>
      <point x="158" y="181" type="line"/>
      <point x="60" y="181" type="line"/>
      <point x="60" y="83" type="line"/>
      <point x="158" y="83" type="line"/>
    </contour>
  </outline>
</glyph>
<glyph name="iideva" format="1">
  <advance width="456"/>
  <unicode hex="0908"/>
  <outline>
    <contour>
      <point x="301" y="606" type="move" name="mark0"/>
    </contour>
    <contour>
      <point x="301" y="0" type="move" name="mark0"/>
    </contour>
    <contour>
      <point x="0" y="0" type="move" name="mark1"/>
    </contour>
    <contour>
      <point x="0" y="0" type="move" name="mark2"/>
    </contour>
    <contour>
      <point x="228" y="354" type="curve"/>
      <point x="382" y="354" type="line"/>
      <point x="382" y="513" type="line"/>
      <point x="466" y="513" type="line"/>
      <point x="466" y="606" type="line"/>
      <point x="370" y="606" type="line"/>
      <point x="357" y="629"/>
      <point x="352" y="649"/>
      <point x="352" y="670" type="curve" smooth="yes"/>
      <point x="352" y="711"/>
      <point x="382" y="734"/>
      <point x="441" y="734" type="curve" smooth="yes"/>
      <point x="452" y="734" type="line"/>
      <point x="452" y="827" type="line"/>
      <point x="423" y="827" type="line" smooth="yes"/>
      <point x="317" y="827"/>
      <point x="246" y="777"/>
      <point x="246" y="698" type="curve" smooth="yes"/>
      <point x="246" y="670"/>
      <point x="254" y="639"/>
      <point x="270" y="606" type="curve"/>
      <point x="-10" y="606" type="line"/>
      <point x="-10" y="513" type="line"/>
      <point x="276" y="513" type="line"/>
      <point x="276" y="447" type="line"/>
      <point x="231" y="447" type="line" smooth="yes"/>
      <point x="133" y="447"/>
      <point x="60" y="413"/>
      <point x="60" y="316" type="curve" smooth="yes"/>
      <point x="60" y="219"/>
      <point x="133" y="185"/>
      <point x="231" y="185" type="curve" smooth="yes"/>
      <point x="241" y="185" type="line" smooth="yes"/>
      <point x="276" y="185"/>
      <point x="314" y="180"/>
      <point x="314" y="133" type="curve" smooth="yes"/>
      <point x="314" y="94"/>
      <point x="290" y="76"/>
      <point x="242" y="76" type="curve" smooth="yes"/>
      <point x="188" y="76"/>
      <point x="154" y="98"/>
      <point x="154" y="141" type="curve" smooth="yes"/>
      <point x="154" y="148" type="line"/>
      <point x="38" y="148" type="line"/>
      <point x="38" y="-80" type="line"/>
      <point x="135" y="-80" type="line"/>
      <point x="135" y="13" type="line"/>
      <point x="164" y="-2"/>
      <point x="201" y="-11"/>
      <point x="247" y="-11" type="curve" smooth="yes"/>
      <point x="344" y="-11"/>
      <point x="422" y="28"/>
      <point x="422" y="143" type="curve" smooth="yes"/>
      <point x="422" y="249"/>
      <point x="352" y="278"/>
      <point x="262" y="278" type="curve" smooth="yes"/>
      <point x="228" y="278" type="line" smooth="yes"/>
      <point x="189" y="278"/>
      <point x="168" y="289"/>
      <point x="168" y="316" type="curve" smooth="yes"/>
      <point x="168" y="343"/>
      <point x="189" y="354"/>
    </contour>
  </outline>
</glyph>
<glyph name="udeva" format="1">
  <advance width="415"/>
  <unicode hex="0909"/>
  <outline>
    <contour>
      <point x="208" y="606" type="move" name="mark0"/>
    </contour>
    <contour>
      <point x="208" y="0" type="move" name="mark0"/>
    </contour>
    <contour>
      <point x="0" y="0" type="move" name="mark1"/>
    </contour>
    <contour>
      <point x="0" y="0" type="move" name="mark2"/>
    </contour>
    <contour>
      <point x="425" y="513" type="line"/>
      <point x="425" y="606" type="line"/>
      <point x="-10" y="606" type="line"/>
      <point x="-10" y="513" type="line"/>
      <point x="199" y="513" type="line" smooth="yes"/>
      <point x="239" y="513"/>
      <point x="260" y="492"/>
      <point x="260" y="449" type="curve" smooth="yes"/>
      <point x="260" y="393"/>
      <point x="234" y="366"/>
      <point x="195" y="366" type="curve" smooth="yes"/>
      <point x="164" y="366" type="line"/>
      <point x="164" y="286" type="line"/>
      <point x="194" y="286" type="line" smooth="yes"/>
      <point x="237" y="286"/>
      <point x="271" y="270"/>
      <point x="271" y="202" type="curve" smooth="yes"/>
      <point x="271" y="154"/>
      <point x="245" y="131"/>
      <point x="200" y="131" type="curve" smooth="yes"/>
      <point x="151" y="131"/>
      <point x="128" y="158"/>
      <point x="128" y="207" type="curve" smooth="yes"/>
      <point x="128" y="226" type="line"/>
      <point x="25" y="226" type="line"/>
      <point x="23" y="215"/>
      <point x="22" y="205"/>
      <point x="22" y="190" type="curve" smooth="yes"/>
      <point x="22" y="111"/>
      <point x="94" y="42"/>
      <point x="202" y="42" type="curve" smooth="yes"/>
      <point x="307" y="42"/>
      <point x="377" y="104"/>
      <point x="377" y="197" type="curve" smooth="yes"/>
      <point x="377" y="258"/>
      <point x="341" y="310"/>
      <point x="287" y="329" type="curve"/>
      <point x="287" y="332" type="line"/>
      <point x="334" y="353"/>
      <point x="366" y="397"/>
      <point x="366" y="443" type="curve" smooth="yes"/>
      <point x="366" y="471"/>
      <point x="359" y="494"/>
      <point x="346" y="513" type="curve"/>
    </contour>
  </outline>
</glyph>
<glyph name="uudeva" format="1">
  <advance width="651"/>
  <unicode hex="090A"/>
  <outline>
    <contour>
      <point x="661" y="513" type="line"/>
      <point x="661" y="606" type="line"/>
      <point x="-10" y="606" type="line"/>
      <point x="-10" y="513" type="line"/>
      <point x="199" y="513" type="line" smooth="yes"/>
      <point x="239" y="513"/>
      <point x="260" y="492"/>
      <point x="260" y="447" type="curve" smooth="yes"/>
      <point x="260" y="393"/>
      <point x="234" y="366"/>
      <point x="195" y="366" type="curve" smooth="yes"/>
      <point x="164" y="366" type="line"/>
      <point x="164" y="286" type="line"/>
      <point x="194" y="286" type="line" smooth="yes"/>
      <point x="242" y="286"/>
      <point x="286" y="270"/>
      <point x="286" y="204" type="curve" smooth="yes"/>
      <point x="286" y="154"/>
      <point x="256" y="131"/>
      <point x="210" y="131" type="curve" smooth="yes"/>
      <point x="153" y="131"/>
      <point x="129" y="154"/>
      <point x="129" y="207" type="curve" smooth="yes"/>
      <point x="129" y="226" type="line"/>
      <point x="25" y="226" type="line"/>
      <point x="23" y="215"/>
      <point x="22" y="205"/>
      <point x="22" y="190" type="curve" smooth="yes"/>
      <point x="22" y="111"/>
      <point x="94" y="42"/>
      <point x="202" y="42" type="curve" smooth="yes"/>
      <point x="337" y="43"/>
      <point x="360" y="119"/>
      <point x="376" y="184" type="curve"/>
      <point x="376" y="185"/>
      <point x="376" y="186"/>
      <point x="377" y="187" type="curve"/>
      <point x="388" y="236"/>
      <point x="398" y="277"/>
      <point x="458" y="277" type="curve" smooth="yes"/>
      <point x="499" y="277"/>
      <point x="523" y="251"/>
      <point x="523" y="213" type="curve" smooth="yes"/>
      <point x="523" y="205" type="line" smooth="yes"/>
      <point x="523" y="165"/>
      <point x="495" y="139"/>
      <point x="448" y="139" type="curve" smooth="yes"/>
      <point x="439" y="139" type="line"/>
      <point x="439" y="44" type="line"/>
      <point x="440" y="44"/>
      <point x="441" y="44"/>
      <point x="442" y="44" type="curve" smooth="yes"/>
      <point x="448" y="43"/>
      <point x="453" y="42"/>
      <point x="458" y="42" type="curve" smooth="yes"/>
      <point x="556" y="42"/>
      <point x="629" y="92"/>
      <point x="629" y="207" type="curve" smooth="yes"/>
      <point x="629" y="312"/>
      <point x="562" y="374"/>
      <point x="461" y="374" type="curve" smooth="yes"/>
      <point x="388" y="374"/>
      <point x="350" y="337"/>
      <point x="333" y="298" type="curve"/>
      <point x="320" y="312"/>
      <point x="304" y="322"/>
      <point x="287" y="329" type="curve"/>
      <point x="287" y="332" type="line"/>
      <point x="334" y="353"/>
      <point x="366" y="397"/>
      <point x="366" y="443" type="curve" smooth="yes"/>
      <point x="366" y="471"/>
      <point x="359" y="494"/>
      <point x="346" y="513" type="curve"/>
    </contour>
  </outline>
</glyph>
<glyph name="rvocalicdeva" format="1">
  <advance width="737"/>
  <unicode hex="090B"/>
  <outline>
    <contour>
      <point x="347" y="606" type="move" name="mark0"/>
    </contour>
    <contour>
      <point x="347" y="0" type="move" name="mark0"/>
    </contour>
    <contour>
      <point x="0" y="0" type="move" name="mark1"/>
    </contour>
    <contour>
      <point x="0" y="0" type="move" name="mark2"/>
    </contour>
    <contour>
      <point x="400" y="513" type="line"/>
      <point x="747" y="513" type="line"/>
      <point x="747" y="606" type="line"/>
      <point x="-10" y="606" type="line"/>
      <point x="-10" y="513" type="line"/>
      <point x="294" y="513" type="line"/>
      <point x="294" y="271" type="line"/>
      <point x="276" y="307" type="line"/>
      <point x="237" y="380"/>
      <point x="198" y="441"/>
      <point x="94" y="441" type="curve" smooth="yes"/>
      <point x="64" y="441"/>
      <point x="41" y="437"/>
      <point x="29" y="433" type="curve"/>
      <point x="29" y="352" type="line"/>
      <point x="63" y="352" type="line" smooth="yes"/>
      <point x="112" y="352"/>
      <point x="145" y="349"/>
      <point x="187" y="271" type="curve"/>
      <point x="210" y="222" type="line"/>
      <point x="30" y="135" type="line"/>
      <point x="30" y="32" type="line"/>
      <point x="294" y="159" type="line"/>
      <point x="294" y="0" type="line"/>
      <point x="400" y="0" type="line"/>
      <point x="400" y="203" type="line"/>
      <point x="573" y="286" type="line"/>
      <point x="573" y="243" type="line"/>
      <point x="526" y="224"/>
      <point x="491" y="183"/>
      <point x="491" y="123" type="curve" smooth="yes"/>
      <point x="491" y="36"/>
      <point x="565" y="-11"/>
      <point x="643" y="-11" type="curve" smooth="yes"/>
      <point x="670" y="-11"/>
      <point x="691" y="-6"/>
      <point x="715" y="4" type="curve"/>
      <point x="715" y="95" type="line"/>
      <point x="699" y="88"/>
      <point x="675" y="81"/>
      <point x="651" y="81" type="curve" smooth="yes"/>
      <point x="618" y="81"/>
      <point x="597" y="95"/>
      <point x="597" y="123" type="curve" smooth="yes"/>
      <point x="597" y="151"/>
      <point x="618" y="165"/>
      <point x="651" y="165" type="curve" smooth="yes"/>
      <point x="671" y="165" type="line"/>
      <point x="671" y="430" type="line"/>
      <point x="573" y="430" type="line"/>
      <point x="573" y="389" type="line"/>
      <point x="400" y="306" type="line"/>
    </contour>
  </outline>
</glyph>
<glyph name="lvocalicdeva" format="1">
  <advance width="646"/>
  <unicode hex="090C"/>
  <outline>
    <contour>
      <point x="517" y="606" type="move" name="mark0"/>
    </contour>
    <contour>
      <point x="517" y="0" type="move" name="mark0"/>
    </contour>
    <contour>
      <point x="0" y="0" type="move" name="mark1"/>
    </contour>
    <contour>
      <point x="0" y="0" type="move" name="mark2"/>
    </contour>
    <contour>
      <point x="550" y="66" type="curve"/>
      <point x="570" y="66" type="line"/>
      <point x="570" y="513" type="line"/>
      <point x="656" y="513" type="line"/>
      <point x="656" y="606" type="line"/>
      <point x="-10" y="606" type="line"/>
      <point x="-10" y="513" type="line"/>
      <point x="464" y="513" type="line"/>
      <point x="464" y="435" type="line"/>
      <point x="450" y="442"/>
      <point x="435" y="445"/>
      <point x="418" y="445" type="curve" smooth="yes"/>
      <point x="356" y="445"/>
      <point x="319" y="407"/>
      <point x="304" y="355" type="curve"/>
      <point x="301" y="355" type="line"/>
      <point x="285" y="407"/>
      <point x="244" y="445"/>
      <point x="177" y="445" type="curve" smooth="yes"/>
      <point x="87" y="445"/>
      <point x="31" y="357"/>
      <point x="31" y="239" type="curve" smooth="yes"/>
      <point x="31" y="83"/>
      <point x="107" y="0"/>
      <point x="246" y="0" type="curve" smooth="yes"/>
      <point x="258" y="0"/>
      <point x="269" y="1"/>
      <point x="280" y="4" type="curve"/>
      <point x="280" y="89" type="line"/>
      <point x="247" y="89" type="line" smooth="yes"/>
      <point x="179" y="89"/>
      <point x="141" y="136"/>
      <point x="141" y="229" type="curve" smooth="yes"/>
      <point x="141" y="304"/>
      <point x="158" y="356"/>
      <point x="193" y="356" type="curve" smooth="yes"/>
      <point x="236" y="356"/>
      <point x="247" y="312"/>
      <point x="247" y="262" type="curve" smooth="yes"/>
      <point x="247" y="192" type="line"/>
      <point x="358" y="192" type="line"/>
      <point x="358" y="262" type="line" smooth="yes"/>
      <point x="358" y="312"/>
      <point x="369" y="356"/>
      <point x="412" y="356" type="curve" smooth="yes"/>
      <point x="447" y="356"/>
      <point x="464" y="322"/>
      <point x="464" y="268" type="curve" smooth="yes"/>
      <point x="464" y="141" type="line"/>
      <point x="421" y="120"/>
      <point x="390" y="80"/>
      <point x="390" y="24" type="curve" smooth="yes"/>
      <point x="390" y="-63"/>
      <point x="464" y="-110"/>
      <point x="542" y="-110" type="curve" smooth="yes"/>
      <point x="569" y="-110"/>
      <point x="590" y="-105"/>
      <point x="614" y="-95" type="curve"/>
      <point x="614" y="-4" type="line"/>
      <point x="598" y="-11"/>
      <point x="574" y="-18"/>
      <point x="550" y="-18" type="curve" smooth="yes"/>
      <point x="517" y="-18"/>
      <point x="496" y="-4"/>
      <point x="496" y="24" type="curve" smooth="yes"/>
      <point x="496" y="52"/>
      <point x="517" y="66"/>
    </contour>
  </outline>
</glyph>
<glyph name="ecandradeva" format="1">
  <advance width="516"/>
  <unicode hex="090D"/>
  <outline>
    <contour>
      <point x="258" y="465" type="move" name="mark0"/>
    </contour>
    <contour>
      <point x="258" y="0" type="move" name="mark0"/>
    </contour>
    <contour>
      <point x="0" y="0" type="move" name="mark1"/>
    </contour>
    <contour>
      <point x="0" y="0" type="move" name="mark2"/>
    </contour>
    <contour>
      <point x="387" y="634" type="curve" smooth="yes"/>
      <point x="487" y="634"/>
      <point x="548" y="699"/>
      <point x="548" y="793" type="curve"/>
      <point x="455" y="793" type="line"/>
      <point x="455" y="735"/>
      <point x="429" y="710"/>
      <point x="387" y="710" type="curve" smooth="yes"/>
      <point x="348" y="710"/>
      <point x="320" y="735"/>
      <point x="320" y="793" type="curve"/>
      <point x="228" y="793" type="line"/>
      <point x="228" y="699"/>
      <point x="289" y="634"/>
    </contour>
    <contour>
      <point x="526" y="606" type="line"/>
      <point x="-10" y="606" type="line"/>
      <point x="-10" y="513" type="line"/>
      <point x="76" y="513" type="line"/>
      <point x="76" y="287" type="line" smooth="yes"/>
      <point x="76" y="248"/>
      <point x="87" y="224"/>
      <point x="111" y="201" type="curve" smooth="yes"/>
      <point x="273" y="42" type="line"/>
      <point x="291" y="22"/>
      <point x="298" y="7"/>
      <point x="298" y="-17" type="curve" smooth="yes"/>
      <point x="298" y="-26"/>
      <point x="298" y="-35"/>
      <point x="296" y="-47" type="curve"/>
      <point x="385" y="-47" type="line"/>
      <point x="395" y="-24"/>
      <point x="401" y="-6"/>
      <point x="401" y="14" type="curve" smooth="yes"/>
      <point x="401" y="40"/>
      <point x="383" y="69"/>
      <point x="340" y="108" type="curve"/>
      <point x="196" y="250" type="line" smooth="yes"/>
      <point x="185" y="260"/>
      <point x="182" y="274"/>
      <point x="182" y="294" type="curve" smooth="yes"/>
      <point x="182" y="513" type="line"/>
      <point x="334" y="513" type="line"/>
      <point x="334" y="384" type="line" smooth="yes"/>
      <point x="334" y="356"/>
      <point x="320" y="341"/>
      <point x="293" y="341" type="curve" smooth="yes"/>
      <point x="274" y="341" type="line"/>
      <point x="274" y="259" type="line"/>
      <point x="288" y="255"/>
      <point x="312" y="252"/>
      <point x="332" y="252" type="curve" smooth="yes"/>
      <point x="417" y="252"/>
      <point x="440" y="315"/>
      <point x="440" y="377" type="curve" smooth="yes"/>
      <point x="440" y="513" type="line"/>
      <point x="526" y="513" type="line"/>
    </contour>
  </outline>
</glyph>
<glyph name="eshortdeva" format="1">
  <advance width="516"/>
  <unicode hex="090E"/>
  <outline>
    <contour>
      <point x="258" y="465" type="move" name="mark0"/>
    </contour>
    <contour>
      <point x="258" y="0" type="move" name="mark0"/>
    </contour>
    <contour>
      <point x="0" y="0" type="move" name="mark1"/>
    </contour>
    <contour>
      <point x="0" y="0" type="move" name="mark2"/>
    </contour>
    <contour>
      <point x="526" y="513" type="line"/>
      <point x="526" y="606" type="line"/>
      <point x="442" y="606" type="line"/>
      <point x="442" y="662" type="line" smooth="yes"/>
      <point x="442" y="744"/>
      <point x="402" y="779"/>
      <point x="307" y="779" type="curve" smooth="yes"/>
      <point x="99" y="779" type="line" smooth="yes"/>
      <point x="79" y="779"/>
      <point x="71" y="787"/>
      <point x="71" y="805" type="curve" smooth="yes"/>
      <point x="71" y="827" type="line"/>
      <point x="-35" y="827" type="line"/>
      <point x="-35" y="805" type="line" smooth="yes"/>
      <point x="-35" y="722"/>
      <point x="5" y="687"/>
      <point x="99" y="687" type="curve" smooth="yes"/>
      <point x="307" y="687" type="line" smooth="yes"/>
      <point x="327" y="687"/>
      <point x="336" y="680"/>
      <point x="336" y="662" type="curve" smooth="yes"/>
      <point x="336" y="606" type="line"/>
      <point x="-10" y="606" type="line"/>
      <point x="-10" y="513" type="line"/>
      <point x="76" y="513" type="line"/>
      <point x="76" y="287" type="line" smooth="yes"/>
      <point x="76" y="248"/>
      <point x="87" y="224"/>
      <point x="111" y="201" type="curve" smooth="yes"/>
      <point x="273" y="42" type="line"/>
      <point x="291" y="22"/>
      <point x="298" y="7"/>
      <point x="298" y="-17" type="curve" smooth="yes"/>
      <point x="298" y="-26"/>
      <point x="298" y="-35"/>
      <point x="296" y="-47" type="curve"/>
      <point x="385" y="-47" type="line"/>
      <point x="395" y="-24"/>
      <point x="401" y="-6"/>
      <point x="401" y="14" type="curve" smooth="yes"/>
      <point x="401" y="40"/>
      <point x="383" y="69"/>
      <point x="340" y="108" type="curve"/>
      <point x="196" y="250" type="line" smooth="yes"/>
      <point x="185" y="260"/>
      <point x="182" y="274"/>
      <point x="182" y="294" type="curve" smooth="yes"/>
      <point x="182" y="513" type="line"/>
      <point x="334" y="513" type="line"/>
      <point x="334" y="384" type="line" smooth="yes"/>
      <point x="334" y="356"/>
      <point x="320" y="341"/>
      <point x="293" y="341" type="curve" smooth="yes"/>
      <point x="274" y="341" type="line"/>
      <point x="274" y="259" type="line"/>
      <point x="288" y="255"/>
      <point x="312" y="252"/>
      <point x="332" y="252" type="curve" smooth="yes"/>
      <point x="417" y="252"/>
      <point x="440" y="315"/>
      <point x="440" y="377" type="curve" smooth="yes"/>
      <point x="440" y="513" type="line"/>
    </contour>
  </outline>
</glyph>
<glyph name="aideva" format="1">
  <advance width="516"/>
  <unicode hex="0910"/>
  <outline>
    <contour>
      <point x="258" y="465" type="move" name="mark0"/>
    </contour>
    <contour>
      <point x="258" y="0" type="move" name="mark0"/>
    </contour>
    <contour>
      <point x="0" y="0" type="move" name="mark1"/>
    </contour>
    <contour>
      <point x="0" y="0" type="move" name="mark2"/>
    </contour>
    <contour>
      <point x="526" y="513" type="line"/>
      <point x="526" y="606" type="line"/>
      <point x="430" y="606" type="line"/>
      <point x="371" y="821" type="line"/>
      <point x="264" y="821" type="line"/>
      <point x="332" y="606" type="line"/>
      <point x="-10" y="606" type="line"/>
      <point x="-10" y="513" type="line"/>
      <point x="76" y="513" type="line"/>
      <point x="76" y="287" type="line" smooth="yes"/>
      <point x="76" y="248"/>
      <point x="87" y="224"/>
      <point x="111" y="201" type="curve" smooth="yes"/>
      <point x="273" y="42" type="line"/>
      <point x="291" y="22"/>
      <point x="298" y="7"/>
      <point x="298" y="-17" type="curve" smooth="yes"/>
      <point x="298" y="-26"/>
      <point x="298" y="-35"/>
      <point x="296" y="-47" type="curve"/>
      <point x="385" y="-47" type="line"/>
      <point x="395" y="-24"/>
      <point x="401" y="-6"/>
      <point x="401" y="14" type="curve" smooth="yes"/>
      <point x="401" y="40"/>
      <point x="383" y="69"/>
      <point x="340" y="108" type="curve"/>
      <point x="196" y="250" type="line" smooth="yes"/>
      <point x="185" y="260"/>
      <point x="182" y="274"/>
      <point x="182" y="294" type="curve" smooth="yes"/>
      <point x="182" y="513" type="line"/>
      <point x="334" y="513" type="line"/>
      <point x="334" y="384" type="line" smooth="yes"/>
      <point x="334" y="356"/>
      <point x="320" y="341"/>
      <point x="293" y="341" type="curve" smooth="yes"/>
      <point x="274" y="341" type="line"/>
      <point x="274" y="259" type="line"/>
      <point x="288" y="255"/>
      <point x="312" y="252"/>
      <point x="332" y="252" type="curve" smooth="yes"/>
      <point x="417" y="252"/>
      <point x="440" y="315"/>
      <point x="440" y="377" type="curve" smooth="yes"/>
      <point x="440" y="513" type="line"/>
    </contour>
  </outline>
</glyph>
<glyph name="kadeva" format="1">
  <advance width="664"/>
  <unicode hex="0915"/>
  <outline>
    <contour>
      <point x="337" y="606" type="move" name="mark0"/>
    </contour>
    <contour>
      <point x="337" y="0" type="move" name="mark0"/>
    </contour>
    <contour>
      <point x="0" y="0" type="move" name="mark1"/>
    </contour>
    <contour>
      <point x="94" y="113" type="move" name="mark2"/>
    </contour>
    <contour>
      <point x="390" y="433" type="line"/>
      <point x="390" y="513" type="line"/>
      <point x="674" y="513" type="line"/>
      <point x="674" y="606" type="line"/>
      <point x="-10" y="606" type="line"/>
      <point x="-10" y="513" type="line"/>
      <point x="284" y="513" type="line"/>
      <point x="284" y="433" type="line"/>
      <point x="279" y="433" type="line"/>
      <point x="259" y="447"/>
      <point x="225" y="461"/>
      <point x="180" y="461" type="curve" smooth="yes"/>
      <point x="90" y="461"/>
      <point x="32" y="406"/>
      <point x="32" y="276" type="curve" smooth="yes"/>
      <point x="32" y="147"/>
      <point x="90" y="89"/>
      <point x="180" y="89" type="curve" smooth="yes"/>
      <point x="225" y="89"/>
      <point x="259" y="103"/>
      <point x="279" y="117" type="curve"/>
      <point x="284" y="117" type="line"/>
      <point x="284" y="0" type="line"/>
      <point x="390" y="0" type="line"/>
      <point x="390" y="286" type="line" smooth="yes"/>
      <point x="390" y="336"/>
      <point x="409" y="364"/>
      <point x="461" y="364" type="curve" smooth="yes"/>
      <point x="512" y="364"/>
      <point x="531" y="336"/>
      <point x="531" y="286" type="curve" smooth="yes"/>
      <point x="531" y="264" type="line" smooth="yes"/>
      <point x="531" y="214"/>
      <point x="512" y="186"/>
      <point x="461" y="186" type="curve" smooth="yes"/>
      <point x="452" y="186" type="line"/>
      <point x="452" y="91" type="line"/>
      <point x="453" y="91"/>
      <point x="454" y="91"/>
      <point x="455" y="91" type="curve" smooth="yes"/>
      <point x="461" y="90"/>
      <point x="466" y="89"/>
      <point x="471" y="89" type="curve" smooth="yes"/>
      <point x="569" y="89"/>
      <point x="642" y="145"/>
      <point x="642" y="274" type="curve" smooth="yes"/>
      <point x="642" y="403"/>
      <point x="585" y="461"/>
      <point x="493" y="461" type="curve" smooth="yes"/>
      <point x="449" y="461"/>
      <point x="415" y="446"/>
      <point x="394" y="433" type="curve"/>
    </contour>
    <contour>
      <point x="284" y="284" type="curve"/>
      <point x="284" y="264" type="line" smooth="yes"/>
      <point x="284" y="214"/>
      <point x="264" y="186"/>
      <point x="213" y="186" type="curve" smooth="yes"/>
      <point x="162" y="186"/>
      <point x="142" y="214"/>
      <point x="142" y="264" type="curve" smooth="yes"/>
      <point x="142" y="286" type="line" smooth="yes"/>
      <point x="142" y="336"/>
      <point x="162" y="364"/>
      <point x="213" y="364" type="curve" smooth="yes"/>
      <point x="264" y="364"/>
      <point x="284" y="335"/>
    </contour>
  </outline>
</glyph>
<glyph name="khadeva" format="1">
  <advance width="727"/>
  <unicode hex="0916"/>
  <outline>
    <contour>
      <point x="598" y="606" type="move" name="mark0"/>
    </contour>
    <contour>
      <point x="598" y="0" type="move" name="mark0"/>
    </contour>
    <contour>
      <point x="0" y="0" type="move" name="mark1"/>
    </contour>
    <contour>
      <point x="66" y="136" type="move" name="mark2"/>
    </contour>
    <contour>
      <point x="737" y="513" type="line"/>
      <point x="737" y="606" type="line"/>
      <point x="-10" y="606" type="line"/>
      <point x="-10" y="513" type="line"/>
      <point x="164" y="513" type="line"/>
      <point x="164" y="431" type="line" smooth="yes"/>
      <point x="164" y="374"/>
      <point x="141" y="344"/>
      <point x="98" y="344" type="curve" smooth="yes"/>
      <point x="26" y="344" type="line"/>
      <point x="26" y="131"/>
      <point x="166" y="26"/>
      <point x="364" y="26" type="curve" smooth="yes"/>
      <point x="437" y="26"/>
      <point x="507" y="42"/>
      <point x="545" y="73" type="curve"/>
      <point x="545" y="0" type="line"/>
      <point x="651" y="0" type="line"/>
      <point x="651" y="513" type="line"/>
    </contour>
    <contour>
      <point x="545" y="513" type="line"/>
      <point x="545" y="433" type="line"/>
      <point x="540" y="433" type="line"/>
      <point x="522" y="447"/>
      <point x="491" y="461"/>
      <point x="451" y="461" type="curve" smooth="yes"/>
      <point x="367" y="461"/>
      <point x="313" y="417"/>
      <point x="313" y="316" type="curve" smooth="yes"/>
      <point x="313" y="214"/>
      <point x="367" y="169"/>
      <point x="451" y="169" type="curve" smooth="yes"/>
      <point x="491" y="169"/>
      <point x="522" y="183"/>
      <point x="540" y="197" type="curve"/>
      <point x="545" y="197" type="line"/>
      <point x="530" y="146"/>
      <point x="471" y="113"/>
      <point x="357" y="113" type="curve" smooth="yes"/>
      <point x="236" y="113"/>
      <point x="168" y="172"/>
      <point x="138" y="257" type="curve"/>
      <point x="223" y="264"/>
      <point x="270" y="327"/>
      <point x="270" y="442" type="curve" smooth="yes"/>
      <point x="270" y="513" type="line"/>
    </contour>
    <contour>
      <point x="545" y="320" type="curve"/>
      <point x="545" y="309" type="line" smooth="yes"/>
      <point x="545" y="281"/>
      <point x="528" y="266"/>
      <point x="484" y="266" type="curve" smooth="yes"/>
      <point x="440" y="266"/>
      <point x="423" y="281"/>
      <point x="423" y="309" type="curve" smooth="yes"/>
      <point x="423" y="321" type="line" smooth="yes"/>
      <point x="423" y="349"/>
      <point x="440" y="364"/>
      <point x="484" y="364" type="curve" smooth="yes"/>
      <point x="528" y="364"/>
      <point x="545" y="348"/>
    </contour>
  </outline>
</glyph>
<glyph name="ghadeva" format="1">
  <advance width="558"/>
  <unicode hex="0918"/>
  <outline>
    <contour>
      <point x="429" y="606" type="move" name="mark0"/>
    </contour>
    <contour>
      <point x="429" y="0" type="move" name="mark0"/>
    </contour>
    <contour>
      <point x="0" y="0" type="move" name="mark1"/>
    </contour>
    <contour>
      <point x="0" y="0" type="move" name="mark2"/>
    </contour>
    <contour>
      <point x="568" y="513" type="line"/>
      <point x="568" y="606" type="line"/>
      <point x="-10" y="606" type="line"/>
      <point x="-10" y="513" type="line"/>
      <point x="73" y="513" type="line"/>
      <point x="64" y="499"/>
      <point x="60" y="482"/>
      <point x="60" y="463" type="curve" smooth="yes"/>
      <point x="60" y="410"/>
      <point x="97" y="384"/>
      <point x="137" y="371" type="curve"/>
      <point x="91" y="355"/>
      <point x="60" y="316"/>
      <point x="60" y="260" type="curve" smooth="yes"/>
      <point x="60" y="169"/>
      <point x="142" y="103"/>
      <point x="260" y="103" type="curve" smooth="yes"/>
      <point x="310" y="103"/>
      <point x="349" y="115"/>
      <point x="376" y="138" type="curve"/>
      <point x="376" y="0" type="line"/>
      <point x="482" y="0" type="line"/>
      <point x="482" y="513" type="line"/>
    </contour>
    <contour>
      <point x="279" y="190" type="curve" smooth="yes"/>
      <point x="215" y="190"/>
      <point x="171" y="221"/>
      <point x="171" y="271" type="curve" smooth="yes"/>
      <point x="171" y="309"/>
      <point x="197" y="323"/>
      <point x="229" y="323" type="curve" smooth="yes"/>
      <point x="287" y="323" type="line"/>
      <point x="287" y="410" type="line"/>
      <point x="228" y="410" type="line" smooth="yes"/>
      <point x="195" y="410"/>
      <point x="171" y="431"/>
      <point x="171" y="468" type="curve" smooth="yes"/>
      <point x="171" y="487"/>
      <point x="177" y="513"/>
      <point x="204" y="513" type="curve" smooth="yes"/>
      <point x="376" y="513" type="line"/>
      <point x="376" y="300" type="line" smooth="yes"/>
      <point x="376" y="231"/>
      <point x="345" y="190"/>
    </contour>
  </outline>
</glyph>
<glyph name="ngadeva" format="1">
  <advance width="533"/>
  <unicode hex="0919"/>
  <outline>
    <contour>
      <point x="329" y="606" type="move" name="mark0"/>
    </contour>
    <contour>
      <point x="243" y="0" type="move" name="mark0"/>
    </contour>
    <contour>
      <point x="0" y="0" type="move" name="mark1"/>
    </contour>
    <contour>
      <point x="228" y="14" type="move" name="mark2"/>
    </contour>
    <contour>
      <point x="543" y="606" type="line"/>
      <point x="-10" y="606" type="line"/>
      <point x="-10" y="513" type="line"/>
      <point x="276" y="513" type="line"/>
      <point x="276" y="447" type="line"/>
      <point x="231" y="447" type="line" smooth="yes"/>
      <point x="133" y="447"/>
      <point x="60" y="413"/>
      <point x="60" y="316" type="curve" smooth="yes"/>
      <point x="60" y="219"/>
      <point x="133" y="185"/>
      <point x="231" y="185" type="curve" smooth="yes"/>
      <point x="241" y="185" type="line" smooth="yes"/>
      <point x="276" y="185"/>
      <point x="314" y="180"/>
      <point x="314" y="133" type="curve" smooth="yes"/>
      <point x="314" y="94"/>
      <point x="290" y="76"/>
      <point x="242" y="76" type="curve" smooth="yes"/>
      <point x="188" y="76"/>
      <point x="154" y="98"/>
      <point x="154" y="141" type="curve" smooth="yes"/>
      <point x="154" y="148" type="line"/>
      <point x="46" y="148" type="line"/>
      <point x="45" y="141"/>
      <point x="45" y="138"/>
      <point x="45" y="133" type="curve" smooth="yes"/>
      <point x="45" y="49"/>
      <point x="110" y="-11"/>
      <point x="237" y="-11" type="curve" smooth="yes"/>
      <point x="339" y="-11"/>
      <point x="422" y="28"/>
      <point x="422" y="143" type="curve" smooth="yes"/>
      <point x="422" y="249"/>
      <point x="352" y="278"/>
      <point x="262" y="278" type="curve" smooth="yes"/>
      <point x="228" y="278" type="line" smooth="yes"/>
      <point x="189" y="278"/>
      <point x="168" y="289"/>
      <point x="168" y="316" type="curve" smooth="yes"/>
      <point x="168" y="343"/>
      <point x="189" y="354"/>
      <point x="228" y="354" type="curve" smooth="yes"/>
      <point x="382" y="354" type="line"/>
      <point x="382" y="513" type="line"/>
      <point x="543" y="513" type="line"/>
    </contour>
    <contour>
      <point x="415" y="358" type="line"/>
      <point x="415" y="275" type="line"/>
      <point x="498" y="275" type="line"/>
      <point x="498" y="358" type="line"/>
    </contour>
  </outline>
</glyph>
<glyph name="cadeva" format="1">
  <advance width="514"/>
  <unicode hex="091A"/>
  <outline>
    <contour>
      <point x="385" y="606" type="move" name="mark0"/>
    </contour>
    <contour>
      <point x="385" y="0" type="move" name="mark0"/>
    </contour>
    <contour>
      <point x="0" y="0" type="move" name="mark1"/>
    </contour>
    <contour>
      <point x="0" y="0" type="move" name="mark2"/>
    </contour>
    <contour>
      <point x="524" y="513" type="line"/>
      <point x="524" y="606" type="line"/>
      <point x="-10" y="606" type="line"/>
      <point x="-10" y="513" type="line"/>
      <point x="332" y="513" type="line"/>
      <point x="332" y="248" type="line" smooth="yes"/>
      <point x="332" y="198"/>
      <point x="313" y="170"/>
      <point x="262" y="170" type="curve" smooth="yes"/>
      <point x="210" y="170"/>
      <point x="191" y="198"/>
      <point x="191" y="248" type="curve" smooth="yes"/>
      <point x="191" y="267" type="line" smooth="yes"/>
      <point x="191" y="310"/>
      <point x="210" y="334"/>
      <point x="262" y="334" type="curve" smooth="yes"/>
      <point x="273" y="334" type="line"/>
      <point x="273" y="428" type="line"/>
      <point x="4" y="428" type="line"/>
      <point x="4" y="334" type="line"/>
      <point x="100" y="334" type="line"/>
      <point x="87" y="311"/>
      <point x="80" y="282"/>
      <point x="80" y="245" type="curve" smooth="yes"/>
      <point x="80" y="127"/>
      <point x="139" y="73"/>
      <point x="229" y="73" type="curve" smooth="yes"/>
      <point x="273" y="73"/>
      <point x="308" y="88"/>
      <point x="328" y="101" type="curve"/>
      <point x="332" y="101" type="line"/>
      <point x="332" y="0" type="line"/>
      <point x="438" y="0" type="line"/>
      <point x="438" y="513" type="line"/>
    </contour>
  </outline>
</glyph>
<glyph name="chadeva" format="1">
  <advance width="605"/>
  <unicode hex="091B"/>
  <outline>
    <contour>
      <point x="434" y="606" type="move" name="mark0"/>
    </contour>
    <contour>
      <point x="318" y="0" type="move" name="mark0"/>
    </contour>
    <contour>
      <point x="0" y="0" type="move" name="mark1"/>
    </contour>
    <contour>
      <point x="0" y="0" type="move" name="mark2"/>
    </contour>
    <contour>
      <point x="487" y="513" type="line"/>
      <point x="615" y="513" type="line"/>
      <point x="615" y="606" type="line"/>
      <point x="-30" y="606" type="line"/>
      <point x="-30" y="513" type="line"/>
      <point x="60" y="513" type="line"/>
      <point x="47" y="494"/>
      <point x="40" y="470"/>
      <point x="40" y="443" type="curve" smooth="yes"/>
      <point x="40" y="381"/>
      <point x="76" y="339"/>
      <point x="116" y="323" type="curve"/>
      <point x="75" y="308"/>
      <point x="40" y="262"/>
      <point x="40" y="206" type="curve" smooth="yes"/>
      <point x="40" y="111"/>
      <point x="137" y="42"/>
      <point x="276" y="42" type="curve" smooth="yes"/>
      <point x="461" y="42"/>
      <point x="575" y="160"/>
      <point x="575" y="302" type="curve" smooth="yes"/>
      <point x="575" y="383"/>
      <point x="541" y="427"/>
      <point x="487" y="444" type="curve"/>
    </contour>
    <contour>
      <point x="381" y="513" type="line"/>
      <point x="381" y="447" type="line"/>
      <point x="326" y="433"/>
      <point x="297" y="397"/>
      <point x="297" y="352" type="curve" smooth="yes"/>
      <point x="297" y="339"/>
      <point x="299" y="328"/>
      <point x="301" y="322" type="curve"/>
      <point x="301" y="321"/>
      <point x="301" y="321"/>
      <point x="301" y="320" type="curve"/>
      <point x="391" y="320" type="line"/>
      <point x="391" y="342" type="line" smooth="yes"/>
      <point x="391" y="364"/>
      <point x="405" y="375"/>
      <point x="429" y="375" type="curve" smooth="yes"/>
      <point x="464" y="375"/>
      <point x="474" y="355"/>
      <point x="474" y="316" type="curve" smooth="yes"/>
      <point x="474" y="292" type="line" smooth="yes"/>
      <point x="474" y="222"/>
      <point x="420" y="129"/>
      <point x="277" y="129" type="curve" smooth="yes"/>
      <point x="196" y="129"/>
      <point x="151" y="163"/>
      <point x="151" y="220" type="curve" smooth="yes"/>
      <point x="151" y="256"/>
      <point x="170" y="275"/>
      <point x="199" y="275" type="curve" smooth="yes"/>
      <point x="229" y="275" type="line"/>
      <point x="229" y="362" type="line"/>
      <point x="198" y="362" type="line" smooth="yes"/>
      <point x="169" y="362"/>
      <point x="151" y="390"/>
      <point x="151" y="442" type="curve" smooth="yes"/>
      <point x="151" y="477"/>
      <point x="159" y="513"/>
      <point x="194" y="513" type="curve" smooth="yes"/>
    </contour>
  </outline>
</glyph>
<glyph name="jhadeva" format="1">
  <advance width="691"/>
  <unicode hex="091D"/>
  <outline>
    <contour>
      <point x="562" y="606" type="move" name="mark0"/>
    </contour>
    <contour>
      <point x="562" y="0" type="move" name="mark0"/>
    </contour>
    <contour>
      <point x="0" y="0" type="move" name="mark1"/>
    </contour>
    <contour>
      <point x="0" y="0" type="move" name="mark2"/>
    </contour>
    <contour>
      <point x="701" y="513" type="line"/>
      <point x="701" y="606" type="line"/>
      <point x="-10" y="606" type="line"/>
      <point x="-10" y="513" type="line"/>
      <point x="276" y="513" type="line"/>
      <point x="276" y="447" type="line"/>
      <point x="231" y="447" type="line" smooth="yes"/>
      <point x="133" y="447"/>
      <point x="60" y="413"/>
      <point x="60" y="316" type="curve" smooth="yes"/>
      <point x="60" y="219"/>
      <point x="133" y="185"/>
      <point x="231" y="185" type="curve" smooth="yes"/>
      <point x="241" y="185" type="line" smooth="yes"/>
      <point x="277" y="185"/>
      <point x="314" y="180"/>
      <point x="314" y="132" type="curve" smooth="yes"/>
      <point x="314" y="94"/>
      <point x="290" y="76"/>
      <point x="242" y="76" type="curve" smooth="yes"/>
      <point x="188" y="76"/>
      <point x="154" y="98"/>
      <point x="154" y="141" type="curve" smooth="yes"/>
      <point x="154" y="148" type="line"/>
      <point x="38" y="148" type="line"/>
      <point x="38" y="-80" type="line"/>
      <point x="135" y="-80" type="line"/>
      <point x="135" y="13" type="line"/>
      <point x="164" y="-2"/>
      <point x="201" y="-11"/>
      <point x="247" y="-11" type="curve" smooth="yes"/>
      <point x="346" y="-11"/>
      <point x="422" y="30"/>
      <point x="422" y="131" type="curve" smooth="yes"/>
      <point x="422" y="158"/>
      <point x="417" y="178"/>
      <point x="407" y="194" type="curve"/>
      <point x="509" y="194" type="line"/>
      <point x="509" y="0" type="line"/>
      <point x="615" y="0" type="line"/>
      <point x="615" y="513" type="line"/>
    </contour>
    <contour>
      <point x="509" y="513" type="line"/>
      <point x="509" y="278" type="line"/>
      <point x="228" y="278" type="line" smooth="yes"/>
      <point x="189" y="278"/>
      <point x="168" y="289"/>
      <point x="168" y="316" type="curve" smooth="yes"/>
      <point x="168" y="343"/>
      <point x="189" y="354"/>
      <point x="228" y="354" type="curve" smooth="yes"/>
      <point x="382" y="354" type="line"/>
      <point x="382" y="513" type="line"/>
    </contour>
  </outline>
</glyph>
<glyph name="nyadeva" format="1">
  <advance width="583"/>
  <unicode hex="091E"/>
  <outline>
    <contour>
      <point x="454" y="606" type="move" name="mark0"/>
    </contour>
    <contour>
      <point x="454" y="0" type="move" name="mark0"/>
    </contour>
    <contour>
      <point x="0" y="0" type="move" name="mark1"/>
    </contour>
    <contour>
      <point x="0" y="0" type="move" name="mark2"/>
    </contour>
    <contour>
      <point x="593" y="513" type="line"/>
      <point x="593" y="606" type="line"/>
      <point x="-10" y="606" type="line"/>
      <point x="-10" y="513" type="line"/>
      <point x="401" y="513" type="line"/>
      <point x="401" y="311" type="line"/>
      <point x="347" y="311" type="line"/>
      <point x="333" y="395"/>
      <point x="281" y="435"/>
      <point x="196" y="435" type="curve" smooth="yes"/>
      <point x="106" y="435"/>
      <point x="46" y="388"/>
      <point x="46" y="317" type="curve" smooth="yes"/>
      <point x="46" y="313"/>
      <point x="47" y="305"/>
      <point x="49" y="299" type="curve"/>
      <point x="154" y="299" type="line"/>
      <point x="154" y="303" type="line" smooth="yes"/>
      <point x="154" y="330"/>
      <point x="170" y="345"/>
      <point x="196" y="345" type="curve" smooth="yes"/>
      <point x="230" y="345"/>
      <point x="245" y="318"/>
      <point x="245" y="268" type="curve" smooth="yes"/>
      <point x="245" y="255" type="line" smooth="yes"/>
      <point x="245" y="205"/>
      <point x="230" y="178"/>
      <point x="193" y="178" type="curve" smooth="yes"/>
      <point x="165" y="178"/>
      <point x="151" y="194"/>
      <point x="151" y="220" type="curve" smooth="yes"/>
      <point x="151" y="224" type="line"/>
      <point x="49" y="224" type="line"/>
      <point x="47" y="218"/>
      <point x="46" y="211"/>
      <point x="46" y="206" type="curve" smooth="yes"/>
      <point x="46" y="135"/>
      <point x="105" y="88"/>
      <point x="193" y="88" type="curve" smooth="yes"/>
      <point x="284" y="88"/>
      <point x="336" y="129"/>
      <point x="348" y="217" type="curve"/>
      <point x="401" y="217" type="line"/>
      <point x="401" y="0" type="line"/>
      <point x="507" y="0" type="line"/>
      <point x="507" y="513" type="line"/>
    </contour>
  </outline>
</glyph>
